<?xml version="1.0" encoding="utf-8"?>
<!-- Generator: Adobe Illustrator 26.0.2, SVG Export Plug-In . SVG Version: 6.00 Build 0)  -->
<svg version="1.1" id="svg5" xmlns:svg="http://www.w3.org/2000/svg"
	 xmlns="http://www.w3.org/2000/svg" xmlns:xlink="http://www.w3.org/1999/xlink" x="0px" y="0px" viewBox="0 0 800 800"
	 style="enable-background:new 0 0 800 800;" xml:space="preserve">
<style type="text/css">
	.st0{fill-rule:evenodd;clip-rule:evenodd;fill:#3E4F59;}
	.st1{fill-rule:evenodd;clip-rule:evenodd;fill:#ACBEC2;}
	.st2{fill-rule:evenodd;clip-rule:evenodd;fill:#E8EDEE;}
	.st3{fill-rule:evenodd;clip-rule:evenodd;}
	.st4{fill-rule:evenodd;clip-rule:evenodd;fill:#ED7161;}
	.st5{fill-rule:evenodd;clip-rule:evenodd;fill:#ECBA16;}
	.st6{fill-rule:evenodd;clip-rule:evenodd;fill:#42B05C;}
	.st7{fill-rule:evenodd;clip-rule:evenodd;fill:#0075D3;}
	.st8{fill-rule:evenodd;clip-rule:evenodd;fill:#FE73C5;}
	.st9{fill-rule:evenodd;clip-rule:evenodd;fill:#0588E2;}
	.st10{fill-rule:evenodd;clip-rule:evenodd;fill:#FE93D3;}
	.st11{fill-rule:evenodd;clip-rule:evenodd;fill:#918383;}
</style>
<g id="layer1" transform="translate(-384,-192)">
	<path id="path10321" class="st0" d="M509,304.5h612.5v75H509V304.5z"/>
	<path id="path10323" class="st1" d="M509,379.5h612.5v500H509V379.5z"/>
	<path id="path10325" class="st2" d="M509,379.5v500h372.1c147.5-133.1,238.6-328.8,232.8-500H509z"/>
	<path id="path10327" class="st3" d="M534,292c-20.6,0-37.5,16.9-37.5,37.5v500c0,6.9,5.6,12.5,12.5,12.5s12.5-5.6,12.5-12.5v-500
		c0-7.1,5.4-12.5,12.5-12.5h562.5c7.1,0,12.5,5.4,12.5,12.5V367H584c-6.9,0-12.5,5.6-12.5,12.5c0,6.9,5.6,12.5,12.5,12.5h525v462.5
		c0,7.1-5.4,12.5-12.5,12.5H484c-6.9,0-12.5,5.6-12.5,12.5c0,6.9,5.6,12.5,12.5,12.5h612.5c20.6,0,37.5-16.9,37.5-37.5
		c0-175,0-350,0-525c0-20.6-16.9-37.5-37.5-37.5H534z"/>
	<path id="path10329" class="st4" d="M1071.5,329.5c-6.9,0-12.5,5.6-12.5,12.5c0,6.9,5.6,12.5,12.5,12.5s12.5-5.6,12.5-12.5
		C1084,335.1,1078.4,329.5,1071.5,329.5z"/>
	<path id="path10331" class="st5" d="M1021.5,329.5c-6.9,0-12.5,5.6-12.5,12.5c0,6.9,5.6,12.5,12.5,12.5s12.5-5.6,12.5-12.5
		C1034,335.1,1028.4,329.5,1021.5,329.5z"/>
	<path id="path10333" class="st6" d="M971.5,329.5c-6.9,0-12.5,5.6-12.5,12.5c0,6.9,5.6,12.5,12.5,12.5S984,348.9,984,342
		C984,335.1,978.4,329.5,971.5,329.5z"/>
	<path id="path10335" class="st3" d="M446.5,867c-6.9,0-12.5,5.6-12.5,12.5s5.6,12.5,12.5,12.5s12.5-5.6,12.5-12.5
		S453.4,867,446.5,867z"/>
	<path id="path10337" class="st3" d="M546.5,367c-6.9,0-12.5,5.6-12.5,12.5c0,6.9,5.6,12.5,12.5,12.5s12.5-5.6,12.5-12.5
		C559,372.6,553.4,367,546.5,367z"/>
	<path id="rect4427-3" class="st7" d="M659,492h312.5c13.8,0,25,11.2,25,25v225c0,13.8-11.2,25-25,25H659c-13.8,0-25-11.2-25-25V517
		C634,503.2,645.2,492,659,492z"/>
	<rect id="rect8552-6" x="634" y="492" class="st8" width="362.5" height="75"/>
	<path id="path27648-7" class="st9" d="M659,492c-13.9,0-25,11.1-25,25v225c0,13.9,11.1,25,25,25h244.8c37.4-37,57.9-84.2,58-132.9
		c0-53-24.3-103.9-67.7-142.1H659z"/>
	<path id="path8626-5" class="st10" d="M634,492v75h307.4c0.9-4.1,1.3-8.3,1.4-12.5c0-22.5-11.7-44.3-33.5-62.5H634z"/>
	<g id="path5132">
		<path id="path15606" class="st11" d="M634,554.5h362.5"/>
		<path id="path15608" class="st3" d="M659,479.5c-20.6,0-37.5,16.9-37.5,37.5c0,20.3,0,40.6,0,60.9c0,6.9,5.6,12.5,12.5,12.5
			s12.5-5.6,12.5-12.5V567H984v125.3c0,6.9,5.6,12.5,12.5,12.5s12.5-5.6,12.5-12.5c0-58.4,0-116.9,0-175.3
			c0-20.6-16.9-37.5-37.5-37.5H659z M659,504.5h312.5c7.1,0,12.5,5.4,12.5,12.5v25H646.5v-25C646.5,509.9,651.9,504.5,659,504.5z
			 M634,617c-6.9,0-12.5,5.6-12.5,12.5V742c0,20.6,16.9,37.5,37.5,37.5h312.5c20.6,0,37.5-16.9,37.5-37.5c0-6.9-5.6-12.5-12.5-12.5
			S984,735.1,984,742c0,7.1-5.4,12.5-12.5,12.5H659c-7.1,0-12.5-5.4-12.5-12.5V629.5C646.5,622.6,640.9,617,634,617z"/>
	</g>
	<path id="path5138" class="st3" d="M754.3,594.7c-5.4-4.3-13.3-3.4-17.6,1.9c0,0,0,0,0,0l-50,62.5c-3.7,4.6-3.7,11.1,0,15.6
		l50,62.5c4.3,5.4,12.2,6.3,17.6,2c0,0,0,0,0,0c5.4-4.3,6.3-12.2,2-17.6c0,0,0,0,0,0L712.5,667l43.8-54.7
		C760.6,606.9,759.7,599.1,754.3,594.7C754.3,594.7,754.3,594.7,754.3,594.7z"/>
	<path id="path5140" class="st3" d="M876.2,594.7c-5.4,4.3-6.3,12.2-2,17.6c0,0,0,0,0,0L918,667l-43.8,54.7
		c-4.3,5.4-3.4,13.3,1.9,17.6c0,0,0,0,0,0c5.4,4.3,13.3,3.4,17.6-1.9c0,0,0,0,0,0l50-62.5c3.7-4.6,3.7-11.1,0-15.6l-50-62.5
		C889.5,591.3,881.6,590.4,876.2,594.7C876.2,594.7,876.2,594.7,876.2,594.7z"/>
	<path id="path5148" class="st3" d="M842.1,580.3c-3.1,1.2-5.6,3.5-7,6.5l-62.5,137.5c-2.9,6.3-0.1,13.7,6.2,16.6
		c6.3,2.9,13.7,0.1,16.6-6.2l62.5-137.5c2.9-6.3,0.1-13.7-6.2-16.6C848.7,579.3,845.2,579.1,842.1,580.3L842.1,580.3z"/>
</g>
</svg>
