<?xml version="1.0" encoding="utf-8"?>
<!-- Generator: Adobe Illustrator 26.0.2, SVG Export Plug-In . SVG Version: 6.00 Build 0)  -->
<svg version="1.1" id="Слой_1" xmlns="http://www.w3.org/2000/svg" xmlns:xlink="http://www.w3.org/1999/xlink" x="0px" y="0px"
	 viewBox="0 0 924 939.7" style="enable-background:new 0 0 924 939.7;" xml:space="preserve">
<style type="text/css">
	.st0{fill:#3C8A56;}
	.st1{clip-path:url(#SVGID_00000041294326929485453340000012316225079346138046_);}
	.st2{opacity:0.89;fill:#FFFFFF;}
	.st3{display:none;fill:none;stroke:#3B8C58;stroke-width:8.8785;stroke-miterlimit:10;}
	.st4{display:none;}
	.st5{display:inline;opacity:0.89;fill:#3B8C58;}
	.st6{display:inline;fill:none;}
	.st7{font-family:'Consolas';}
	.st8{font-size:179.0501px;}
	.st9{letter-spacing:14.6;}
	.st10{font-size:179.0509px;}
	.st11{font-size:179.0508px;}
	.st12{display:inline;}
	.st13{opacity:0.89;fill:#3B8C58;}
	.st14{opacity:0.78;clip-path:url(#SVGID_00000150087032547401055410000016666871259806832001_);fill:#76C488;}
	.st15{clip-path:url(#SVGID_00000150087032547401055410000016666871259806832001_);}
	.st16{opacity:0.93;clip-path:url(#SVGID_00000150087032547401055410000016666871259806832001_);fill:#DEEFE1;}
</style>
<g>
	<ellipse class="st0" cx="461.8" cy="467.5" rx="455.3" ry="462.6"/>
	<g>
		<defs>
			<ellipse id="SVGID_1_" cx="461.8" cy="467.5" rx="455.3" ry="462.6"/>
		</defs>
		<clipPath id="SVGID_00000098206704311725626590000008927590456754500278_">
			<use xlink:href="#SVGID_1_"  style="overflow:visible;"/>
		</clipPath>
		<g style="clip-path:url(#SVGID_00000098206704311725626590000008927590456754500278_);">
			<path class="st2" d="M419-45.5c0,3.8-0.4,7.1-1.2,10.1c-0.8,3-1.9,5.5-3.4,7.5c-1.5,2-3.3,3.6-5.4,4.7c-2.1,1.1-4.6,1.6-7.3,1.6
				c-2.4,0-4.6-0.4-6.6-1.3c-2-0.9-3.7-2.3-5.2-4.2c-1.5-1.9-2.6-4.3-3.4-7.3c-0.8-3-1.2-6.5-1.2-10.7c0-3.8,0.4-7.1,1.2-10.1
				c0.8-3,1.9-5.5,3.4-7.5c1.5-2,3.3-3.6,5.5-4.7c2.2-1.1,4.6-1.6,7.3-1.6c2.4,0,4.6,0.4,6.6,1.3c2,0.9,3.7,2.3,5.2,4.2
				c1.4,1.9,2.6,4.3,3.4,7.3C418.6-53.2,419-49.7,419-45.5z M393.4-45.4c0,0.5,0,0.9,0,1.3s0,0.8,0.1,1.2l16.2-12.4
				c-0.8-2.3-1.8-4-3.1-5.1c-1.3-1.1-2.8-1.7-4.5-1.7c-1.2,0-2.4,0.3-3.4,1c-1.1,0.7-2,1.7-2.8,3.1c-0.8,1.4-1.4,3.1-1.9,5.2
				C393.6-50.7,393.4-48.2,393.4-45.4z M410.9-45.2c0-0.4,0-0.8,0-1.2c0-0.4,0-0.8,0-1.2l-16.1,12.3c0.7,2.3,1.7,3.9,3,5
				c1.3,1.1,2.8,1.6,4.5,1.6c1.2,0,2.4-0.3,3.5-1c1.1-0.7,2-1.7,2.8-3.1c0.8-1.4,1.4-3.1,1.8-5.2C410.6-39.9,410.9-42.4,410.9-45.2z
				"/>
			<path class="st2" d="M431.7-22.4V-30h11v-29.4l-9.6,5.6l-2.6-7l13.7-7.7h6.8V-30h9.5v7.6H431.7z"/>
			<path class="st2" d="M505.2-45.5c0,3.8-0.4,7.1-1.2,10.1c-0.8,3-1.9,5.5-3.4,7.5c-1.5,2-3.3,3.6-5.4,4.7
				c-2.1,1.1-4.6,1.6-7.3,1.6c-2.4,0-4.6-0.4-6.6-1.3c-2-0.9-3.7-2.3-5.2-4.2c-1.5-1.9-2.6-4.3-3.4-7.3c-0.8-3-1.2-6.5-1.2-10.7
				c0-3.8,0.4-7.1,1.2-10.1c0.8-3,1.9-5.5,3.4-7.5c1.5-2,3.3-3.6,5.5-4.7c2.2-1.1,4.6-1.6,7.3-1.6c2.4,0,4.6,0.4,6.6,1.3
				c2,0.9,3.7,2.3,5.2,4.2c1.4,1.9,2.6,4.3,3.4,7.3C504.8-53.2,505.2-49.7,505.2-45.5z M479.7-45.4c0,0.5,0,0.9,0,1.3s0,0.8,0.1,1.2
				l16.2-12.4c-0.8-2.3-1.8-4-3.1-5.1c-1.3-1.1-2.8-1.7-4.5-1.7c-1.2,0-2.4,0.3-3.4,1c-1.1,0.7-2,1.7-2.8,3.1
				c-0.8,1.4-1.4,3.1-1.9,5.2C479.9-50.7,479.7-48.2,479.7-45.4z M497.1-45.2c0-0.4,0-0.8,0-1.2c0-0.4,0-0.8,0-1.2l-16.1,12.3
				c0.7,2.3,1.7,3.9,3,5c1.3,1.1,2.8,1.6,4.5,1.6c1.2,0,2.4-0.3,3.5-1c1.1-0.7,2-1.7,2.8-3.1c0.8-1.4,1.4-3.1,1.8-5.2
				C496.9-39.9,497.1-42.4,497.1-45.2z"/>
			<path class="st2" d="M199.5,41.4v-7.6h11V4.4L201,10l-2.6-7L212-4.7h6.8v38.5h9.5v7.6H199.5z"/>
			<path class="st2" d="M242.7,41.4v-7.6h11V4.4l-9.6,5.6l-2.6-7l13.7-7.7h6.8v38.5h9.5v7.6H242.7z"/>
			<path class="st2" d="M285.8,41.4v-7.6h11V4.4l-9.6,5.6l-2.6-7l13.7-7.7h6.8v38.5h9.5v7.6H285.8z"/>
			<path class="st2" d="M328.9,41.4v-7.6h11V4.4l-9.6,5.6l-2.6-7l13.7-7.7h6.8v38.5h9.5v7.6H328.9z"/>
			<path class="st2" d="M372.1,41.4v-7.6h11V4.4l-9.6,5.6l-2.6-7l13.7-7.7h6.8v38.5h9.5v7.6H372.1z"/>
			<path class="st2" d="M415.2,41.4v-7.6h11V4.4l-9.6,5.6L414,3l13.7-7.7h6.8v38.5h9.5v7.6H415.2z"/>
			<path class="st2" d="M458.3,41.4v-7.6h11V4.4l-9.6,5.6l-2.6-7l13.7-7.7h6.8v38.5h9.5v7.6H458.3z"/>
			<path class="st2" d="M501.4,41.4v-7.6h11V4.4l-9.6,5.6l-2.6-7l13.7-7.7h6.8v38.5h9.5v7.6H501.4z"/>
			<path class="st2" d="M544.6,41.4v-7.6h11V4.4L546,10l-2.6-7l13.7-7.7h6.8v38.5h9.5v7.6H544.6z"/>
			<path class="st2" d="M587.7,41.4v-7.6h11V4.4l-9.6,5.6l-2.6-7l13.7-7.7h6.8v38.5h9.5v7.6H587.7z"/>
			<path class="st2" d="M630.8,41.4v-7.6h11V4.4l-9.6,5.6l-2.6-7l13.7-7.7h6.8v38.5h9.5v7.6H630.8z"/>
			<path class="st2" d="M673.9,41.4v-7.6h11V4.4l-9.6,5.6l-2.6-7l13.7-7.7h6.8v38.5h9.5v7.6H673.9z"/>
			<path class="st2" d="M109.6,105.2v-7.6h11V68.1l-9.6,5.6l-2.6-7l13.7-7.7h6.8v38.5h9.5v7.6H109.6z"/>
			<path class="st2" d="M152.8,105.2v-7.6h11V68.1l-9.6,5.6l-2.6-7l13.7-7.7h6.8v38.5h9.5v7.6H152.8z"/>
			<path class="st2" d="M195.9,105.2v-7.6h11V68.1l-9.6,5.6l-2.6-7l13.7-7.7h6.8v38.5h9.5v7.6H195.9z"/>
			<path class="st2" d="M239,105.2v-7.6h11V68.1l-9.6,5.6l-2.6-7l13.7-7.7h6.8v38.5h9.5v7.6H239z"/>
			<path class="st2" d="M312.6,82.1c0,3.8-0.4,7.1-1.2,10.1c-0.8,3-1.9,5.5-3.4,7.5c-1.5,2-3.3,3.6-5.4,4.7
				c-2.1,1.1-4.6,1.6-7.3,1.6c-2.4,0-4.6-0.4-6.6-1.3c-2-0.9-3.7-2.3-5.2-4.2c-1.5-1.9-2.6-4.3-3.4-7.3c-0.8-3-1.2-6.5-1.2-10.7
				c0-3.8,0.4-7.1,1.2-10.1c0.8-3,1.9-5.5,3.4-7.5c1.5-2,3.3-3.6,5.5-4.7c2.2-1.1,4.6-1.6,7.3-1.6c2.4,0,4.6,0.4,6.6,1.3
				c2,0.9,3.7,2.3,5.2,4.2c1.4,1.9,2.6,4.3,3.4,7.3C312.2,74.4,312.6,77.9,312.6,82.1z M287,82.2c0,0.5,0,0.9,0,1.3
				c0,0.4,0,0.8,0.1,1.2l16.2-12.4c-0.8-2.3-1.8-4-3.1-5.1c-1.3-1.1-2.8-1.7-4.5-1.7c-1.2,0-2.4,0.3-3.4,1c-1.1,0.7-2,1.7-2.8,3.1
				c-0.8,1.4-1.4,3.1-1.9,5.2C287.2,76.9,287,79.4,287,82.2z M304.5,82.4c0-0.4,0-0.8,0-1.2c0-0.4,0-0.8,0-1.2l-16.1,12.3
				c0.7,2.3,1.7,3.9,3,5c1.3,1.1,2.8,1.6,4.5,1.6c1.2,0,2.4-0.3,3.5-1c1.1-0.7,2-1.7,2.8-3.1c0.8-1.4,1.4-3.1,1.8-5.2
				C304.3,87.7,304.5,85.2,304.5,82.4z"/>
			<path class="st2" d="M325.3,105.2v-7.6h11V68.1l-9.6,5.6l-2.6-7l13.7-7.7h6.8v38.5h9.5v7.6H325.3z"/>
			<path class="st2" d="M368.4,105.2v-7.6h11V68.1l-9.6,5.6l-2.6-7l13.7-7.7h6.8v38.5h9.5v7.6H368.4z"/>
			<path class="st2" d="M411.5,105.2v-7.6h11V68.1l-9.6,5.6l-2.6-7l13.7-7.7h6.8v38.5h9.5v7.6H411.5z"/>
			<path class="st2" d="M485.1,82.1c0,3.8-0.4,7.1-1.2,10.1c-0.8,3-1.9,5.5-3.4,7.5c-1.5,2-3.3,3.6-5.4,4.7
				c-2.1,1.1-4.6,1.6-7.3,1.6c-2.4,0-4.6-0.4-6.6-1.3c-2-0.9-3.7-2.3-5.2-4.2c-1.5-1.9-2.6-4.3-3.4-7.3c-0.8-3-1.2-6.5-1.2-10.7
				c0-3.8,0.4-7.1,1.2-10.1c0.8-3,1.9-5.5,3.4-7.5c1.5-2,3.3-3.6,5.5-4.7c2.2-1.1,4.6-1.6,7.3-1.6c2.4,0,4.6,0.4,6.6,1.3
				c2,0.9,3.7,2.3,5.2,4.2c1.4,1.9,2.6,4.3,3.4,7.3C484.7,74.4,485.1,77.9,485.1,82.1z M459.5,82.2c0,0.5,0,0.9,0,1.3
				c0,0.4,0,0.8,0.1,1.2l16.2-12.4c-0.8-2.3-1.8-4-3.1-5.1c-1.3-1.1-2.8-1.7-4.5-1.7c-1.2,0-2.4,0.3-3.4,1c-1.1,0.7-2,1.7-2.8,3.1
				c-0.8,1.4-1.4,3.1-1.9,5.2C459.7,76.9,459.5,79.4,459.5,82.2z M477,82.4c0-0.4,0-0.8,0-1.2c0-0.4,0-0.8,0-1.2l-16.1,12.3
				c0.7,2.3,1.7,3.9,3,5c1.3,1.1,2.8,1.6,4.5,1.6c1.2,0,2.4-0.3,3.5-1c1.1-0.7,2-1.7,2.8-3.1c0.8-1.4,1.4-3.1,1.8-5.2
				C476.8,87.7,477,85.2,477,82.4z"/>
			<path class="st2" d="M497.8,105.2v-7.6h11V68.1l-9.6,5.6l-2.6-7l13.7-7.7h6.8v38.5h9.5v7.6H497.8z"/>
			<path class="st2" d="M540.9,105.2v-7.6h11V68.1l-9.6,5.6l-2.6-7l13.7-7.7h6.8v38.5h9.5v7.6H540.9z"/>
			<path class="st2" d="M584,105.2v-7.6h11V68.1l-9.6,5.6l-2.6-7l13.7-7.7h6.8v38.5h9.5v7.6H584z"/>
			<path class="st2" d="M627.2,105.2v-7.6h11V68.1l-9.6,5.6l-2.6-7l13.7-7.7h6.8v38.5h9.5v7.6H627.2z"/>
			<path class="st2" d="M670.3,105.2v-7.6h11V68.1l-9.6,5.6l-2.6-7l13.7-7.7h6.8v38.5h9.5v7.6H670.3z"/>
			<path class="st2" d="M713.4,105.2v-7.6h11V68.1l-9.6,5.6l-2.6-7l13.7-7.7h6.8v38.5h9.5v7.6H713.4z"/>
			<path class="st2" d="M756.6,105.2v-7.6h11V68.1l-9.6,5.6l-2.6-7l13.7-7.7h6.8v38.5h9.5v7.6H756.6z"/>
			<path class="st2" d="M47.8,169v-7.6h11v-29.4l-9.6,5.6l-2.6-7l13.7-7.7h6.8v38.5h9.5v7.6H47.8z"/>
			<path class="st2" d="M91,169v-7.6h11v-29.4l-9.6,5.6l-2.6-7l13.7-7.7h6.8v38.5h9.5v7.6H91z"/>
			<path class="st2" d="M164.5,145.9c0,3.8-0.4,7.1-1.2,10.1c-0.8,3-1.9,5.5-3.4,7.5c-1.5,2-3.3,3.6-5.4,4.7
				c-2.1,1.1-4.6,1.6-7.3,1.6c-2.4,0-4.6-0.4-6.6-1.3c-2-0.9-3.7-2.3-5.2-4.2c-1.5-1.9-2.6-4.3-3.4-7.3c-0.8-3-1.2-6.5-1.2-10.7
				c0-3.8,0.4-7.1,1.2-10.1c0.8-3,1.9-5.5,3.4-7.5c1.5-2,3.3-3.6,5.5-4.7c2.2-1.1,4.6-1.6,7.3-1.6c2.4,0,4.6,0.4,6.6,1.3
				c2,0.9,3.7,2.3,5.2,4.2c1.4,1.9,2.6,4.3,3.4,7.3C164.1,138.2,164.5,141.7,164.5,145.9z M139,146c0,0.5,0,0.9,0,1.3s0,0.8,0.1,1.2
				l16.2-12.4c-0.8-2.3-1.8-4-3.1-5.1c-1.3-1.1-2.8-1.7-4.5-1.7c-1.2,0-2.4,0.3-3.4,1c-1.1,0.7-2,1.7-2.8,3.1
				c-0.8,1.4-1.4,3.1-1.9,5.2C139.2,140.7,139,143.2,139,146z M156.4,146.2c0-0.4,0-0.8,0-1.2c0-0.4,0-0.8,0-1.2l-16.1,12.3
				c0.7,2.3,1.7,3.9,3,5c1.3,1.1,2.8,1.6,4.5,1.6c1.2,0,2.4-0.3,3.5-1c1.1-0.7,2-1.7,2.8-3.1c0.8-1.4,1.4-3.1,1.8-5.2
				C156.2,151.5,156.4,149,156.4,146.2z"/>
			<path class="st2" d="M177.2,169v-7.6h11v-29.4l-9.6,5.6l-2.6-7l13.7-7.7h6.8v38.5h9.5v7.6H177.2z"/>
			<path class="st2" d="M220.3,169v-7.6h11v-29.4l-9.6,5.6l-2.6-7l13.7-7.7h6.8v38.5h9.5v7.6H220.3z"/>
			<path class="st2" d="M263.5,169v-7.6h11v-29.4l-9.6,5.6l-2.6-7l13.7-7.7h6.8v38.5h9.5v7.6H263.5z"/>
			<path class="st2" d="M306.6,169v-7.6h11v-29.4l-9.6,5.6l-2.6-7l13.7-7.7h6.8v38.5h9.5v7.6H306.6z"/>
			<path class="st2" d="M349.7,169v-7.6h11v-29.4l-9.6,5.6l-2.6-7l13.7-7.7h6.8v38.5h9.5v7.6H349.7z"/>
			<path class="st2" d="M392.9,169v-7.6h11v-29.4l-9.6,5.6l-2.6-7l13.7-7.7h6.8v38.5h9.5v7.6H392.9z"/>
			<path class="st2" d="M436,169v-7.6h11v-29.4l-9.6,5.6l-2.6-7l13.7-7.7h6.8v38.5h9.5v7.6H436z"/>
			<path class="st2" d="M479.1,169v-7.6h11v-29.4l-9.6,5.6l-2.6-7l13.7-7.7h6.8v38.5h9.5v7.6H479.1z"/>
			<path class="st2" d="M552.7,145.9c0,3.8-0.4,7.1-1.2,10.1c-0.8,3-1.9,5.5-3.4,7.5c-1.5,2-3.3,3.6-5.4,4.7
				c-2.1,1.1-4.6,1.6-7.3,1.6c-2.4,0-4.6-0.4-6.6-1.3c-2-0.9-3.7-2.3-5.2-4.2c-1.5-1.9-2.6-4.3-3.4-7.3c-0.8-3-1.2-6.5-1.2-10.7
				c0-3.8,0.4-7.1,1.2-10.1c0.8-3,1.9-5.5,3.4-7.5c1.5-2,3.3-3.6,5.5-4.7c2.2-1.1,4.6-1.6,7.3-1.6c2.4,0,4.6,0.4,6.6,1.3
				c2,0.9,3.7,2.3,5.2,4.2c1.4,1.9,2.6,4.3,3.4,7.3S552.7,141.7,552.7,145.9z M527.1,146c0,0.5,0,0.9,0,1.3s0,0.8,0.1,1.2l16.2-12.4
				c-0.8-2.3-1.8-4-3.1-5.1c-1.3-1.1-2.8-1.7-4.5-1.7c-1.2,0-2.4,0.3-3.4,1c-1.1,0.7-2,1.7-2.8,3.1c-0.8,1.4-1.4,3.1-1.9,5.2
				C527.3,140.7,527.1,143.2,527.1,146z M544.6,146.2c0-0.4,0-0.8,0-1.2c0-0.4,0-0.8,0-1.2l-16.1,12.3c0.7,2.3,1.7,3.9,3,5
				c1.3,1.1,2.8,1.6,4.5,1.6c1.2,0,2.4-0.3,3.5-1c1.1-0.7,2-1.7,2.8-3.1c0.8-1.4,1.4-3.1,1.8-5.2C544.3,151.5,544.6,149,544.6,146.2
				z"/>
			<path class="st2" d="M565.4,169v-7.6h11v-29.4l-9.6,5.6l-2.6-7l13.7-7.7h6.8v38.5h9.5v7.6H565.4z"/>
			<path class="st2" d="M608.5,169v-7.6h11v-29.4l-9.6,5.6l-2.6-7l13.7-7.7h6.8v38.5h9.5v7.6H608.5z"/>
			<path class="st2" d="M651.6,169v-7.6h11v-29.4l-9.6,5.6l-2.6-7l13.7-7.7h6.8v38.5h9.5v7.6H651.6z"/>
			<path class="st2" d="M694.8,169v-7.6h11v-29.4l-9.6,5.6l-2.6-7l13.7-7.7h6.8v38.5h9.5v7.6H694.8z"/>
			<path class="st2" d="M737.9,169v-7.6h11v-29.4l-9.6,5.6l-2.6-7l13.7-7.7h6.8v38.5h9.5v7.6H737.9z"/>
			<path class="st2" d="M781,169v-7.6h11v-29.4l-9.6,5.6l-2.6-7l13.7-7.7h6.8v38.5h9.5v7.6H781z"/>
			<path class="st2" d="M854.6,145.9c0,3.8-0.4,7.1-1.2,10.1c-0.8,3-1.9,5.5-3.4,7.5c-1.5,2-3.3,3.6-5.4,4.7
				c-2.1,1.1-4.6,1.6-7.3,1.6c-2.4,0-4.6-0.4-6.6-1.3c-2-0.9-3.7-2.3-5.2-4.2c-1.5-1.9-2.6-4.3-3.4-7.3c-0.8-3-1.2-6.5-1.2-10.7
				c0-3.8,0.4-7.1,1.2-10.1c0.8-3,1.9-5.5,3.4-7.5c1.5-2,3.3-3.6,5.5-4.7c2.2-1.1,4.6-1.6,7.3-1.6c2.4,0,4.6,0.4,6.6,1.3
				c2,0.9,3.7,2.3,5.2,4.2c1.4,1.9,2.6,4.3,3.4,7.3S854.6,141.7,854.6,145.9z M829,146c0,0.5,0,0.9,0,1.3s0,0.8,0.1,1.2l16.2-12.4
				c-0.8-2.3-1.8-4-3.1-5.1c-1.3-1.1-2.8-1.7-4.5-1.7c-1.2,0-2.4,0.3-3.4,1c-1.1,0.7-2,1.7-2.8,3.1c-0.8,1.4-1.4,3.1-1.9,5.2
				C829.2,140.7,829,143.2,829,146z M846.5,146.2c0-0.4,0-0.8,0-1.2c0-0.4,0-0.8,0-1.2l-16.1,12.3c0.7,2.3,1.7,3.9,3,5
				c1.3,1.1,2.8,1.6,4.5,1.6c1.2,0,2.4-0.3,3.5-1c1.1-0.7,2-1.7,2.8-3.1c0.8-1.4,1.4-3.1,1.8-5.2C846.2,151.5,846.5,149,846.5,146.2
				z"/>
			<path class="st2" d="M2.7,232.8v-7.6h11v-29.4l-9.6,5.6l-2.6-7l13.7-7.7h6.8v38.5h9.5v7.6H2.7z"/>
			<path class="st2" d="M45.8,232.8v-7.6h11v-29.4l-9.6,5.6l-2.6-7l13.7-7.7h6.8v38.5h9.5v7.6H45.8z"/>
			<path class="st2" d="M88.9,232.8v-7.6h11v-29.4l-9.6,5.6l-2.6-7l13.7-7.7h6.8v38.5h9.5v7.6H88.9z"/>
			<path class="st2" d="M132,232.8v-7.6h11v-29.4l-9.6,5.6l-2.6-7l13.7-7.7h6.8v38.5h9.5v7.6H132z"/>
			<path class="st2" d="M175.2,232.8v-7.6h11v-29.4l-9.6,5.6l-2.6-7l13.7-7.7h6.8v38.5h9.5v7.6H175.2z"/>
			<path class="st2" d="M218.3,232.8v-7.6h11v-29.4l-9.6,5.6l-2.6-7l13.7-7.7h6.8v38.5h9.5v7.6H218.3z"/>
			<path class="st2" d="M291.9,209.7c0,3.8-0.4,7.1-1.2,10.1c-0.8,3-1.9,5.5-3.4,7.5c-1.5,2-3.3,3.6-5.4,4.7
				c-2.1,1.1-4.6,1.6-7.3,1.6c-2.4,0-4.6-0.4-6.6-1.3c-2-0.9-3.7-2.3-5.2-4.2c-1.5-1.9-2.6-4.3-3.4-7.3c-0.8-3-1.2-6.5-1.2-10.7
				c0-3.8,0.4-7.1,1.2-10.1c0.8-3,1.9-5.5,3.4-7.5c1.5-2,3.3-3.6,5.5-4.7c2.2-1.1,4.6-1.6,7.3-1.6c2.4,0,4.6,0.4,6.6,1.3
				c2,0.9,3.7,2.3,5.2,4.2c1.4,1.9,2.6,4.3,3.4,7.3C291.5,202,291.9,205.5,291.9,209.7z M266.3,209.8c0,0.5,0,0.9,0,1.3
				c0,0.4,0,0.8,0.1,1.2l16.2-12.4c-0.8-2.3-1.8-4-3.1-5.1c-1.3-1.1-2.8-1.7-4.5-1.7c-1.2,0-2.4,0.3-3.4,1c-1.1,0.7-2,1.7-2.8,3.1
				s-1.4,3.1-1.9,5.2C266.5,204.5,266.3,207,266.3,209.8z M283.8,210c0-0.4,0-0.8,0-1.2c0-0.4,0-0.8,0-1.2l-16.1,12.3
				c0.7,2.3,1.7,3.9,3,5c1.3,1.1,2.8,1.6,4.5,1.6c1.2,0,2.4-0.3,3.5-1c1.1-0.7,2-1.7,2.8-3.1s1.4-3.1,1.8-5.2S283.8,212.8,283.8,210
				z"/>
			<path class="st2" d="M304.6,232.8v-7.6h11v-29.4l-9.6,5.6l-2.6-7l13.7-7.7h6.8v38.5h9.5v7.6H304.6z"/>
			<path class="st2" d="M347.7,232.8v-7.6h11v-29.4l-9.6,5.6l-2.6-7l13.7-7.7h6.8v38.5h9.5v7.6H347.7z"/>
			<path class="st2" d="M390.8,232.8v-7.6h11v-29.4l-9.6,5.6l-2.6-7l13.7-7.7h6.8v38.5h9.5v7.6H390.8z"/>
			<path class="st2" d="M433.9,232.8v-7.6h11v-29.4l-9.6,5.6l-2.6-7l13.7-7.7h6.8v38.5h9.5v7.6H433.9z"/>
			<path class="st2" d="M477.1,232.8v-7.6h11v-29.4l-9.6,5.6l-2.6-7l13.7-7.7h6.8v38.5h9.5v7.6H477.1z"/>
			<path class="st2" d="M520.2,232.8v-7.6h11v-29.4l-9.6,5.6l-2.6-7l13.7-7.7h6.8v38.5h9.5v7.6H520.2z"/>
			<path class="st2" d="M563.3,232.8v-7.6h11v-29.4l-9.6,5.6l-2.6-7l13.7-7.7h6.8v38.5h9.5v7.6H563.3z"/>
			<path class="st2" d="M606.5,232.8v-7.6h11v-29.4l-9.6,5.6l-2.6-7l13.7-7.7h6.8v38.5h9.5v7.6H606.5z"/>
			<path class="st2" d="M649.6,232.8v-7.6h11v-29.4l-9.6,5.6l-2.6-7l13.7-7.7h6.8v38.5h9.5v7.6H649.6z"/>
			<path class="st2" d="M692.7,232.8v-7.6h11v-29.4l-9.6,5.6l-2.6-7l13.7-7.7h6.8v38.5h9.5v7.6H692.7z"/>
			<path class="st2" d="M735.8,232.8v-7.6h11v-29.4l-9.6,5.6l-2.6-7l13.7-7.7h6.8v38.5h9.5v7.6H735.8z"/>
			<path class="st2" d="M779,232.8v-7.6h11v-29.4l-9.6,5.6l-2.6-7l13.7-7.7h6.8v38.5h9.5v7.6H779z"/>
			<path class="st2" d="M822.1,232.8v-7.6h11v-29.4l-9.6,5.6l-2.6-7l13.7-7.7h6.8v38.5h9.5v7.6H822.1z"/>
			<path class="st2" d="M865.2,232.8v-7.6h11v-29.4l-9.6,5.6l-2.6-7l13.7-7.7h6.8v38.5h9.5v7.6H865.2z"/>
			<path class="st2" d="M-30.4,296.6V289h11v-29.4l-9.6,5.6l-2.6-7l13.7-7.7h6.8V289h9.5v7.6H-30.4z"/>
			<path class="st2" d="M12.7,296.6V289h11v-29.4l-9.6,5.6l-2.6-7l13.7-7.7H32V289h9.5v7.6H12.7z"/>
			<path class="st2" d="M55.8,296.6V289h11v-29.4l-9.6,5.6l-2.6-7l13.7-7.7h6.8V289h9.5v7.6H55.8z"/>
			<path class="st2" d="M99,296.6V289h11v-29.4l-9.6,5.6l-2.6-7l13.7-7.7h6.8V289h9.5v7.6H99z"/>
			<path class="st2" d="M142.1,296.6V289h11v-29.4l-9.6,5.6l-2.6-7l13.7-7.7h6.8V289h9.5v7.6H142.1z"/>
			<path class="st2" d="M185.2,296.6V289h11v-29.4l-9.6,5.6l-2.6-7l13.7-7.7h6.8V289h9.5v7.6H185.2z"/>
			<path class="st2" d="M228.4,296.6V289h11v-29.4l-9.6,5.6l-2.6-7l13.7-7.7h6.8V289h9.5v7.6H228.4z"/>
			<path class="st2" d="M271.5,296.6V289h11v-29.4l-9.6,5.6l-2.6-7l13.7-7.7h6.8V289h9.5v7.6H271.5z"/>
			<path class="st2" d="M314.6,296.6V289h11v-29.4l-9.6,5.6l-2.6-7l13.7-7.7h6.8V289h9.5v7.6H314.6z"/>
			<path class="st2" d="M357.7,296.6V289h11v-29.4l-9.6,5.6l-2.6-7l13.7-7.7h6.8V289h9.5v7.6H357.7z"/>
			<path class="st2" d="M400.9,296.6V289h11v-29.4l-9.6,5.6l-2.6-7l13.7-7.7h6.8V289h9.5v7.6H400.9z"/>
			<path class="st2" d="M444,296.6V289h11v-29.4l-9.6,5.6l-2.6-7l13.7-7.7h6.8V289h9.5v7.6H444z"/>
			<path class="st2" d="M487.1,296.6V289h11v-29.4l-9.6,5.6l-2.6-7l13.7-7.7h6.8V289h9.5v7.6H487.1z"/>
			<path class="st2" d="M530.2,296.6V289h11v-29.4l-9.6,5.6l-2.6-7l13.7-7.7h6.8V289h9.5v7.6H530.2z"/>
			<path class="st2" d="M573.4,296.6V289h11v-29.4l-9.6,5.6l-2.6-7l13.7-7.7h6.8V289h9.5v7.6H573.4z"/>
			<path class="st2" d="M616.5,296.6V289h11v-29.4l-9.6,5.6l-2.6-7l13.7-7.7h6.8V289h9.5v7.6H616.5z"/>
			<path class="st2" d="M659.6,296.6V289h11v-29.4l-9.6,5.6l-2.6-7l13.7-7.7h6.8V289h9.5v7.6H659.6z"/>
			<path class="st2" d="M702.8,296.6V289h11v-29.4l-9.6,5.6l-2.6-7l13.7-7.7h6.8V289h9.5v7.6H702.8z"/>
			<path class="st2" d="M745.9,296.6V289h11v-29.4l-9.6,5.6l-2.6-7l13.7-7.7h6.8V289h9.5v7.6H745.9z"/>
			<path class="st2" d="M789,296.6V289h11v-29.4l-9.6,5.6l-2.6-7l13.7-7.7h6.8V289h9.5v7.6H789z"/>
			<path class="st2" d="M832.1,296.6V289h11v-29.4l-9.6,5.6l-2.6-7l13.7-7.7h6.8V289h9.5v7.6H832.1z"/>
			<path class="st2" d="M875.3,296.6V289h11v-29.4l-9.6,5.6l-2.6-7l13.7-7.7h6.8V289h9.5v7.6H875.3z"/>
			<path class="st2" d="M-23.2,337.3c0,3.8-0.4,7.1-1.2,10.1c-0.8,3-1.9,5.5-3.4,7.5c-1.5,2-3.3,3.6-5.4,4.7
				c-2.1,1.1-4.6,1.6-7.3,1.6c-2.4,0-4.6-0.4-6.6-1.3c-2-0.9-3.7-2.3-5.2-4.2c-1.5-1.9-2.6-4.3-3.4-7.3s-1.2-6.5-1.2-10.7
				c0-3.8,0.4-7.1,1.2-10.1c0.8-3,1.9-5.5,3.4-7.5c1.5-2,3.3-3.6,5.5-4.7c2.2-1.1,4.6-1.6,7.3-1.6c2.4,0,4.6,0.4,6.6,1.3
				c2,0.9,3.7,2.3,5.2,4.2c1.4,1.9,2.6,4.3,3.4,7.3C-23.6,329.6-23.2,333.1-23.2,337.3z M-48.8,337.4c0,0.5,0,0.9,0,1.3
				s0,0.8,0.1,1.2l16.2-12.4c-0.8-2.3-1.8-4-3.1-5.1c-1.3-1.1-2.8-1.7-4.5-1.7c-1.2,0-2.4,0.3-3.4,1c-1.1,0.7-2,1.7-2.8,3.1
				c-0.8,1.4-1.4,3.1-1.9,5.2C-48.6,332.1-48.8,334.6-48.8,337.4z M-31.4,337.6c0-0.4,0-0.8,0-1.2c0-0.4,0-0.8,0-1.2l-16.1,12.3
				c0.7,2.3,1.7,3.9,3,5c1.3,1.1,2.8,1.6,4.5,1.6c1.2,0,2.4-0.3,3.5-1c1.1-0.7,2-1.7,2.8-3.1c0.8-1.4,1.4-3.1,1.8-5.2
				C-31.6,342.8-31.4,340.4-31.4,337.6z"/>
			<path class="st2" d="M-10.5,360.4v-7.6h11v-29.4l-9.6,5.6l-2.6-7L2,314.3h6.8v38.5h9.5v7.6H-10.5z"/>
			<path class="st2" d="M32.6,360.4v-7.6h11v-29.4l-9.6,5.6l-2.6-7l13.7-7.7h6.8v38.5h9.5v7.6H32.6z"/>
			<path class="st2" d="M75.7,360.4v-7.6h11v-29.4l-9.6,5.6l-2.6-7l13.7-7.7H95v38.5h9.5v7.6H75.7z"/>
			<path class="st2" d="M118.8,360.4v-7.6h11v-29.4l-9.6,5.6l-2.6-7l13.7-7.7h6.8v38.5h9.5v7.6H118.8z"/>
			<path class="st2" d="M162,360.4v-7.6h11v-29.4l-9.6,5.6l-2.6-7l13.7-7.7h6.8v38.5h9.5v7.6H162z"/>
			<path class="st2" d="M205.1,360.4v-7.6h11v-29.4l-9.6,5.6l-2.6-7l13.7-7.7h6.8v38.5h9.5v7.6H205.1z"/>
			<path class="st2" d="M248.2,360.4v-7.6h11v-29.4l-9.6,5.6l-2.6-7l13.7-7.7h6.8v38.5h9.5v7.6H248.2z"/>
			<path class="st2" d="M291.3,360.4v-7.6h11v-29.4l-9.6,5.6l-2.6-7l13.7-7.7h6.8v38.5h9.5v7.6H291.3z"/>
			<path class="st2" d="M364.9,337.3c0,3.8-0.4,7.1-1.2,10.1c-0.8,3-1.9,5.5-3.4,7.5c-1.5,2-3.3,3.6-5.4,4.7
				c-2.1,1.1-4.6,1.6-7.3,1.6c-2.4,0-4.6-0.4-6.6-1.3c-2-0.9-3.7-2.3-5.2-4.2c-1.5-1.9-2.6-4.3-3.4-7.3c-0.8-3-1.2-6.5-1.2-10.7
				c0-3.8,0.4-7.1,1.2-10.1c0.8-3,1.9-5.5,3.4-7.5c1.5-2,3.3-3.6,5.5-4.7c2.2-1.1,4.6-1.6,7.3-1.6c2.4,0,4.6,0.4,6.6,1.3
				c2,0.9,3.7,2.3,5.2,4.2c1.4,1.9,2.6,4.3,3.4,7.3C364.5,329.6,364.9,333.1,364.9,337.3z M339.3,337.4c0,0.5,0,0.9,0,1.3
				s0,0.8,0.1,1.2l16.2-12.4c-0.8-2.3-1.8-4-3.1-5.1c-1.3-1.1-2.8-1.7-4.5-1.7c-1.2,0-2.4,0.3-3.4,1c-1.1,0.7-2,1.7-2.8,3.1
				c-0.8,1.4-1.4,3.1-1.9,5.2C339.6,332.1,339.3,334.6,339.3,337.4z M356.8,337.6c0-0.4,0-0.8,0-1.2c0-0.4,0-0.8,0-1.2l-16.1,12.3
				c0.7,2.3,1.7,3.9,3,5c1.3,1.1,2.8,1.6,4.5,1.6c1.2,0,2.4-0.3,3.5-1c1.1-0.7,2-1.7,2.8-3.1c0.8-1.4,1.4-3.1,1.8-5.2
				C356.6,342.8,356.8,340.4,356.8,337.6z"/>
			<path class="st2" d="M377.6,360.4v-7.6h11v-29.4l-9.6,5.6l-2.6-7l13.7-7.7h6.8v38.5h9.5v7.6H377.6z"/>
			<path class="st2" d="M420.7,360.4v-7.6h11v-29.4l-9.6,5.6l-2.6-7l13.7-7.7h6.8v38.5h9.5v7.6H420.7z"/>
			<path class="st2" d="M463.9,360.4v-7.6h11v-29.4l-9.6,5.6l-2.6-7l13.7-7.7h6.8v38.5h9.5v7.6H463.9z"/>
			<path class="st2" d="M507,360.4v-7.6h11v-29.4l-9.6,5.6l-2.6-7l13.7-7.7h6.8v38.5h9.5v7.6H507z"/>
			<path class="st2" d="M550.1,360.4v-7.6h11v-29.4l-9.6,5.6l-2.6-7l13.7-7.7h6.8v38.5h9.5v7.6H550.1z"/>
			<path class="st2" d="M623.7,337.3c0,3.8-0.4,7.1-1.2,10.1c-0.8,3-1.9,5.5-3.4,7.5c-1.5,2-3.3,3.6-5.4,4.7
				c-2.1,1.1-4.6,1.6-7.3,1.6c-2.4,0-4.6-0.4-6.6-1.3c-2-0.9-3.7-2.3-5.2-4.2c-1.5-1.9-2.6-4.3-3.4-7.3c-0.8-3-1.2-6.5-1.2-10.7
				c0-3.8,0.4-7.1,1.2-10.1c0.8-3,1.9-5.5,3.4-7.5c1.5-2,3.3-3.6,5.5-4.7c2.2-1.1,4.6-1.6,7.3-1.6c2.4,0,4.6,0.4,6.6,1.3
				c2,0.9,3.7,2.3,5.2,4.2c1.4,1.9,2.6,4.3,3.4,7.3C623.3,329.6,623.7,333.1,623.7,337.3z M598.1,337.4c0,0.5,0,0.9,0,1.3
				s0,0.8,0.1,1.2l16.2-12.4c-0.8-2.3-1.8-4-3.1-5.1c-1.3-1.1-2.8-1.7-4.5-1.7c-1.2,0-2.4,0.3-3.4,1c-1.1,0.7-2,1.7-2.8,3.1
				c-0.8,1.4-1.4,3.1-1.9,5.2C598.3,332.1,598.1,334.6,598.1,337.4z M615.6,337.6c0-0.4,0-0.8,0-1.2c0-0.4,0-0.8,0-1.2l-16.1,12.3
				c0.7,2.3,1.7,3.9,3,5c1.3,1.1,2.8,1.6,4.5,1.6c1.2,0,2.4-0.3,3.5-1c1.1-0.7,2-1.7,2.8-3.1c0.8-1.4,1.4-3.1,1.8-5.2
				C615.3,342.8,615.6,340.4,615.6,337.6z"/>
			<path class="st2" d="M636.4,360.4v-7.6h11v-29.4l-9.6,5.6l-2.6-7l13.7-7.7h6.8v38.5h9.5v7.6H636.4z"/>
			<path class="st2" d="M679.5,360.4v-7.6h11v-29.4l-9.6,5.6l-2.6-7l13.7-7.7h6.8v38.5h9.5v7.6H679.5z"/>
			<path class="st2" d="M722.6,360.4v-7.6h11v-29.4l-9.6,5.6l-2.6-7l13.7-7.7h6.8v38.5h9.5v7.6H722.6z"/>
			<path class="st2" d="M765.8,360.4v-7.6h11v-29.4l-9.6,5.6l-2.6-7l13.7-7.7h6.8v38.5h9.5v7.6H765.8z"/>
			<path class="st2" d="M808.9,360.4v-7.6h11v-29.4l-9.6,5.6l-2.6-7l13.7-7.7h6.8v38.5h9.5v7.6H808.9z"/>
			<path class="st2" d="M852,360.4v-7.6h11v-29.4l-9.6,5.6l-2.6-7l13.7-7.7h6.8v38.5h9.5v7.6H852z"/>
			<path class="st2" d="M895.1,360.4v-7.6h11v-29.4l-9.6,5.6l-2.6-7l13.7-7.7h6.8v38.5h9.5v7.6H895.1z"/>
			<path class="st2" d="M938.3,360.4v-7.6h11v-29.4l-9.6,5.6l-2.6-7l13.7-7.7h6.8v38.5h9.5v7.6H938.3z"/>
			<path class="st2" d="M-68.4,424.2v-7.6h11v-29.4l-9.6,5.6l-2.6-7l13.7-7.7h6.8v38.5h9.5v7.6H-68.4z"/>
			<path class="st2" d="M-25.3,424.2v-7.6h11v-29.4l-9.6,5.6l-2.6-7l13.7-7.7H-6v38.5h9.5v7.6H-25.3z"/>
			<path class="st2" d="M17.8,424.2v-7.6h11v-29.4l-9.6,5.6l-2.6-7l13.7-7.7h6.8v38.5h9.5v7.6H17.8z"/>
			<path class="st2" d="M61,424.2v-7.6h11v-29.4l-9.6,5.6l-2.6-7l13.7-7.7h6.8v38.5h9.5v7.6H61z"/>
			<path class="st2" d="M104.1,424.2v-7.6h11v-29.4l-9.6,5.6l-2.6-7l13.7-7.7h6.8v38.5h9.5v7.6H104.1z"/>
			<path class="st2" d="M147.2,424.2v-7.6h11v-29.4l-9.6,5.6l-2.6-7l13.7-7.7h6.8v38.5h9.5v7.6H147.2z"/>
			<path class="st2" d="M190.4,424.2v-7.6h11v-29.4l-9.6,5.6l-2.6-7l13.7-7.7h6.8v38.5h9.5v7.6H190.4z"/>
			<path class="st2" d="M233.5,424.2v-7.6h11v-29.4l-9.6,5.6l-2.6-7l13.7-7.7h6.8v38.5h9.5v7.6H233.5z"/>
			<path class="st2" d="M276.6,424.2v-7.6h11v-29.4l-9.6,5.6l-2.6-7l13.7-7.7h6.8v38.5h9.5v7.6H276.6z"/>
			<path class="st2" d="M319.7,424.2v-7.6h11v-29.4l-9.6,5.6l-2.6-7l13.7-7.7h6.8v38.5h9.5v7.6H319.7z"/>
			<path class="st2" d="M362.9,424.2v-7.6h11v-29.4l-9.6,5.6l-2.6-7l13.7-7.7h6.8v38.5h9.5v7.6H362.9z"/>
			<path class="st2" d="M406,424.2v-7.6h11v-29.4l-9.6,5.6l-2.6-7l13.7-7.7h6.8v38.5h9.5v7.6H406z"/>
			<path class="st2" d="M449.1,424.2v-7.6h11v-29.4l-9.6,5.6l-2.6-7l13.7-7.7h6.8v38.5h9.5v7.6H449.1z"/>
			<path class="st2" d="M492.2,424.2v-7.6h11v-29.4l-9.6,5.6l-2.6-7l13.7-7.7h6.8v38.5h9.5v7.6H492.2z"/>
			<path class="st2" d="M535.4,424.2v-7.6h11v-29.4l-9.6,5.6l-2.6-7l13.7-7.7h6.8v38.5h9.5v7.6H535.4z"/>
			<path class="st2" d="M578.5,424.2v-7.6h11v-29.4l-9.6,5.6l-2.6-7l13.7-7.7h6.8v38.5h9.5v7.6H578.5z"/>
			<path class="st2" d="M621.6,424.2v-7.6h11v-29.4l-9.6,5.6l-2.6-7l13.7-7.7h6.8v38.5h9.5v7.6H621.6z"/>
			<path class="st2" d="M664.8,424.2v-7.6h11v-29.4l-9.6,5.6l-2.6-7l13.7-7.7h6.8v38.5h9.5v7.6H664.8z"/>
			<path class="st2" d="M707.9,424.2v-7.6h11v-29.4l-9.6,5.6l-2.6-7l13.7-7.7h6.8v38.5h9.5v7.6H707.9z"/>
			<path class="st2" d="M751,424.2v-7.6h11v-29.4l-9.6,5.6l-2.6-7l13.7-7.7h6.8v38.5h9.5v7.6H751z"/>
			<path class="st2" d="M824.6,401.1c0,3.8-0.4,7.1-1.2,10.1c-0.8,3-1.9,5.5-3.4,7.5c-1.5,2-3.3,3.6-5.4,4.7
				c-2.1,1.1-4.6,1.6-7.3,1.6c-2.4,0-4.6-0.4-6.6-1.3c-2-0.9-3.7-2.3-5.2-4.2c-1.5-1.9-2.6-4.3-3.4-7.3c-0.8-3-1.2-6.5-1.2-10.7
				c0-3.8,0.4-7.1,1.2-10.1c0.8-3,1.9-5.5,3.4-7.5c1.5-2,3.3-3.6,5.5-4.7c2.2-1.1,4.6-1.6,7.3-1.6c2.4,0,4.6,0.4,6.6,1.3
				c2,0.9,3.7,2.3,5.2,4.2c1.4,1.9,2.6,4.3,3.4,7.3C824.2,393.4,824.6,396.9,824.6,401.1z M799,401.2c0,0.5,0,0.9,0,1.3
				c0,0.4,0,0.8,0.1,1.2l16.2-12.4c-0.8-2.3-1.8-4-3.1-5.1c-1.3-1.1-2.8-1.7-4.5-1.7c-1.2,0-2.4,0.3-3.4,1c-1.1,0.7-2,1.7-2.8,3.1
				c-0.8,1.4-1.4,3.1-1.9,5.2C799.2,395.9,799,398.4,799,401.2z M816.5,401.4c0-0.4,0-0.8,0-1.2c0-0.4,0-0.8,0-1.2l-16.1,12.3
				c0.7,2.3,1.7,3.9,3,5c1.3,1.1,2.8,1.6,4.5,1.6c1.2,0,2.4-0.3,3.5-1c1.1-0.7,2-1.7,2.8-3.1c0.8-1.4,1.4-3.1,1.8-5.2
				C816.2,406.6,816.5,404.2,816.5,401.4z"/>
			<path class="st2" d="M837.3,424.2v-7.6h11v-29.4l-9.6,5.6l-2.6-7l13.7-7.7h6.8v38.5h9.5v7.6H837.3z"/>
			<path class="st2" d="M880.4,424.2v-7.6h11v-29.4l-9.6,5.6l-2.6-7l13.7-7.7h6.8v38.5h9.5v7.6H880.4z"/>
			<path class="st2" d="M923.5,424.2v-7.6h11v-29.4l-9.6,5.6l-2.6-7l13.7-7.7h6.8v38.5h9.5v7.6H923.5z"/>
			<path class="st2" d="M-75.4,488v-7.6h11v-29.4l-9.6,5.6l-2.6-7l13.7-7.7h6.8v38.5h9.5v7.6H-75.4z"/>
			<path class="st2" d="M-32.2,488v-7.6h11v-29.4l-9.6,5.6l-2.6-7l13.7-7.7h6.8v38.5h9.5v7.6H-32.2z"/>
			<path class="st2" d="M10.9,488v-7.6h11v-29.4l-9.6,5.6l-2.6-7l13.7-7.7h6.8v38.5h9.5v7.6H10.9z"/>
			<path class="st2" d="M54,488v-7.6h11v-29.4l-9.6,5.6l-2.6-7l13.7-7.7h6.8v38.5h9.5v7.6H54z"/>
			<path class="st2" d="M97.1,488v-7.6h11v-29.4l-9.6,5.6l-2.6-7l13.7-7.7h6.8v38.5h9.5v7.6H97.1z"/>
			<path class="st2" d="M170.7,464.9c0,3.8-0.4,7.1-1.2,10.1c-0.8,3-1.9,5.5-3.4,7.5c-1.5,2-3.3,3.6-5.4,4.7
				c-2.1,1.1-4.6,1.6-7.3,1.6c-2.4,0-4.6-0.4-6.6-1.3c-2-0.9-3.7-2.3-5.2-4.2c-1.5-1.9-2.6-4.3-3.4-7.3c-0.8-3-1.2-6.5-1.2-10.7
				c0-3.8,0.4-7.1,1.2-10.1c0.8-3,1.9-5.5,3.4-7.5c1.5-2,3.3-3.6,5.5-4.7c2.2-1.1,4.6-1.6,7.3-1.6c2.4,0,4.6,0.4,6.6,1.3
				c2,0.9,3.7,2.3,5.2,4.2c1.4,1.9,2.6,4.3,3.4,7.3C170.3,457.1,170.7,460.7,170.7,464.9z M145.1,465c0,0.5,0,0.9,0,1.3
				c0,0.4,0,0.8,0.1,1.2l16.2-12.4c-0.8-2.3-1.8-4-3.1-5.1c-1.3-1.1-2.8-1.7-4.5-1.7c-1.2,0-2.4,0.3-3.4,1c-1.1,0.7-2,1.7-2.8,3.1
				c-0.8,1.4-1.4,3.1-1.9,5.2C145.4,459.7,145.1,462.2,145.1,465z M162.6,465.2c0-0.4,0-0.8,0-1.2c0-0.4,0-0.8,0-1.2l-16.1,12.3
				c0.7,2.3,1.7,3.9,3,5c1.3,1.1,2.8,1.6,4.5,1.6c1.2,0,2.4-0.3,3.5-1c1.1-0.7,2-1.7,2.8-3.1s1.4-3.1,1.8-5.2
				C162.4,470.4,162.6,468,162.6,465.2z"/>
			<path class="st2" d="M183.4,488v-7.6h11v-29.4l-9.6,5.6l-2.6-7l13.7-7.7h6.8v38.5h9.5v7.6H183.4z"/>
			<path class="st2" d="M226.5,488v-7.6h11v-29.4l-9.6,5.6l-2.6-7l13.7-7.7h6.8v38.5h9.5v7.6H226.5z"/>
			<path class="st2" d="M269.7,488v-7.6h11v-29.4l-9.6,5.6l-2.6-7l13.7-7.7h6.8v38.5h9.5v7.6H269.7z"/>
			<path class="st2" d="M312.8,488v-7.6h11v-29.4l-9.6,5.6l-2.6-7l13.7-7.7h6.8v38.5h9.5v7.6H312.8z"/>
			<path class="st2" d="M355.9,488v-7.6h11v-29.4l-9.6,5.6l-2.6-7l13.7-7.7h6.8v38.5h9.5v7.6H355.9z"/>
			<path class="st2" d="M399,488v-7.6h11v-29.4l-9.6,5.6l-2.6-7l13.7-7.7h6.8v38.5h9.5v7.6H399z"/>
			<path class="st2" d="M472.6,464.9c0,3.8-0.4,7.1-1.2,10.1c-0.8,3-1.9,5.5-3.4,7.5c-1.5,2-3.3,3.6-5.4,4.7
				c-2.1,1.1-4.6,1.6-7.3,1.6c-2.4,0-4.6-0.4-6.6-1.3c-2-0.9-3.7-2.3-5.2-4.2c-1.5-1.9-2.6-4.3-3.4-7.3c-0.8-3-1.2-6.5-1.2-10.7
				c0-3.8,0.4-7.1,1.2-10.1c0.8-3,1.9-5.5,3.4-7.5c1.5-2,3.3-3.6,5.5-4.7c2.2-1.1,4.6-1.6,7.3-1.6c2.4,0,4.6,0.4,6.6,1.3
				c2,0.9,3.7,2.3,5.2,4.2c1.4,1.9,2.6,4.3,3.4,7.3C472.2,457.1,472.6,460.7,472.6,464.9z M447,465c0,0.5,0,0.9,0,1.3
				c0,0.4,0,0.8,0.1,1.2l16.2-12.4c-0.8-2.3-1.8-4-3.1-5.1c-1.3-1.1-2.8-1.7-4.5-1.7c-1.2,0-2.4,0.3-3.4,1c-1.1,0.7-2,1.7-2.8,3.1
				c-0.8,1.4-1.4,3.1-1.9,5.2C447.3,459.7,447,462.2,447,465z M464.5,465.2c0-0.4,0-0.8,0-1.2c0-0.4,0-0.8,0-1.2l-16.1,12.3
				c0.7,2.3,1.7,3.9,3,5c1.3,1.1,2.8,1.6,4.5,1.6c1.2,0,2.4-0.3,3.5-1c1.1-0.7,2-1.7,2.8-3.1s1.4-3.1,1.8-5.2
				C464.3,470.4,464.5,468,464.5,465.2z"/>
			<path class="st2" d="M485.3,488v-7.6h11v-29.4l-9.6,5.6l-2.6-7l13.7-7.7h6.8v38.5h9.5v7.6H485.3z"/>
			<path class="st2" d="M528.4,488v-7.6h11v-29.4l-9.6,5.6l-2.6-7l13.7-7.7h6.8v38.5h9.5v7.6H528.4z"/>
			<path class="st2" d="M571.5,488v-7.6h11v-29.4l-9.6,5.6l-2.6-7l13.7-7.7h6.8v38.5h9.5v7.6H571.5z"/>
			<path class="st2" d="M614.7,488v-7.6h11v-29.4l-9.6,5.6l-2.6-7l13.7-7.7h6.8v38.5h9.5v7.6H614.7z"/>
			<path class="st2" d="M657.8,488v-7.6h11v-29.4l-9.6,5.6l-2.6-7l13.7-7.7h6.8v38.5h9.5v7.6H657.8z"/>
			<path class="st2" d="M700.9,488v-7.6h11v-29.4l-9.6,5.6l-2.6-7l13.7-7.7h6.8v38.5h9.5v7.6H700.9z"/>
			<path class="st2" d="M744.1,488v-7.6h11v-29.4l-9.6,5.6l-2.6-7l13.7-7.7h6.8v38.5h9.5v7.6H744.1z"/>
			<path class="st2" d="M787.2,488v-7.6h11v-29.4l-9.6,5.6l-2.6-7l13.7-7.7h6.8v38.5h9.5v7.6H787.2z"/>
			<path class="st2" d="M830.3,488v-7.6h11v-29.4l-9.6,5.6l-2.6-7l13.7-7.7h6.8v38.5h9.5v7.6H830.3z"/>
			<path class="st2" d="M903.9,464.9c0,3.8-0.4,7.1-1.2,10.1c-0.8,3-1.9,5.5-3.4,7.5c-1.5,2-3.3,3.6-5.4,4.7
				c-2.1,1.1-4.6,1.6-7.3,1.6c-2.4,0-4.6-0.4-6.6-1.3c-2-0.9-3.7-2.3-5.2-4.2c-1.5-1.9-2.6-4.3-3.4-7.3c-0.8-3-1.2-6.5-1.2-10.7
				c0-3.8,0.4-7.1,1.2-10.1c0.8-3,1.9-5.5,3.4-7.5c1.5-2,3.3-3.6,5.5-4.7c2.2-1.1,4.6-1.6,7.3-1.6c2.4,0,4.6,0.4,6.6,1.3
				c2,0.9,3.7,2.3,5.2,4.2c1.4,1.9,2.6,4.3,3.4,7.3C903.5,457.1,903.9,460.7,903.9,464.9z M878.3,465c0,0.5,0,0.9,0,1.3
				c0,0.4,0,0.8,0.1,1.2l16.2-12.4c-0.8-2.3-1.8-4-3.1-5.1c-1.3-1.1-2.8-1.7-4.5-1.7c-1.2,0-2.4,0.3-3.4,1c-1.1,0.7-2,1.7-2.8,3.1
				c-0.8,1.4-1.4,3.1-1.9,5.2C878.5,459.7,878.3,462.2,878.3,465z M895.8,465.2c0-0.4,0-0.8,0-1.2c0-0.4,0-0.8,0-1.2l-16.1,12.3
				c0.7,2.3,1.7,3.9,3,5c1.3,1.1,2.8,1.6,4.5,1.6c1.2,0,2.4-0.3,3.5-1c1.1-0.7,2-1.7,2.8-3.1c0.8-1.4,1.4-3.1,1.8-5.2
				C895.5,470.4,895.8,468,895.8,465.2z"/>
			<path class="st2" d="M916.6,488v-7.6h11v-29.4l-9.6,5.6l-2.6-7l13.7-7.7h6.8v38.5h9.5v7.6H916.6z"/>
			<path class="st2" d="M959.7,488v-7.6h11v-29.4l-9.6,5.6l-2.6-7l13.7-7.7h6.8v38.5h9.5v7.6H959.7z"/>
			<path class="st2" d="M-70.3,551.8v-7.6h11v-29.4l-9.6,5.6l-2.6-7l13.7-7.7h6.8v38.5h9.5v7.6H-70.3z"/>
			<path class="st2" d="M-27.2,551.8v-7.6h11v-29.4l-9.6,5.6l-2.6-7l13.7-7.7h6.8v38.5h9.5v7.6H-27.2z"/>
			<path class="st2" d="M16,551.8v-7.6h11v-29.4l-9.6,5.6l-2.6-7l13.7-7.7h6.8v38.5h9.5v7.6H16z"/>
			<path class="st2" d="M59.1,551.8v-7.6h11v-29.4l-9.6,5.6l-2.6-7l13.7-7.7h6.8v38.5h9.5v7.6H59.1z"/>
			<path class="st2" d="M102.2,551.8v-7.6h11v-29.4l-9.6,5.6l-2.6-7l13.7-7.7h6.8v38.5h9.5v7.6H102.2z"/>
			<path class="st2" d="M145.4,551.8v-7.6h11v-29.4l-9.6,5.6l-2.6-7l13.7-7.7h6.8v38.5h9.5v7.6H145.4z"/>
			<path class="st2" d="M218.9,528.7c0,3.8-0.4,7.1-1.2,10.1c-0.8,3-1.9,5.5-3.4,7.5c-1.5,2-3.3,3.6-5.4,4.7
				c-2.1,1.1-4.6,1.6-7.3,1.6c-2.4,0-4.6-0.4-6.6-1.3c-2-0.9-3.7-2.3-5.2-4.2c-1.5-1.9-2.6-4.3-3.4-7.3c-0.8-3-1.2-6.5-1.2-10.7
				c0-3.8,0.4-7.1,1.2-10.1c0.8-3,1.9-5.5,3.4-7.5c1.5-2,3.3-3.6,5.5-4.7c2.2-1.1,4.6-1.6,7.3-1.6c2.4,0,4.6,0.4,6.6,1.3
				c2,0.9,3.7,2.3,5.2,4.2c1.4,1.9,2.6,4.3,3.4,7.3C218.5,520.9,218.9,524.5,218.9,528.7z M193.3,528.8c0,0.5,0,0.9,0,1.3
				c0,0.4,0,0.8,0.1,1.2l16.2-12.4c-0.8-2.3-1.8-4-3.1-5.1c-1.3-1.1-2.8-1.7-4.5-1.7c-1.2,0-2.4,0.3-3.4,1c-1.1,0.7-2,1.7-2.8,3.1
				c-0.8,1.4-1.4,3.1-1.9,5.2C193.6,523.5,193.3,526,193.3,528.8z M210.8,528.9c0-0.4,0-0.8,0-1.2c0-0.4,0-0.8,0-1.2l-16.1,12.3
				c0.7,2.3,1.7,3.9,3,5c1.3,1.1,2.8,1.6,4.5,1.6c1.2,0,2.4-0.3,3.5-1c1.1-0.7,2-1.7,2.8-3.1c0.8-1.4,1.4-3.1,1.8-5.2
				C210.6,534.2,210.8,531.8,210.8,528.9z"/>
			<path class="st2" d="M231.6,551.8v-7.6h11v-29.4l-9.6,5.6l-2.6-7l13.7-7.7h6.8v38.5h9.5v7.6H231.6z"/>
			<path class="st2" d="M274.7,551.8v-7.6h11v-29.4l-9.6,5.6l-2.6-7l13.7-7.7h6.8v38.5h9.5v7.6H274.7z"/>
			<path class="st2" d="M317.9,551.8v-7.6h11v-29.4l-9.6,5.6l-2.6-7l13.7-7.7h6.8v38.5h9.5v7.6H317.9z"/>
			<path class="st2" d="M361,551.8v-7.6h11v-29.4l-9.6,5.6l-2.6-7l13.7-7.7h6.8v38.5h9.5v7.6H361z"/>
			<path class="st2" d="M404.1,551.8v-7.6h11v-29.4l-9.6,5.6l-2.6-7l13.7-7.7h6.8v38.5h9.5v7.6H404.1z"/>
			<path class="st2" d="M477.7,528.7c0,3.8-0.4,7.1-1.2,10.1c-0.8,3-1.9,5.5-3.4,7.5c-1.5,2-3.3,3.6-5.4,4.7
				c-2.1,1.1-4.6,1.6-7.3,1.6c-2.4,0-4.6-0.4-6.6-1.3c-2-0.9-3.7-2.3-5.2-4.2c-1.5-1.9-2.6-4.3-3.4-7.3c-0.8-3-1.2-6.5-1.2-10.7
				c0-3.8,0.4-7.1,1.2-10.1c0.8-3,1.9-5.5,3.4-7.5c1.5-2,3.3-3.6,5.5-4.7c2.2-1.1,4.6-1.6,7.3-1.6c2.4,0,4.6,0.4,6.6,1.3
				c2,0.9,3.7,2.3,5.2,4.2c1.4,1.9,2.6,4.3,3.4,7.3C477.3,520.9,477.7,524.5,477.7,528.7z M452.1,528.8c0,0.5,0,0.9,0,1.3
				c0,0.4,0,0.8,0.1,1.2l16.2-12.4c-0.8-2.3-1.8-4-3.1-5.1c-1.3-1.1-2.8-1.7-4.5-1.7c-1.2,0-2.4,0.3-3.4,1c-1.1,0.7-2,1.7-2.8,3.1
				c-0.8,1.4-1.4,3.1-1.9,5.2C452.3,523.5,452.1,526,452.1,528.8z M469.6,528.9c0-0.4,0-0.8,0-1.2c0-0.4,0-0.8,0-1.2l-16.1,12.3
				c0.7,2.3,1.7,3.9,3,5c1.3,1.1,2.8,1.6,4.5,1.6c1.2,0,2.4-0.3,3.5-1c1.1-0.7,2-1.7,2.8-3.1c0.8-1.4,1.4-3.1,1.8-5.2
				C469.4,534.2,469.6,531.8,469.6,528.9z"/>
			<path class="st2" d="M520.8,528.7c0,3.8-0.4,7.1-1.2,10.1c-0.8,3-1.9,5.5-3.4,7.5c-1.5,2-3.3,3.6-5.4,4.7
				c-2.1,1.1-4.6,1.6-7.3,1.6c-2.4,0-4.6-0.4-6.6-1.3c-2-0.9-3.7-2.3-5.2-4.2c-1.5-1.9-2.6-4.3-3.4-7.3c-0.8-3-1.2-6.5-1.2-10.7
				c0-3.8,0.4-7.1,1.2-10.1c0.8-3,1.9-5.5,3.4-7.5c1.5-2,3.3-3.6,5.5-4.7c2.2-1.1,4.6-1.6,7.3-1.6c2.4,0,4.6,0.4,6.6,1.3
				c2,0.9,3.7,2.3,5.2,4.2c1.4,1.9,2.6,4.3,3.4,7.3C520.4,520.9,520.8,524.5,520.8,528.7z M495.2,528.8c0,0.5,0,0.9,0,1.3
				c0,0.4,0,0.8,0.1,1.2l16.2-12.4c-0.8-2.3-1.8-4-3.1-5.1c-1.3-1.1-2.8-1.7-4.5-1.7c-1.2,0-2.4,0.3-3.4,1c-1.1,0.7-2,1.7-2.8,3.1
				c-0.8,1.4-1.4,3.1-1.9,5.2C495.5,523.5,495.2,526,495.2,528.8z M512.7,528.9c0-0.4,0-0.8,0-1.2c0-0.4,0-0.8,0-1.2l-16.1,12.3
				c0.7,2.3,1.7,3.9,3,5c1.3,1.1,2.8,1.6,4.5,1.6c1.2,0,2.4-0.3,3.5-1c1.1-0.7,2-1.7,2.8-3.1c0.8-1.4,1.4-3.1,1.8-5.2
				C512.5,534.2,512.7,531.8,512.7,528.9z"/>
			<path class="st2" d="M533.5,551.8v-7.6h11v-29.4l-9.6,5.6l-2.6-7l13.7-7.7h6.8v38.5h9.5v7.6H533.5z"/>
			<path class="st2" d="M576.6,551.8v-7.6h11v-29.4l-9.6,5.6l-2.6-7l13.7-7.7h6.8v38.5h9.5v7.6H576.6z"/>
			<path class="st2" d="M619.8,551.8v-7.6h11v-29.4l-9.6,5.6l-2.6-7l13.7-7.7h6.8v38.5h9.5v7.6H619.8z"/>
			<path class="st2" d="M693.4,528.7c0,3.8-0.4,7.1-1.2,10.1c-0.8,3-1.9,5.5-3.4,7.5c-1.5,2-3.3,3.6-5.4,4.7
				c-2.1,1.1-4.6,1.6-7.3,1.6c-2.4,0-4.6-0.4-6.6-1.3c-2-0.9-3.7-2.3-5.2-4.2c-1.5-1.9-2.6-4.3-3.4-7.3c-0.8-3-1.2-6.5-1.2-10.7
				c0-3.8,0.4-7.1,1.2-10.1c0.8-3,1.9-5.5,3.4-7.5c1.5-2,3.3-3.6,5.5-4.7c2.2-1.1,4.6-1.6,7.3-1.6c2.4,0,4.6,0.4,6.6,1.3
				c2,0.9,3.7,2.3,5.2,4.2c1.4,1.9,2.6,4.3,3.4,7.3C692.9,520.9,693.4,524.5,693.4,528.7z M667.8,528.8c0,0.5,0,0.9,0,1.3
				c0,0.4,0,0.8,0.1,1.2L684,519c-0.8-2.3-1.8-4-3.1-5.1c-1.3-1.1-2.8-1.7-4.5-1.7c-1.2,0-2.4,0.3-3.4,1c-1.1,0.7-2,1.7-2.8,3.1
				c-0.8,1.4-1.4,3.1-1.9,5.2C668,523.5,667.8,526,667.8,528.8z M685.2,528.9c0-0.4,0-0.8,0-1.2c0-0.4,0-0.8,0-1.2L669,538.9
				c0.7,2.3,1.7,3.9,3,5c1.3,1.1,2.8,1.6,4.5,1.6c1.2,0,2.4-0.3,3.5-1c1.1-0.7,2-1.7,2.8-3.1c0.8-1.4,1.4-3.1,1.8-5.2
				C685,534.2,685.2,531.8,685.2,528.9z"/>
			<path class="st2" d="M706,551.8v-7.6h11v-29.4l-9.6,5.6l-2.6-7l13.7-7.7h6.8v38.5h9.5v7.6H706z"/>
			<path class="st2" d="M749.2,551.8v-7.6h11v-29.4l-9.6,5.6l-2.6-7l13.7-7.7h6.8v38.5h9.5v7.6H749.2z"/>
			<path class="st2" d="M792.3,551.8v-7.6h11v-29.4l-9.6,5.6l-2.6-7l13.7-7.7h6.8v38.5h9.5v7.6H792.3z"/>
			<path class="st2" d="M835.4,551.8v-7.6h11v-29.4l-9.6,5.6l-2.6-7l13.7-7.7h6.8v38.5h9.5v7.6H835.4z"/>
			<path class="st2" d="M878.5,551.8v-7.6h11v-29.4l-9.6,5.6l-2.6-7l13.7-7.7h6.8v38.5h9.5v7.6H878.5z"/>
			<path class="st2" d="M921.7,551.8v-7.6h11v-29.4l-9.6,5.6l-2.6-7l13.7-7.7h6.8v38.5h9.5v7.6H921.7z"/>
			<path class="st2" d="M-57,615.6V608h11v-29.4l-9.6,5.6l-2.6-7l13.7-7.7h6.8V608h9.5v7.6H-57z"/>
			<path class="st2" d="M-13.9,615.6V608h11v-29.4l-9.6,5.6l-2.6-7l13.7-7.7h6.8V608h9.5v7.6H-13.9z"/>
			<path class="st2" d="M59.7,592.5c0,3.8-0.4,7.1-1.2,10.1c-0.8,3-1.9,5.5-3.4,7.5c-1.5,2-3.3,3.6-5.4,4.7
				c-2.1,1.1-4.6,1.6-7.3,1.6c-2.4,0-4.6-0.4-6.6-1.3c-2-0.9-3.7-2.3-5.2-4.2c-1.5-1.9-2.6-4.3-3.4-7.3s-1.2-6.5-1.2-10.7
				c0-3.8,0.4-7.1,1.2-10.1c0.8-3,1.9-5.5,3.4-7.5c1.5-2,3.3-3.6,5.5-4.7c2.2-1.1,4.6-1.6,7.3-1.6c2.4,0,4.6,0.4,6.6,1.3
				c2,0.9,3.7,2.3,5.2,4.2c1.4,1.9,2.6,4.3,3.4,7.3S59.7,588.3,59.7,592.5z M34.1,592.6c0,0.5,0,0.9,0,1.3c0,0.4,0,0.8,0.1,1.2
				l16.2-12.4c-0.8-2.3-1.8-4-3.1-5.1c-1.3-1.1-2.8-1.7-4.5-1.7c-1.2,0-2.4,0.3-3.4,1c-1.1,0.7-2,1.7-2.8,3.1
				c-0.8,1.4-1.4,3.1-1.9,5.2C34.3,587.3,34.1,589.8,34.1,592.6z M51.5,592.7c0-0.4,0-0.8,0-1.2c0-0.4,0-0.8,0-1.2l-16.1,12.3
				c0.7,2.3,1.7,3.9,3,5c1.3,1.1,2.8,1.6,4.5,1.6c1.2,0,2.4-0.3,3.5-1c1.1-0.7,2-1.7,2.8-3.1c0.8-1.4,1.4-3.1,1.8-5.2
				C51.3,598,51.5,595.6,51.5,592.7z"/>
			<path class="st2" d="M72.4,615.6V608h11v-29.4l-9.6,5.6l-2.6-7l13.7-7.7h6.8V608h9.5v7.6H72.4z"/>
			<path class="st2" d="M115.5,615.6V608h11v-29.4l-9.6,5.6l-2.6-7l13.7-7.7h6.8V608h9.5v7.6H115.5z"/>
			<path class="st2" d="M158.6,615.6V608h11v-29.4l-9.6,5.6l-2.6-7l13.7-7.7h6.8V608h9.5v7.6H158.6z"/>
			<path class="st2" d="M232.2,592.5c0,3.8-0.4,7.1-1.2,10.1c-0.8,3-1.9,5.5-3.4,7.5c-1.5,2-3.3,3.6-5.4,4.7
				c-2.1,1.1-4.6,1.6-7.3,1.6c-2.4,0-4.6-0.4-6.6-1.3c-2-0.9-3.7-2.3-5.2-4.2c-1.5-1.9-2.6-4.3-3.4-7.3c-0.8-3-1.2-6.5-1.2-10.7
				c0-3.8,0.4-7.1,1.2-10.1c0.8-3,1.9-5.5,3.4-7.5c1.5-2,3.3-3.6,5.5-4.7c2.2-1.1,4.6-1.6,7.3-1.6c2.4,0,4.6,0.4,6.6,1.3
				c2,0.9,3.7,2.3,5.2,4.2c1.4,1.9,2.6,4.3,3.4,7.3C231.8,584.7,232.2,588.3,232.2,592.5z M206.6,592.6c0,0.5,0,0.9,0,1.3
				c0,0.4,0,0.8,0.1,1.2l16.2-12.4c-0.8-2.3-1.8-4-3.1-5.1c-1.3-1.1-2.8-1.7-4.5-1.7c-1.2,0-2.4,0.3-3.4,1c-1.1,0.7-2,1.7-2.8,3.1
				c-0.8,1.4-1.4,3.1-1.9,5.2C206.8,587.3,206.6,589.8,206.6,592.6z M224.1,592.7c0-0.4,0-0.8,0-1.2c0-0.4,0-0.8,0-1.2l-16.1,12.3
				c0.7,2.3,1.7,3.9,3,5c1.3,1.1,2.8,1.6,4.5,1.6c1.2,0,2.4-0.3,3.5-1c1.1-0.7,2-1.7,2.8-3.1c0.8-1.4,1.4-3.1,1.8-5.2
				C223.8,598,224.1,595.6,224.1,592.7z"/>
			<path class="st2" d="M244.9,615.6V608h11v-29.4l-9.6,5.6l-2.6-7l13.7-7.7h6.8V608h9.5v7.6H244.9z"/>
			<path class="st2" d="M288,615.6V608h11v-29.4l-9.6,5.6l-2.6-7l13.7-7.7h6.8V608h9.5v7.6H288z"/>
			<path class="st2" d="M331.1,615.6V608h11v-29.4l-9.6,5.6l-2.6-7l13.7-7.7h6.8V608h9.5v7.6H331.1z"/>
			<path class="st2" d="M374.2,615.6V608h11v-29.4l-9.6,5.6l-2.6-7l13.7-7.7h6.8V608h9.5v7.6H374.2z"/>
			<path class="st2" d="M417.4,615.6V608h11v-29.4l-9.6,5.6l-2.6-7l13.7-7.7h6.8V608h9.5v7.6H417.4z"/>
			<path class="st2" d="M460.5,615.6V608h11v-29.4l-9.6,5.6l-2.6-7l13.7-7.7h6.8V608h9.5v7.6H460.5z"/>
			<path class="st2" d="M503.6,615.6V608h11v-29.4l-9.6,5.6l-2.6-7l13.7-7.7h6.8V608h9.5v7.6H503.6z"/>
			<path class="st2" d="M546.8,615.6V608h11v-29.4l-9.6,5.6l-2.6-7l13.7-7.7h6.8V608h9.5v7.6H546.8z"/>
			<path class="st2" d="M589.9,615.6V608h11v-29.4l-9.6,5.6l-2.6-7l13.7-7.7h6.8V608h9.5v7.6H589.9z"/>
			<path class="st2" d="M633,615.6V608h11v-29.4l-9.6,5.6l-2.6-7l13.7-7.7h6.8V608h9.5v7.6H633z"/>
			<path class="st2" d="M706.6,592.5c0,3.8-0.4,7.1-1.2,10.1c-0.8,3-1.9,5.5-3.4,7.5c-1.5,2-3.3,3.6-5.4,4.7
				c-2.1,1.1-4.6,1.6-7.3,1.6c-2.4,0-4.6-0.4-6.6-1.3c-2-0.9-3.7-2.3-5.2-4.2c-1.5-1.9-2.6-4.3-3.4-7.3s-1.2-6.5-1.2-10.7
				c0-3.8,0.4-7.1,1.2-10.1c0.8-3,1.9-5.5,3.4-7.5c1.5-2,3.3-3.6,5.5-4.7c2.2-1.1,4.6-1.6,7.3-1.6c2.4,0,4.6,0.4,6.6,1.3
				c2,0.9,3.7,2.3,5.2,4.2c1.4,1.9,2.6,4.3,3.4,7.3C706.2,584.7,706.6,588.3,706.6,592.5z M681,592.6c0,0.5,0,0.9,0,1.3
				c0,0.4,0,0.8,0.1,1.2l16.2-12.4c-0.8-2.3-1.8-4-3.1-5.1c-1.3-1.1-2.8-1.7-4.5-1.7c-1.2,0-2.4,0.3-3.4,1c-1.1,0.7-2,1.7-2.8,3.1
				c-0.8,1.4-1.4,3.1-1.9,5.2C681.2,587.3,681,589.8,681,592.6z M698.5,592.7c0-0.4,0-0.8,0-1.2c0-0.4,0-0.8,0-1.2l-16.1,12.3
				c0.7,2.3,1.7,3.9,3,5c1.3,1.1,2.8,1.6,4.5,1.6c1.2,0,2.4-0.3,3.5-1c1.1-0.7,2-1.7,2.8-3.1c0.8-1.4,1.4-3.1,1.8-5.2
				C698.2,598,698.5,595.6,698.5,592.7z"/>
			<path class="st2" d="M719.3,615.6V608h11v-29.4l-9.6,5.6l-2.6-7l13.7-7.7h6.8V608h9.5v7.6H719.3z"/>
			<path class="st2" d="M762.4,615.6V608h11v-29.4l-9.6,5.6l-2.6-7l13.7-7.7h6.8V608h9.5v7.6H762.4z"/>
			<path class="st2" d="M805.5,615.6V608h11v-29.4l-9.6,5.6l-2.6-7l13.7-7.7h6.8V608h9.5v7.6H805.5z"/>
			<path class="st2" d="M848.7,615.6V608h11v-29.4l-9.6,5.6l-2.6-7l13.7-7.7h6.8V608h9.5v7.6H848.7z"/>
			<path class="st2" d="M891.8,615.6V608h11v-29.4l-9.6,5.6l-2.6-7l13.7-7.7h6.8V608h9.5v7.6H891.8z"/>
			<path class="st2" d="M934.9,615.6V608h11v-29.4l-9.6,5.6l-2.6-7l13.7-7.7h6.8V608h9.5v7.6H934.9z"/>
			<path class="st2" d="M-35.4,679.4v-7.6h11v-29.4l-9.6,5.6l-2.6-7l13.7-7.7h6.8v38.5h9.5v7.6H-35.4z"/>
			<path class="st2" d="M7.7,679.4v-7.6h11v-29.4l-9.6,5.6l-2.6-7l13.7-7.7H27v38.5h9.5v7.6H7.7z"/>
			<path class="st2" d="M50.8,679.4v-7.6h11v-29.4l-9.6,5.6l-2.6-7l13.7-7.7h6.8v38.5h9.5v7.6H50.8z"/>
			<path class="st2" d="M94,679.4v-7.6h11v-29.4l-9.6,5.6l-2.6-7l13.7-7.7h6.8v38.5h9.5v7.6H94z"/>
			<path class="st2" d="M137.1,679.4v-7.6h11v-29.4l-9.6,5.6l-2.6-7l13.7-7.7h6.8v38.5h9.5v7.6H137.1z"/>
			<path class="st2" d="M180.2,679.4v-7.6h11v-29.4l-9.6,5.6l-2.6-7l13.7-7.7h6.8v38.5h9.5v7.6H180.2z"/>
			<path class="st2" d="M223.3,679.4v-7.6h11v-29.4l-9.6,5.6l-2.6-7l13.7-7.7h6.8v38.5h9.5v7.6H223.3z"/>
			<path class="st2" d="M266.5,679.4v-7.6h11v-29.4l-9.6,5.6l-2.6-7l13.7-7.7h6.8v38.5h9.5v7.6H266.5z"/>
			<path class="st2" d="M309.6,679.4v-7.6h11v-29.4l-9.6,5.6l-2.6-7l13.7-7.7h6.8v38.5h9.5v7.6H309.6z"/>
			<path class="st2" d="M352.7,679.4v-7.6h11v-29.4l-9.6,5.6l-2.6-7l13.7-7.7h6.8v38.5h9.5v7.6H352.7z"/>
			<path class="st2" d="M395.9,679.4v-7.6h11v-29.4l-9.6,5.6l-2.6-7l13.7-7.7h6.8v38.5h9.5v7.6H395.9z"/>
			<path class="st2" d="M439,679.4v-7.6h11v-29.4l-9.6,5.6l-2.6-7l13.7-7.7h6.8v38.5h9.5v7.6H439z"/>
			<path class="st2" d="M482.1,679.4v-7.6h11v-29.4l-9.6,5.6l-2.6-7l13.7-7.7h6.8v38.5h9.5v7.6H482.1z"/>
			<path class="st2" d="M525.2,679.4v-7.6h11v-29.4l-9.6,5.6l-2.6-7l13.7-7.7h6.8v38.5h9.5v7.6H525.2z"/>
			<path class="st2" d="M568.4,679.4v-7.6h11v-29.4l-9.6,5.6l-2.6-7l13.7-7.7h6.8v38.5h9.5v7.6H568.4z"/>
			<path class="st2" d="M611.5,679.4v-7.6h11v-29.4l-9.6,5.6l-2.6-7l13.7-7.7h6.8v38.5h9.5v7.6H611.5z"/>
			<path class="st2" d="M654.6,679.4v-7.6h11v-29.4l-9.6,5.6l-2.6-7l13.7-7.7h6.8v38.5h9.5v7.6H654.6z"/>
			<path class="st2" d="M697.7,679.4v-7.6h11v-29.4l-9.6,5.6l-2.6-7l13.7-7.7h6.8v38.5h9.5v7.6H697.7z"/>
			<path class="st2" d="M740.9,679.4v-7.6h11v-29.4l-9.6,5.6l-2.6-7l13.7-7.7h6.8v38.5h9.5v7.6H740.9z"/>
			<path class="st2" d="M784,679.4v-7.6h11v-29.4l-9.6,5.6l-2.6-7l13.7-7.7h6.8v38.5h9.5v7.6H784z"/>
			<path class="st2" d="M827.1,679.4v-7.6h11v-29.4l-9.6,5.6l-2.6-7l13.7-7.7h6.8v38.5h9.5v7.6H827.1z"/>
			<path class="st2" d="M870.3,679.4v-7.6h11v-29.4l-9.6,5.6l-2.6-7l13.7-7.7h6.8v38.5h9.5v7.6H870.3z"/>
			<path class="st2" d="M913.4,679.4v-7.6h11v-29.4l-9.6,5.6l-2.6-7l13.7-7.7h6.8v38.5h9.5v7.6H913.4z"/>
			<path class="st2" d="M-4.3,743.1v-7.6h11v-29.4l-9.6,5.6l-2.6-7l13.7-7.7H15v38.5h9.5v7.6H-4.3z"/>
			<path class="st2" d="M38.8,743.1v-7.6h11v-29.4l-9.6,5.6l-2.6-7l13.7-7.7h6.8v38.5h9.5v7.6H38.8z"/>
			<path class="st2" d="M112.4,720.1c0,3.8-0.4,7.1-1.2,10.1c-0.8,3-1.9,5.5-3.4,7.5c-1.5,2-3.3,3.6-5.4,4.7
				c-2.1,1.1-4.6,1.6-7.3,1.6c-2.4,0-4.6-0.4-6.6-1.3c-2-0.9-3.7-2.3-5.2-4.2c-1.5-1.9-2.6-4.3-3.4-7.3c-0.8-3-1.2-6.5-1.2-10.7
				c0-3.8,0.4-7.1,1.2-10.1c0.8-3,1.9-5.5,3.4-7.5c1.5-2,3.3-3.6,5.5-4.7c2.2-1.1,4.6-1.6,7.3-1.6c2.4,0,4.6,0.4,6.6,1.3
				c2,0.9,3.7,2.3,5.2,4.2c1.4,1.9,2.6,4.3,3.4,7.3C112,712.3,112.4,715.9,112.4,720.1z M86.8,720.2c0,0.5,0,0.9,0,1.3
				c0,0.4,0,0.8,0.1,1.2l16.2-12.4c-0.8-2.3-1.8-4-3.1-5.1c-1.3-1.1-2.8-1.7-4.5-1.7c-1.2,0-2.4,0.3-3.4,1c-1.1,0.7-2,1.7-2.8,3.1
				c-0.8,1.4-1.4,3.1-1.9,5.2C87,714.9,86.8,717.3,86.8,720.2z M104.3,720.3c0-0.4,0-0.8,0-1.2c0-0.4,0-0.8,0-1.2l-16.1,12.3
				c0.7,2.3,1.7,3.9,3,5c1.3,1.1,2.8,1.6,4.5,1.6c1.2,0,2.4-0.3,3.5-1c1.1-0.7,2-1.7,2.8-3.1c0.8-1.4,1.4-3.1,1.8-5.2
				C104,725.6,104.3,723.2,104.3,720.3z"/>
			<path class="st2" d="M125.1,743.1v-7.6h11v-29.4l-9.6,5.6l-2.6-7l13.7-7.7h6.8v38.5h9.5v7.6H125.1z"/>
			<path class="st2" d="M168.2,743.1v-7.6h11v-29.4l-9.6,5.6l-2.6-7l13.7-7.7h6.8v38.5h9.5v7.6H168.2z"/>
			<path class="st2" d="M211.3,743.1v-7.6h11v-29.4l-9.6,5.6l-2.6-7l13.7-7.7h6.8v38.5h9.5v7.6H211.3z"/>
			<path class="st2" d="M254.5,743.1v-7.6h11v-29.4l-9.6,5.6l-2.6-7l13.7-7.7h6.8v38.5h9.5v7.6H254.5z"/>
			<path class="st2" d="M297.6,743.1v-7.6h11v-29.4l-9.6,5.6l-2.6-7l13.7-7.7h6.8v38.5h9.5v7.6H297.6z"/>
			<path class="st2" d="M340.7,743.1v-7.6h11v-29.4l-9.6,5.6l-2.6-7l13.7-7.7h6.8v38.5h9.5v7.6H340.7z"/>
			<path class="st2" d="M414.3,720.1c0,3.8-0.4,7.1-1.2,10.1c-0.8,3-1.9,5.5-3.4,7.5c-1.5,2-3.3,3.6-5.4,4.7
				c-2.1,1.1-4.6,1.6-7.3,1.6c-2.4,0-4.6-0.4-6.6-1.3c-2-0.9-3.7-2.3-5.2-4.2c-1.5-1.9-2.6-4.3-3.4-7.3c-0.8-3-1.2-6.5-1.2-10.7
				c0-3.8,0.4-7.1,1.2-10.1c0.8-3,1.9-5.5,3.4-7.5c1.5-2,3.3-3.6,5.5-4.7c2.2-1.1,4.6-1.6,7.3-1.6c2.4,0,4.6,0.4,6.6,1.3
				c2,0.9,3.7,2.3,5.2,4.2c1.4,1.9,2.6,4.3,3.4,7.3C413.9,712.3,414.3,715.9,414.3,720.1z M388.7,720.2c0,0.5,0,0.9,0,1.3
				c0,0.4,0,0.8,0.1,1.2l16.2-12.4c-0.8-2.3-1.8-4-3.1-5.1c-1.3-1.1-2.8-1.7-4.5-1.7c-1.2,0-2.4,0.3-3.4,1c-1.1,0.7-2,1.7-2.8,3.1
				s-1.4,3.1-1.9,5.2C388.9,714.9,388.7,717.3,388.7,720.2z M406.2,720.3c0-0.4,0-0.8,0-1.2c0-0.4,0-0.8,0-1.2L390,730.3
				c0.7,2.3,1.7,3.9,3,5c1.3,1.1,2.8,1.6,4.5,1.6c1.2,0,2.4-0.3,3.5-1c1.1-0.7,2-1.7,2.8-3.1c0.8-1.4,1.4-3.1,1.8-5.2
				S406.2,723.2,406.2,720.3z"/>
			<path class="st2" d="M427,743.1v-7.6h11v-29.4l-9.6,5.6l-2.6-7l13.7-7.7h6.8v38.5h9.5v7.6H427z"/>
			<path class="st2" d="M470.1,743.1v-7.6h11v-29.4l-9.6,5.6l-2.6-7l13.7-7.7h6.8v38.5h9.5v7.6H470.1z"/>
			<path class="st2" d="M543.7,720.1c0,3.8-0.4,7.1-1.2,10.1c-0.8,3-1.9,5.5-3.4,7.5c-1.5,2-3.3,3.6-5.4,4.7
				c-2.1,1.1-4.6,1.6-7.3,1.6c-2.4,0-4.6-0.4-6.6-1.3c-2-0.9-3.7-2.3-5.2-4.2c-1.5-1.9-2.6-4.3-3.4-7.3c-0.8-3-1.2-6.5-1.2-10.7
				c0-3.8,0.4-7.1,1.2-10.1c0.8-3,1.9-5.5,3.4-7.5c1.5-2,3.3-3.6,5.5-4.7c2.2-1.1,4.6-1.6,7.3-1.6c2.4,0,4.6,0.4,6.6,1.3
				c2,0.9,3.7,2.3,5.2,4.2c1.4,1.9,2.6,4.3,3.4,7.3C543.3,712.3,543.7,715.9,543.7,720.1z M518.1,720.2c0,0.5,0,0.9,0,1.3
				c0,0.4,0,0.8,0.1,1.2l16.2-12.4c-0.8-2.3-1.8-4-3.1-5.1c-1.3-1.1-2.8-1.7-4.5-1.7c-1.2,0-2.4,0.3-3.4,1c-1.1,0.7-2,1.7-2.8,3.1
				s-1.4,3.1-1.9,5.2C518.3,714.9,518.1,717.3,518.1,720.2z M535.5,720.3c0-0.4,0-0.8,0-1.2c0-0.4,0-0.8,0-1.2l-16.1,12.3
				c0.7,2.3,1.7,3.9,3,5c1.3,1.1,2.8,1.6,4.5,1.6c1.2,0,2.4-0.3,3.5-1c1.1-0.7,2-1.7,2.8-3.1c0.8-1.4,1.4-3.1,1.8-5.2
				S535.5,723.2,535.5,720.3z"/>
			<path class="st2" d="M556.4,743.1v-7.6h11v-29.4l-9.6,5.6l-2.6-7l13.7-7.7h6.8v38.5h9.5v7.6H556.4z"/>
			<path class="st2" d="M599.5,743.1v-7.6h11v-29.4l-9.6,5.6l-2.6-7l13.7-7.7h6.8v38.5h9.5v7.6H599.5z"/>
			<path class="st2" d="M673.1,720.1c0,3.8-0.4,7.1-1.2,10.1c-0.8,3-1.9,5.5-3.4,7.5c-1.5,2-3.3,3.6-5.4,4.7
				c-2.1,1.1-4.6,1.6-7.3,1.6c-2.4,0-4.6-0.4-6.6-1.3c-2-0.9-3.7-2.3-5.2-4.2c-1.5-1.9-2.6-4.3-3.4-7.3c-0.8-3-1.2-6.5-1.2-10.7
				c0-3.8,0.4-7.1,1.2-10.1c0.8-3,1.9-5.5,3.4-7.5c1.5-2,3.3-3.6,5.5-4.7c2.2-1.1,4.6-1.6,7.3-1.6c2.4,0,4.6,0.4,6.6,1.3
				c2,0.9,3.7,2.3,5.2,4.2c1.4,1.9,2.6,4.3,3.4,7.3C672.7,712.3,673.1,715.9,673.1,720.1z M647.5,720.2c0,0.5,0,0.9,0,1.3
				c0,0.4,0,0.8,0.1,1.2l16.2-12.4c-0.8-2.3-1.8-4-3.1-5.1c-1.3-1.1-2.8-1.7-4.5-1.7c-1.2,0-2.4,0.3-3.4,1c-1.1,0.7-2,1.7-2.8,3.1
				c-0.8,1.4-1.4,3.1-1.9,5.2C647.7,714.9,647.5,717.3,647.5,720.2z M664.9,720.3c0-0.4,0-0.8,0-1.2c0-0.4,0-0.8,0-1.2l-16.1,12.3
				c0.7,2.3,1.7,3.9,3,5c1.3,1.1,2.8,1.6,4.5,1.6c1.2,0,2.4-0.3,3.5-1c1.1-0.7,2-1.7,2.8-3.1c0.8-1.4,1.4-3.1,1.8-5.2
				C664.7,725.6,664.9,723.2,664.9,720.3z"/>
			<path class="st2" d="M685.7,743.1v-7.6h11v-29.4l-9.6,5.6l-2.6-7l13.7-7.7h6.8v38.5h9.5v7.6H685.7z"/>
			<path class="st2" d="M728.9,743.1v-7.6h11v-29.4l-9.6,5.6l-2.6-7l13.7-7.7h6.8v38.5h9.5v7.6H728.9z"/>
			<path class="st2" d="M802.4,720.1c0,3.8-0.4,7.1-1.2,10.1c-0.8,3-1.9,5.5-3.4,7.5c-1.5,2-3.3,3.6-5.4,4.7
				c-2.1,1.1-4.6,1.6-7.3,1.6c-2.4,0-4.6-0.4-6.6-1.3c-2-0.9-3.7-2.3-5.2-4.2c-1.5-1.9-2.6-4.3-3.4-7.3c-0.8-3-1.2-6.5-1.2-10.7
				c0-3.8,0.4-7.1,1.2-10.1c0.8-3,1.9-5.5,3.4-7.5c1.5-2,3.3-3.6,5.5-4.7c2.2-1.1,4.6-1.6,7.3-1.6c2.4,0,4.6,0.4,6.6,1.3
				c2,0.9,3.7,2.3,5.2,4.2c1.4,1.9,2.6,4.3,3.4,7.3C802,712.3,802.4,715.9,802.4,720.1z M776.9,720.2c0,0.5,0,0.9,0,1.3
				c0,0.4,0,0.8,0.1,1.2l16.2-12.4c-0.8-2.3-1.8-4-3.1-5.1s-2.8-1.7-4.5-1.7c-1.2,0-2.4,0.3-3.4,1c-1.1,0.7-2,1.7-2.8,3.1
				c-0.8,1.4-1.4,3.1-1.9,5.2C777.1,714.9,776.9,717.3,776.9,720.2z M794.3,720.3c0-0.4,0-0.8,0-1.2c0-0.4,0-0.8,0-1.2l-16.1,12.3
				c0.7,2.3,1.7,3.9,3,5c1.3,1.1,2.8,1.6,4.5,1.6c1.2,0,2.4-0.3,3.5-1c1.1-0.7,2-1.7,2.8-3.1c0.8-1.4,1.4-3.1,1.8-5.2
				S794.3,723.2,794.3,720.3z"/>
			<path class="st2" d="M845.6,720.1c0,3.8-0.4,7.1-1.2,10.1c-0.8,3-1.9,5.5-3.4,7.5c-1.5,2-3.3,3.6-5.4,4.7
				c-2.1,1.1-4.6,1.6-7.3,1.6c-2.4,0-4.6-0.4-6.6-1.3c-2-0.9-3.7-2.3-5.2-4.2c-1.5-1.9-2.6-4.3-3.4-7.3c-0.8-3-1.2-6.5-1.2-10.7
				c0-3.8,0.4-7.1,1.2-10.1c0.8-3,1.9-5.5,3.4-7.5c1.5-2,3.3-3.6,5.5-4.7c2.2-1.1,4.6-1.6,7.3-1.6c2.4,0,4.6,0.4,6.6,1.3
				c2,0.9,3.7,2.3,5.2,4.2c1.4,1.9,2.6,4.3,3.4,7.3C845.2,712.3,845.6,715.9,845.6,720.1z M820,720.2c0,0.5,0,0.9,0,1.3
				c0,0.4,0,0.8,0.1,1.2l16.2-12.4c-0.8-2.3-1.8-4-3.1-5.1c-1.3-1.1-2.8-1.7-4.5-1.7c-1.2,0-2.4,0.3-3.4,1c-1.1,0.7-2,1.7-2.8,3.1
				c-0.8,1.4-1.4,3.1-1.9,5.2C820.2,714.9,820,717.3,820,720.2z M837.4,720.3c0-0.4,0-0.8,0-1.2c0-0.4,0-0.8,0-1.2l-16.1,12.3
				c0.7,2.3,1.7,3.9,3,5c1.3,1.1,2.8,1.6,4.5,1.6c1.2,0,2.4-0.3,3.5-1c1.1-0.7,2-1.7,2.8-3.1c0.8-1.4,1.4-3.1,1.8-5.2
				C837.2,725.6,837.4,723.2,837.4,720.3z"/>
			<path class="st2" d="M858.2,743.1v-7.6h11v-29.4l-9.6,5.6l-2.6-7l13.7-7.7h6.8v38.5h9.5v7.6H858.2z"/>
			<path class="st2" d="M38.4,806.9v-7.6h11v-29.4l-9.6,5.6l-2.6-7l13.7-7.7h6.8v38.5h9.5v7.6H38.4z"/>
			<path class="st2" d="M81.5,806.9v-7.6h11v-29.4l-9.6,5.6l-2.6-7l13.7-7.7h6.8v38.5h9.5v7.6H81.5z"/>
			<path class="st2" d="M124.6,806.9v-7.6h11v-29.4l-9.6,5.6l-2.6-7l13.7-7.7h6.8v38.5h9.5v7.6H124.6z"/>
			<path class="st2" d="M167.7,806.9v-7.6h11v-29.4l-9.6,5.6l-2.6-7l13.7-7.7h6.8v38.5h9.5v7.6H167.7z"/>
			<path class="st2" d="M210.9,806.9v-7.6h11v-29.4l-9.6,5.6l-2.6-7l13.7-7.7h6.8v38.5h9.5v7.6H210.9z"/>
			<path class="st2" d="M254,806.9v-7.6h11v-29.4l-9.6,5.6l-2.6-7l13.7-7.7h6.8v38.5h9.5v7.6H254z"/>
			<path class="st2" d="M297.1,806.9v-7.6h11v-29.4l-9.6,5.6l-2.6-7l13.7-7.7h6.8v38.5h9.5v7.6H297.1z"/>
			<path class="st2" d="M340.3,806.9v-7.6h11v-29.4l-9.6,5.6l-2.6-7l13.7-7.7h6.8v38.5h9.5v7.6H340.3z"/>
			<path class="st2" d="M383.4,806.9v-7.6h11v-29.4l-9.6,5.6l-2.6-7l13.7-7.7h6.8v38.5h9.5v7.6H383.4z"/>
			<path class="st2" d="M426.5,806.9v-7.6h11v-29.4l-9.6,5.6l-2.6-7l13.7-7.7h6.8v38.5h9.5v7.6H426.5z"/>
			<path class="st2" d="M469.6,806.9v-7.6h11v-29.4l-9.6,5.6l-2.6-7l13.7-7.7h6.8v38.5h9.5v7.6H469.6z"/>
			<path class="st2" d="M512.8,806.9v-7.6h11v-29.4l-9.6,5.6l-2.6-7l13.7-7.7h6.8v38.5h9.5v7.6H512.8z"/>
			<path class="st2" d="M586.4,783.8c0,3.8-0.4,7.1-1.2,10.1c-0.8,3-1.9,5.5-3.4,7.5c-1.5,2-3.3,3.6-5.4,4.7
				c-2.1,1.1-4.6,1.6-7.3,1.6c-2.4,0-4.6-0.4-6.6-1.3c-2-0.9-3.7-2.3-5.2-4.2c-1.5-1.9-2.6-4.3-3.4-7.3s-1.2-6.5-1.2-10.7
				c0-3.8,0.4-7.1,1.2-10.1c0.8-3,1.9-5.5,3.4-7.5c1.5-2,3.3-3.6,5.5-4.7c2.2-1.1,4.6-1.6,7.3-1.6c2.4,0,4.6,0.4,6.6,1.3
				c2,0.9,3.7,2.3,5.2,4.2c1.4,1.9,2.6,4.3,3.4,7.3S586.4,779.7,586.4,783.8z M560.8,784c0,0.5,0,0.9,0,1.3c0,0.4,0,0.8,0.1,1.2
				l16.2-12.4c-0.8-2.3-1.8-4-3.1-5.1c-1.3-1.1-2.8-1.7-4.5-1.7c-1.2,0-2.4,0.3-3.4,1c-1.1,0.7-2,1.7-2.8,3.1
				c-0.8,1.4-1.4,3.1-1.9,5.2C561,778.7,560.8,781.1,560.8,784z M578.2,784.1c0-0.4,0-0.8,0-1.2c0-0.4,0-0.8,0-1.2l-16.1,12.3
				c0.7,2.3,1.7,3.9,3,5c1.3,1.1,2.8,1.6,4.5,1.6c1.2,0,2.4-0.3,3.5-1c1.1-0.7,2-1.7,2.8-3.1c0.8-1.4,1.4-3.1,1.8-5.2
				C578,789.4,578.2,787,578.2,784.1z"/>
			<path class="st2" d="M599,806.9v-7.6h11v-29.4l-9.6,5.6l-2.6-7l13.7-7.7h6.8v38.5h9.5v7.6H599z"/>
			<path class="st2" d="M642.2,806.9v-7.6h11v-29.4l-9.6,5.6l-2.6-7l13.7-7.7h6.8v38.5h9.5v7.6H642.2z"/>
			<path class="st2" d="M685.3,806.9v-7.6h11v-29.4l-9.6,5.6l-2.6-7l13.7-7.7h6.8v38.5h9.5v7.6H685.3z"/>
			<path class="st2" d="M728.4,806.9v-7.6h11v-29.4l-9.6,5.6l-2.6-7l13.7-7.7h6.8v38.5h9.5v7.6H728.4z"/>
			<path class="st2" d="M802,783.8c0,3.8-0.4,7.1-1.2,10.1c-0.8,3-1.9,5.5-3.4,7.5c-1.5,2-3.3,3.6-5.4,4.7c-2.1,1.1-4.6,1.6-7.3,1.6
				c-2.4,0-4.6-0.4-6.6-1.3c-2-0.9-3.7-2.3-5.2-4.2c-1.5-1.9-2.6-4.3-3.4-7.3s-1.2-6.5-1.2-10.7c0-3.8,0.4-7.1,1.2-10.1
				c0.8-3,1.9-5.5,3.4-7.5c1.5-2,3.3-3.6,5.5-4.7c2.2-1.1,4.6-1.6,7.3-1.6c2.4,0,4.6,0.4,6.6,1.3c2,0.9,3.7,2.3,5.2,4.2
				c1.4,1.9,2.6,4.3,3.4,7.3S802,779.7,802,783.8z M776.4,784c0,0.5,0,0.9,0,1.3c0,0.4,0,0.8,0.1,1.2l16.2-12.4
				c-0.8-2.3-1.8-4-3.1-5.1c-1.3-1.1-2.8-1.7-4.5-1.7c-1.2,0-2.4,0.3-3.4,1c-1.1,0.7-2,1.7-2.8,3.1c-0.8,1.4-1.4,3.1-1.9,5.2
				C776.6,778.7,776.4,781.1,776.4,784z M793.9,784.1c0-0.4,0-0.8,0-1.2c0-0.4,0-0.8,0-1.2l-16.1,12.3c0.7,2.3,1.7,3.9,3,5
				c1.3,1.1,2.8,1.6,4.5,1.6c1.2,0,2.4-0.3,3.5-1c1.1-0.7,2-1.7,2.8-3.1c0.8-1.4,1.4-3.1,1.8-5.2C793.6,789.4,793.9,787,793.9,784.1
				z"/>
			<path class="st2" d="M814.7,806.9v-7.6h11v-29.4l-9.6,5.6l-2.6-7l13.7-7.7h6.8v38.5h9.5v7.6H814.7z"/>
			<path class="st2" d="M127,847.6c0,3.8-0.4,7.1-1.2,10.1c-0.8,3-1.9,5.5-3.4,7.5c-1.5,2-3.3,3.6-5.4,4.7c-2.1,1.1-4.6,1.6-7.3,1.6
				c-2.4,0-4.6-0.4-6.6-1.3c-2-0.9-3.7-2.3-5.2-4.2c-1.5-1.9-2.6-4.3-3.4-7.3c-0.8-3-1.2-6.5-1.2-10.7c0-3.8,0.4-7.1,1.2-10.1
				c0.8-3,1.9-5.5,3.4-7.5c1.5-2,3.3-3.6,5.5-4.7c2.2-1.1,4.6-1.6,7.3-1.6c2.4,0,4.6,0.4,6.6,1.3c2,0.9,3.7,2.3,5.2,4.2
				c1.4,1.9,2.6,4.3,3.4,7.3C126.6,839.9,127,843.5,127,847.6z M101.4,847.8c0,0.5,0,0.9,0,1.3c0,0.4,0,0.8,0.1,1.2l16.2-12.4
				c-0.8-2.3-1.8-4-3.1-5.1c-1.3-1.1-2.8-1.7-4.5-1.7c-1.2,0-2.4,0.3-3.4,1c-1.1,0.7-2,1.7-2.8,3.1s-1.4,3.1-1.9,5.2
				C101.6,842.5,101.4,844.9,101.4,847.8z M118.9,847.9c0-0.4,0-0.8,0-1.2c0-0.4,0-0.8,0-1.2l-16.1,12.3c0.7,2.3,1.7,3.9,3,5
				c1.3,1.1,2.8,1.6,4.5,1.6c1.2,0,2.4-0.3,3.5-1c1.1-0.7,2-1.7,2.8-3.1c0.8-1.4,1.4-3.1,1.8-5.2
				C118.6,853.2,118.9,850.8,118.9,847.9z"/>
			<path class="st2" d="M139.7,870.7v-7.6h11v-29.4l-9.6,5.6l-2.6-7l13.7-7.7h6.8v38.5h9.5v7.6H139.7z"/>
			<path class="st2" d="M213.3,847.6c0,3.8-0.4,7.1-1.2,10.1c-0.8,3-1.9,5.5-3.4,7.5c-1.5,2-3.3,3.6-5.4,4.7
				c-2.1,1.1-4.6,1.6-7.3,1.6c-2.4,0-4.6-0.4-6.6-1.3c-2-0.9-3.7-2.3-5.2-4.2c-1.5-1.9-2.6-4.3-3.4-7.3c-0.8-3-1.2-6.5-1.2-10.7
				c0-3.8,0.4-7.1,1.2-10.1c0.8-3,1.9-5.5,3.4-7.5c1.5-2,3.3-3.6,5.5-4.7c2.2-1.1,4.6-1.6,7.3-1.6c2.4,0,4.6,0.4,6.6,1.3
				c2,0.9,3.7,2.3,5.2,4.2c1.4,1.9,2.6,4.3,3.4,7.3C212.9,839.9,213.3,843.5,213.3,847.6z M187.7,847.8c0,0.5,0,0.9,0,1.3
				c0,0.4,0,0.8,0.1,1.2l16.2-12.4c-0.8-2.3-1.8-4-3.1-5.1c-1.3-1.1-2.8-1.7-4.5-1.7c-1.2,0-2.4,0.3-3.4,1c-1.1,0.7-2,1.7-2.8,3.1
				c-0.8,1.4-1.4,3.1-1.9,5.2C187.9,842.5,187.7,844.9,187.7,847.8z M205.1,847.9c0-0.4,0-0.8,0-1.2c0-0.4,0-0.8,0-1.2L189,857.9
				c0.7,2.3,1.7,3.9,3,5c1.3,1.1,2.8,1.6,4.5,1.6c1.2,0,2.4-0.3,3.5-1c1.1-0.7,2-1.7,2.8-3.1c0.8-1.4,1.4-3.1,1.8-5.2
				S205.1,850.8,205.1,847.9z"/>
			<path class="st2" d="M256.4,847.6c0,3.8-0.4,7.1-1.2,10.1c-0.8,3-1.9,5.5-3.4,7.5c-1.5,2-3.3,3.6-5.4,4.7
				c-2.1,1.1-4.6,1.6-7.3,1.6c-2.4,0-4.6-0.4-6.6-1.3c-2-0.9-3.7-2.3-5.2-4.2c-1.5-1.9-2.6-4.3-3.4-7.3c-0.8-3-1.2-6.5-1.2-10.7
				c0-3.8,0.4-7.1,1.2-10.1c0.8-3,1.9-5.5,3.4-7.5c1.5-2,3.3-3.6,5.5-4.7c2.2-1.1,4.6-1.6,7.3-1.6c2.4,0,4.6,0.4,6.6,1.3
				c2,0.9,3.7,2.3,5.2,4.2c1.4,1.9,2.6,4.3,3.4,7.3C256,839.9,256.4,843.5,256.4,847.6z M230.8,847.8c0,0.5,0,0.9,0,1.3
				c0,0.4,0,0.8,0.1,1.2l16.2-12.4c-0.8-2.3-1.8-4-3.1-5.1s-2.8-1.7-4.5-1.7c-1.2,0-2.4,0.3-3.4,1c-1.1,0.7-2,1.7-2.8,3.1
				c-0.8,1.4-1.4,3.1-1.9,5.2C231,842.5,230.8,844.9,230.8,847.8z M248.3,847.9c0-0.4,0-0.8,0-1.2c0-0.4,0-0.8,0-1.2l-16.1,12.3
				c0.7,2.3,1.7,3.9,3,5c1.3,1.1,2.8,1.6,4.5,1.6c1.2,0,2.4-0.3,3.5-1c1.1-0.7,2-1.7,2.8-3.1c0.8-1.4,1.4-3.1,1.8-5.2
				C248,853.2,248.3,850.8,248.3,847.9z"/>
			<path class="st2" d="M269.1,870.7v-7.6h11v-29.4l-9.6,5.6l-2.6-7l13.7-7.7h6.8v38.5h9.5v7.6H269.1z"/>
			<path class="st2" d="M342.6,847.6c0,3.8-0.4,7.1-1.2,10.1c-0.8,3-1.9,5.5-3.4,7.5c-1.5,2-3.3,3.6-5.4,4.7
				c-2.1,1.1-4.6,1.6-7.3,1.6c-2.4,0-4.6-0.4-6.6-1.3c-2-0.9-3.7-2.3-5.2-4.2c-1.5-1.9-2.6-4.3-3.4-7.3c-0.8-3-1.2-6.5-1.2-10.7
				c0-3.8,0.4-7.1,1.2-10.1c0.8-3,1.9-5.5,3.4-7.5c1.5-2,3.3-3.6,5.5-4.7c2.2-1.1,4.6-1.6,7.3-1.6c2.4,0,4.6,0.4,6.6,1.3
				c2,0.9,3.7,2.3,5.2,4.2c1.4,1.9,2.6,4.3,3.4,7.3C342.2,839.9,342.6,843.5,342.6,847.6z M317,847.8c0,0.5,0,0.9,0,1.3
				c0,0.4,0,0.8,0.1,1.2l16.2-12.4c-0.8-2.3-1.8-4-3.1-5.1c-1.3-1.1-2.8-1.7-4.5-1.7c-1.2,0-2.4,0.3-3.4,1c-1.1,0.7-2,1.7-2.8,3.1
				s-1.4,3.1-1.9,5.2C317.3,842.5,317,844.9,317,847.8z M334.5,847.9c0-0.4,0-0.8,0-1.2c0-0.4,0-0.8,0-1.2l-16.1,12.3
				c0.7,2.3,1.7,3.9,3,5c1.3,1.1,2.8,1.6,4.5,1.6c1.2,0,2.4-0.3,3.5-1c1.1-0.7,2-1.7,2.8-3.1c0.8-1.4,1.4-3.1,1.8-5.2
				S334.5,850.8,334.5,847.9z"/>
			<path class="st2" d="M355.3,870.7v-7.6h11v-29.4l-9.6,5.6l-2.6-7l13.7-7.7h6.8v38.5h9.5v7.6H355.3z"/>
			<path class="st2" d="M428.9,847.6c0,3.8-0.4,7.1-1.2,10.1c-0.8,3-1.9,5.5-3.4,7.5c-1.5,2-3.3,3.6-5.4,4.7
				c-2.1,1.1-4.6,1.6-7.3,1.6c-2.4,0-4.6-0.4-6.6-1.3c-2-0.9-3.7-2.3-5.2-4.2c-1.5-1.9-2.6-4.3-3.4-7.3c-0.8-3-1.2-6.5-1.2-10.7
				c0-3.8,0.4-7.1,1.2-10.1c0.8-3,1.9-5.5,3.4-7.5c1.5-2,3.3-3.6,5.5-4.7c2.2-1.1,4.6-1.6,7.3-1.6c2.4,0,4.6,0.4,6.6,1.3
				c2,0.9,3.7,2.3,5.2,4.2c1.4,1.9,2.6,4.3,3.4,7.3C428.5,839.9,428.9,843.5,428.9,847.6z M403.3,847.8c0,0.5,0,0.9,0,1.3
				c0,0.4,0,0.8,0.1,1.2l16.2-12.4c-0.8-2.3-1.8-4-3.1-5.1c-1.3-1.1-2.8-1.7-4.5-1.7c-1.2,0-2.4,0.3-3.4,1c-1.1,0.7-2,1.7-2.8,3.1
				c-0.8,1.4-1.4,3.1-1.9,5.2C403.5,842.5,403.3,844.9,403.3,847.8z M420.8,847.9c0-0.4,0-0.8,0-1.2c0-0.4,0-0.8,0-1.2l-16.1,12.3
				c0.7,2.3,1.7,3.9,3,5c1.3,1.1,2.8,1.6,4.5,1.6c1.2,0,2.4-0.3,3.5-1c1.1-0.7,2-1.7,2.8-3.1c0.8-1.4,1.4-3.1,1.8-5.2
				C420.5,853.2,420.8,850.8,420.8,847.9z"/>
			<path class="st2" d="M441.6,870.7v-7.6h11v-29.4l-9.6,5.6l-2.6-7l13.7-7.7h6.8v38.5h9.5v7.6H441.6z"/>
			<path class="st2" d="M484.7,870.7v-7.6h11v-29.4l-9.6,5.6l-2.6-7l13.7-7.7h6.8v38.5h9.5v7.6H484.7z"/>
			<path class="st2" d="M558.3,847.6c0,3.8-0.4,7.1-1.2,10.1c-0.8,3-1.9,5.5-3.4,7.5c-1.5,2-3.3,3.6-5.4,4.7
				c-2.1,1.1-4.6,1.6-7.3,1.6c-2.4,0-4.6-0.4-6.6-1.3c-2-0.9-3.7-2.3-5.2-4.2c-1.5-1.9-2.6-4.3-3.4-7.3c-0.8-3-1.2-6.5-1.2-10.7
				c0-3.8,0.4-7.1,1.2-10.1c0.8-3,1.9-5.5,3.4-7.5c1.5-2,3.3-3.6,5.5-4.7c2.2-1.1,4.6-1.6,7.3-1.6c2.4,0,4.6,0.4,6.6,1.3
				c2,0.9,3.7,2.3,5.2,4.2c1.4,1.9,2.6,4.3,3.4,7.3C557.9,839.9,558.3,843.5,558.3,847.6z M532.7,847.8c0,0.5,0,0.9,0,1.3
				c0,0.4,0,0.8,0.1,1.2l16.2-12.4c-0.8-2.3-1.8-4-3.1-5.1c-1.3-1.1-2.8-1.7-4.5-1.7c-1.2,0-2.4,0.3-3.4,1c-1.1,0.7-2,1.7-2.8,3.1
				c-0.8,1.4-1.4,3.1-1.9,5.2C532.9,842.5,532.7,844.9,532.7,847.8z M550.1,847.9c0-0.4,0-0.8,0-1.2c0-0.4,0-0.8,0-1.2L534,857.9
				c0.7,2.3,1.7,3.9,3,5c1.3,1.1,2.8,1.6,4.5,1.6c1.2,0,2.4-0.3,3.5-1c1.1-0.7,2-1.7,2.8-3.1c0.8-1.4,1.4-3.1,1.8-5.2
				S550.1,850.8,550.1,847.9z"/>
			<path class="st2" d="M571,870.7v-7.6h11v-29.4l-9.6,5.6l-2.6-7l13.7-7.7h6.8v38.5h9.5v7.6H571z"/>
			<path class="st2" d="M644.5,847.6c0,3.8-0.4,7.1-1.2,10.1c-0.8,3-1.9,5.5-3.4,7.5c-1.5,2-3.3,3.6-5.4,4.7
				c-2.1,1.1-4.6,1.6-7.3,1.6c-2.4,0-4.6-0.4-6.6-1.3c-2-0.9-3.7-2.3-5.2-4.2c-1.5-1.9-2.6-4.3-3.4-7.3c-0.8-3-1.2-6.5-1.2-10.7
				c0-3.8,0.4-7.1,1.2-10.1c0.8-3,1.9-5.5,3.4-7.5c1.5-2,3.3-3.6,5.5-4.7c2.2-1.1,4.6-1.6,7.3-1.6c2.4,0,4.6,0.4,6.6,1.3
				c2,0.9,3.7,2.3,5.2,4.2c1.4,1.9,2.6,4.3,3.4,7.3C644.1,839.9,644.5,843.5,644.5,847.6z M618.9,847.8c0,0.5,0,0.9,0,1.3
				c0,0.4,0,0.8,0.1,1.2l16.2-12.4c-0.8-2.3-1.8-4-3.1-5.1c-1.3-1.1-2.8-1.7-4.5-1.7c-1.2,0-2.4,0.3-3.4,1c-1.1,0.7-2,1.7-2.8,3.1
				c-0.8,1.4-1.4,3.1-1.9,5.2C619.2,842.5,618.9,844.9,618.9,847.8z M636.4,847.9c0-0.4,0-0.8,0-1.2c0-0.4,0-0.8,0-1.2l-16.1,12.3
				c0.7,2.3,1.7,3.9,3,5c1.3,1.1,2.8,1.6,4.5,1.6c1.2,0,2.4-0.3,3.5-1c1.1-0.7,2-1.7,2.8-3.1c0.8-1.4,1.4-3.1,1.8-5.2
				S636.4,850.8,636.4,847.9z"/>
			<path class="st2" d="M687.7,847.6c0,3.8-0.4,7.1-1.2,10.1c-0.8,3-1.9,5.5-3.4,7.5c-1.5,2-3.3,3.6-5.4,4.7
				c-2.1,1.1-4.6,1.6-7.3,1.6c-2.4,0-4.6-0.4-6.6-1.3c-2-0.9-3.7-2.3-5.2-4.2c-1.5-1.9-2.6-4.3-3.4-7.3c-0.8-3-1.2-6.5-1.2-10.7
				c0-3.8,0.4-7.1,1.2-10.1c0.8-3,1.9-5.5,3.4-7.5c1.5-2,3.3-3.6,5.5-4.7c2.2-1.1,4.6-1.6,7.3-1.6c2.4,0,4.6,0.4,6.6,1.3
				c2,0.9,3.7,2.3,5.2,4.2c1.4,1.9,2.6,4.3,3.4,7.3C687.3,839.9,687.7,843.5,687.7,847.6z M662.1,847.8c0,0.5,0,0.9,0,1.3
				c0,0.4,0,0.8,0.1,1.2l16.2-12.4c-0.8-2.3-1.8-4-3.1-5.1s-2.8-1.7-4.5-1.7c-1.2,0-2.4,0.3-3.4,1c-1.1,0.7-2,1.7-2.8,3.1
				c-0.8,1.4-1.4,3.1-1.9,5.2C662.3,842.5,662.1,844.9,662.1,847.8z M679.5,847.9c0-0.4,0-0.8,0-1.2c0-0.4,0-0.8,0-1.2l-16.1,12.3
				c0.7,2.3,1.7,3.9,3,5c1.3,1.1,2.8,1.6,4.5,1.6c1.2,0,2.4-0.3,3.5-1c1.1-0.7,2-1.7,2.8-3.1c0.8-1.4,1.4-3.1,1.8-5.2
				S679.5,850.8,679.5,847.9z"/>
			<path class="st2" d="M700.3,870.7v-7.6h11v-29.4l-9.6,5.6l-2.6-7l13.7-7.7h6.8v38.5h9.5v7.6H700.3z"/>
			<path class="st2" d="M773.9,847.6c0,3.8-0.4,7.1-1.2,10.1c-0.8,3-1.9,5.5-3.4,7.5c-1.5,2-3.3,3.6-5.4,4.7
				c-2.1,1.1-4.6,1.6-7.3,1.6c-2.4,0-4.6-0.4-6.6-1.3c-2-0.9-3.7-2.3-5.2-4.2c-1.5-1.9-2.6-4.3-3.4-7.3c-0.8-3-1.2-6.5-1.2-10.7
				c0-3.8,0.4-7.1,1.2-10.1c0.8-3,1.9-5.5,3.4-7.5c1.5-2,3.3-3.6,5.5-4.7c2.2-1.1,4.6-1.6,7.3-1.6c2.4,0,4.6,0.4,6.6,1.3
				c2,0.9,3.7,2.3,5.2,4.2c1.4,1.9,2.6,4.3,3.4,7.3C773.5,839.9,773.9,843.5,773.9,847.6z M748.3,847.8c0,0.5,0,0.9,0,1.3
				c0,0.4,0,0.8,0.1,1.2l16.2-12.4c-0.8-2.3-1.8-4-3.1-5.1s-2.8-1.7-4.5-1.7c-1.2,0-2.4,0.3-3.4,1c-1.1,0.7-2,1.7-2.8,3.1
				c-0.8,1.4-1.4,3.1-1.9,5.2C748.6,842.5,748.3,844.9,748.3,847.8z M765.8,847.9c0-0.4,0-0.8,0-1.2c0-0.4,0-0.8,0-1.2l-16.1,12.3
				c0.7,2.3,1.7,3.9,3,5c1.3,1.1,2.8,1.6,4.5,1.6c1.2,0,2.4-0.3,3.5-1c1.1-0.7,2-1.7,2.8-3.1c0.8-1.4,1.4-3.1,1.8-5.2
				C765.6,853.2,765.8,850.8,765.8,847.9z"/>
			<path class="st2" d="M786.6,870.7v-7.6h11v-29.4l-9.6,5.6l-2.6-7l13.7-7.7h6.8v38.5h9.5v7.6H786.6z"/>
			<path class="st2" d="M210,911.4c0,3.8-0.4,7.1-1.2,10.1c-0.8,3-1.9,5.5-3.4,7.5c-1.5,2-3.3,3.6-5.4,4.7c-2.1,1.1-4.6,1.6-7.3,1.6
				c-2.4,0-4.6-0.4-6.6-1.3c-2-0.9-3.7-2.3-5.2-4.2c-1.5-1.9-2.6-4.3-3.4-7.3c-0.8-3-1.2-6.5-1.2-10.7c0-3.8,0.4-7.1,1.2-10.1
				c0.8-3,1.9-5.5,3.4-7.5c1.5-2,3.3-3.6,5.5-4.7c2.2-1.1,4.6-1.6,7.3-1.6c2.4,0,4.6,0.4,6.6,1.3c2,0.9,3.7,2.3,5.2,4.2
				c1.4,1.9,2.6,4.3,3.4,7.3C209.6,903.7,210,907.3,210,911.4z M184.4,911.6c0,0.5,0,0.9,0,1.3c0,0.4,0,0.8,0.1,1.2l16.2-12.4
				c-0.8-2.3-1.8-4-3.1-5.1s-2.8-1.7-4.5-1.7c-1.2,0-2.4,0.3-3.4,1c-1.1,0.7-2,1.7-2.8,3.1c-0.8,1.4-1.4,3.1-1.9,5.2
				C184.7,906.3,184.4,908.7,184.4,911.6z M201.9,911.7c0-0.4,0-0.8,0-1.2c0-0.4,0-0.8,0-1.2l-16.1,12.3c0.7,2.3,1.7,3.9,3,5
				c1.3,1.1,2.8,1.6,4.5,1.6c1.2,0,2.4-0.3,3.5-1c1.1-0.7,2-1.7,2.8-3.1c0.8-1.4,1.4-3.1,1.8-5.2C201.7,917,201.9,914.5,201.9,911.7
				z"/>
			<path class="st2" d="M222.7,934.5v-7.6h11v-29.4l-9.6,5.6l-2.6-7l13.7-7.7h6.8v38.5h9.5v7.6H222.7z"/>
			<path class="st2" d="M265.8,934.5v-7.6h11v-29.4l-9.6,5.6l-2.6-7l13.7-7.7h6.8v38.5h9.5v7.6H265.8z"/>
			<path class="st2" d="M339.4,911.4c0,3.8-0.4,7.1-1.2,10.1c-0.8,3-1.9,5.5-3.4,7.5c-1.5,2-3.3,3.6-5.4,4.7
				c-2.1,1.1-4.6,1.6-7.3,1.6c-2.4,0-4.6-0.4-6.6-1.3c-2-0.9-3.7-2.3-5.2-4.2c-1.5-1.9-2.6-4.3-3.4-7.3c-0.8-3-1.2-6.5-1.2-10.7
				c0-3.8,0.4-7.1,1.2-10.1c0.8-3,1.9-5.5,3.4-7.5c1.5-2,3.3-3.6,5.5-4.7c2.2-1.1,4.6-1.6,7.3-1.6c2.4,0,4.6,0.4,6.6,1.3
				c2,0.9,3.7,2.3,5.2,4.2c1.4,1.9,2.6,4.3,3.4,7.3C339,903.7,339.4,907.3,339.4,911.4z M313.8,911.6c0,0.5,0,0.9,0,1.3
				c0,0.4,0,0.8,0.1,1.2l16.2-12.4c-0.8-2.3-1.8-4-3.1-5.1c-1.3-1.1-2.8-1.7-4.5-1.7c-1.2,0-2.4,0.3-3.4,1c-1.1,0.7-2,1.7-2.8,3.1
				c-0.8,1.4-1.4,3.1-1.9,5.2C314.1,906.3,313.8,908.7,313.8,911.6z M331.3,911.7c0-0.4,0-0.8,0-1.2c0-0.4,0-0.8,0-1.2l-16.1,12.3
				c0.7,2.3,1.7,3.9,3,5c1.3,1.1,2.8,1.6,4.5,1.6c1.2,0,2.4-0.3,3.5-1c1.1-0.7,2-1.7,2.8-3.1c0.8-1.4,1.4-3.1,1.8-5.2
				C331.1,917,331.3,914.5,331.3,911.7z"/>
			<path class="st2" d="M352.1,934.5v-7.6h11v-29.4l-9.6,5.6l-2.6-7l13.7-7.7h6.8v38.5h9.5v7.6H352.1z"/>
			<path class="st2" d="M425.7,911.4c0,3.8-0.4,7.1-1.2,10.1c-0.8,3-1.9,5.5-3.4,7.5c-1.5,2-3.3,3.6-5.4,4.7
				c-2.1,1.1-4.6,1.6-7.3,1.6c-2.4,0-4.6-0.4-6.6-1.3c-2-0.9-3.7-2.3-5.2-4.2c-1.5-1.9-2.6-4.3-3.4-7.3c-0.8-3-1.2-6.5-1.2-10.7
				c0-3.8,0.4-7.1,1.2-10.1c0.8-3,1.9-5.5,3.4-7.5c1.5-2,3.3-3.6,5.5-4.7c2.2-1.1,4.6-1.6,7.3-1.6c2.4,0,4.6,0.4,6.6,1.3
				c2,0.9,3.7,2.3,5.2,4.2c1.4,1.9,2.6,4.3,3.4,7.3C425.3,903.7,425.7,907.3,425.7,911.4z M400.1,911.6c0,0.5,0,0.9,0,1.3
				c0,0.4,0,0.8,0.1,1.2l16.2-12.4c-0.8-2.3-1.8-4-3.1-5.1c-1.3-1.1-2.8-1.7-4.5-1.7c-1.2,0-2.4,0.3-3.4,1c-1.1,0.7-2,1.7-2.8,3.1
				c-0.8,1.4-1.4,3.1-1.9,5.2C400.3,906.3,400.1,908.7,400.1,911.6z M417.6,911.7c0-0.4,0-0.8,0-1.2c0-0.4,0-0.8,0-1.2l-16.1,12.3
				c0.7,2.3,1.7,3.9,3,5c1.3,1.1,2.8,1.6,4.5,1.6c1.2,0,2.4-0.3,3.5-1c1.1-0.7,2-1.7,2.8-3.1c0.8-1.4,1.4-3.1,1.8-5.2
				C417.3,917,417.6,914.5,417.6,911.7z"/>
			<path class="st2" d="M438.4,934.5v-7.6h11v-29.4l-9.6,5.6l-2.6-7l13.7-7.7h6.8v38.5h9.5v7.6H438.4z"/>
			<path class="st2" d="M511.9,911.4c0,3.8-0.4,7.1-1.2,10.1c-0.8,3-1.9,5.5-3.4,7.5c-1.5,2-3.3,3.6-5.4,4.7
				c-2.1,1.1-4.6,1.6-7.3,1.6c-2.4,0-4.6-0.4-6.6-1.3c-2-0.9-3.7-2.3-5.2-4.2c-1.5-1.9-2.6-4.3-3.4-7.3c-0.8-3-1.2-6.5-1.2-10.7
				c0-3.8,0.4-7.1,1.2-10.1c0.8-3,1.9-5.5,3.4-7.5c1.5-2,3.3-3.6,5.5-4.7c2.2-1.1,4.6-1.6,7.3-1.6c2.4,0,4.6,0.4,6.6,1.3
				c2,0.9,3.7,2.3,5.2,4.2c1.4,1.9,2.6,4.3,3.4,7.3C511.5,903.7,511.9,907.3,511.9,911.4z M486.3,911.6c0,0.5,0,0.9,0,1.3
				c0,0.4,0,0.8,0.1,1.2l16.2-12.4c-0.8-2.3-1.8-4-3.1-5.1c-1.3-1.1-2.8-1.7-4.5-1.7c-1.2,0-2.4,0.3-3.4,1c-1.1,0.7-2,1.7-2.8,3.1
				c-0.8,1.4-1.4,3.1-1.9,5.2C486.6,906.3,486.3,908.7,486.3,911.6z M503.8,911.7c0-0.4,0-0.8,0-1.2c0-0.4,0-0.8,0-1.2l-16.1,12.3
				c0.7,2.3,1.7,3.9,3,5c1.3,1.1,2.8,1.6,4.5,1.6c1.2,0,2.4-0.3,3.5-1c1.1-0.7,2-1.7,2.8-3.1c0.8-1.4,1.4-3.1,1.8-5.2
				C503.6,917,503.8,914.5,503.8,911.7z"/>
			<path class="st2" d="M524.6,934.5v-7.6h11v-29.4l-9.6,5.6l-2.6-7l13.7-7.7h6.8v38.5h9.5v7.6H524.6z"/>
			<path class="st2" d="M598.2,911.4c0,3.8-0.4,7.1-1.2,10.1c-0.8,3-1.9,5.5-3.4,7.5c-1.5,2-3.3,3.6-5.4,4.7
				c-2.1,1.1-4.6,1.6-7.3,1.6c-2.4,0-4.6-0.4-6.6-1.3c-2-0.9-3.7-2.3-5.2-4.2c-1.5-1.9-2.6-4.3-3.4-7.3c-0.8-3-1.2-6.5-1.2-10.7
				c0-3.8,0.4-7.1,1.2-10.1c0.8-3,1.9-5.5,3.4-7.5c1.5-2,3.3-3.6,5.5-4.7c2.2-1.1,4.6-1.6,7.3-1.6c2.4,0,4.6,0.4,6.6,1.3
				c2,0.9,3.7,2.3,5.2,4.2c1.4,1.9,2.6,4.3,3.4,7.3C597.8,903.7,598.2,907.3,598.2,911.4z M572.6,911.6c0,0.5,0,0.9,0,1.3
				c0,0.4,0,0.8,0.1,1.2l16.2-12.4c-0.8-2.3-1.8-4-3.1-5.1c-1.3-1.1-2.8-1.7-4.5-1.7c-1.2,0-2.4,0.3-3.4,1c-1.1,0.7-2,1.7-2.8,3.1
				c-0.8,1.4-1.4,3.1-1.9,5.2C572.8,906.3,572.6,908.7,572.6,911.6z M590.1,911.7c0-0.4,0-0.8,0-1.2c0-0.4,0-0.8,0-1.2l-16.1,12.3
				c0.7,2.3,1.7,3.9,3,5c1.3,1.1,2.8,1.6,4.5,1.6c1.2,0,2.4-0.3,3.5-1c1.1-0.7,2-1.7,2.8-3.1c0.8-1.4,1.4-3.1,1.8-5.2
				C589.8,917,590.1,914.5,590.1,911.7z"/>
			<path class="st2" d="M641.3,911.4c0,3.8-0.4,7.1-1.2,10.1c-0.8,3-1.9,5.5-3.4,7.5c-1.5,2-3.3,3.6-5.4,4.7
				c-2.1,1.1-4.6,1.6-7.3,1.6c-2.4,0-4.6-0.4-6.6-1.3c-2-0.9-3.7-2.3-5.2-4.2c-1.5-1.9-2.6-4.3-3.4-7.3c-0.8-3-1.2-6.5-1.2-10.7
				c0-3.8,0.4-7.1,1.2-10.1c0.8-3,1.9-5.5,3.4-7.5c1.5-2,3.3-3.6,5.5-4.7c2.2-1.1,4.6-1.6,7.3-1.6c2.4,0,4.6,0.4,6.6,1.3
				c2,0.9,3.7,2.3,5.2,4.2c1.4,1.9,2.6,4.3,3.4,7.3C640.9,903.7,641.3,907.3,641.3,911.4z M615.7,911.6c0,0.5,0,0.9,0,1.3
				c0,0.4,0,0.8,0.1,1.2l16.2-12.4c-0.8-2.3-1.8-4-3.1-5.1s-2.8-1.7-4.5-1.7c-1.2,0-2.4,0.3-3.4,1c-1.1,0.7-2,1.7-2.8,3.1
				c-0.8,1.4-1.4,3.1-1.9,5.2C616,906.3,615.7,908.7,615.7,911.6z M633.2,911.7c0-0.4,0-0.8,0-1.2c0-0.4,0-0.8,0-1.2L617,921.7
				c0.7,2.3,1.7,3.9,3,5c1.3,1.1,2.8,1.6,4.5,1.6c1.2,0,2.4-0.3,3.5-1c1.1-0.7,2-1.7,2.8-3.1c0.8-1.4,1.4-3.1,1.8-5.2
				C633,917,633.2,914.5,633.2,911.7z"/>
			<path class="st2" d="M684.5,911.4c0,3.8-0.4,7.1-1.2,10.1c-0.8,3-1.9,5.5-3.4,7.5c-1.5,2-3.3,3.6-5.4,4.7
				c-2.1,1.1-4.6,1.6-7.3,1.6c-2.4,0-4.6-0.4-6.6-1.3c-2-0.9-3.7-2.3-5.2-4.2c-1.5-1.9-2.6-4.3-3.4-7.3c-0.8-3-1.2-6.5-1.2-10.7
				c0-3.8,0.4-7.1,1.2-10.1c0.8-3,1.9-5.5,3.4-7.5c1.5-2,3.3-3.6,5.5-4.7c2.2-1.1,4.6-1.6,7.3-1.6c2.4,0,4.6,0.4,6.6,1.3
				c2,0.9,3.7,2.3,5.2,4.2c1.4,1.9,2.6,4.3,3.4,7.3C684,903.7,684.5,907.3,684.5,911.4z M658.9,911.6c0,0.5,0,0.9,0,1.3
				c0,0.4,0,0.8,0.1,1.2l16.2-12.4c-0.8-2.3-1.8-4-3.1-5.1c-1.3-1.1-2.8-1.7-4.5-1.7c-1.2,0-2.4,0.3-3.4,1c-1.1,0.7-2,1.7-2.8,3.1
				s-1.4,3.1-1.9,5.2C659.1,906.3,658.9,908.7,658.9,911.6z M676.3,911.7c0-0.4,0-0.8,0-1.2c0-0.4,0-0.8,0-1.2l-16.1,12.3
				c0.7,2.3,1.7,3.9,3,5c1.3,1.1,2.8,1.6,4.5,1.6c1.2,0,2.4-0.3,3.5-1c1.1-0.7,2-1.7,2.8-3.1c0.8-1.4,1.4-3.1,1.8-5.2
				C676.1,917,676.3,914.5,676.3,911.7z"/>
			<path class="st2" d="M697.1,934.5v-7.6h11v-29.4l-9.6,5.6l-2.6-7l13.7-7.7h6.8v38.5h9.5v7.6H697.1z"/>
			<path class="st2" d="M358.7,975.2c0,3.8-0.4,7.1-1.2,10.1c-0.8,3-1.9,5.5-3.4,7.5c-1.5,2-3.3,3.6-5.4,4.7
				c-2.1,1.1-4.6,1.6-7.3,1.6c-2.4,0-4.6-0.4-6.6-1.3c-2-0.9-3.7-2.3-5.2-4.2c-1.5-1.9-2.6-4.3-3.4-7.3c-0.8-3-1.2-6.5-1.2-10.7
				c0-3.8,0.4-7.1,1.2-10.1c0.8-3,1.9-5.5,3.4-7.5c1.5-2,3.3-3.6,5.5-4.7c2.2-1.1,4.6-1.6,7.3-1.6c2.4,0,4.6,0.4,6.6,1.3
				c2,0.9,3.7,2.3,5.2,4.2c1.4,1.9,2.6,4.3,3.4,7.3S358.7,971.1,358.7,975.2z M333.1,975.4c0,0.5,0,0.9,0,1.3s0,0.8,0.1,1.2
				l16.2-12.4c-0.8-2.3-1.8-4-3.1-5.1c-1.3-1.1-2.8-1.7-4.5-1.7c-1.2,0-2.4,0.3-3.4,1c-1.1,0.7-2,1.7-2.8,3.1
				c-0.8,1.4-1.4,3.1-1.9,5.2C333.3,970.1,333.1,972.5,333.1,975.4z M350.6,975.5c0-0.4,0-0.8,0-1.2c0-0.4,0-0.8,0-1.2l-16.1,12.3
				c0.7,2.3,1.7,3.9,3,5c1.3,1.1,2.8,1.6,4.5,1.6c1.2,0,2.4-0.3,3.5-1c1.1-0.7,2-1.7,2.8-3.1c0.8-1.4,1.4-3.1,1.8-5.2
				C350.4,980.8,350.6,978.3,350.6,975.5z"/>
			<path class="st2" d="M371.4,998.3v-7.6h11v-29.4l-9.6,5.6l-2.6-7l13.7-7.7h6.8v38.5h9.5v7.6H371.4z"/>
			<path class="st2" d="M445,975.2c0,3.8-0.4,7.1-1.2,10.1c-0.8,3-1.9,5.5-3.4,7.5c-1.5,2-3.3,3.6-5.4,4.7c-2.1,1.1-4.6,1.6-7.3,1.6
				c-2.4,0-4.6-0.4-6.6-1.3c-2-0.9-3.7-2.3-5.2-4.2c-1.5-1.9-2.6-4.3-3.4-7.3s-1.2-6.5-1.2-10.7c0-3.8,0.4-7.1,1.2-10.1
				c0.8-3,1.9-5.5,3.4-7.5c1.5-2,3.3-3.6,5.5-4.7c2.2-1.1,4.6-1.6,7.3-1.6c2.4,0,4.6,0.4,6.6,1.3c2,0.9,3.7,2.3,5.2,4.2
				c1.4,1.9,2.6,4.3,3.4,7.3S445,971.1,445,975.2z M419.4,975.4c0,0.5,0,0.9,0,1.3s0,0.8,0.1,1.2l16.2-12.4c-0.8-2.3-1.8-4-3.1-5.1
				c-1.3-1.1-2.8-1.7-4.5-1.7c-1.2,0-2.4,0.3-3.4,1c-1.1,0.7-2,1.7-2.8,3.1c-0.8,1.4-1.4,3.1-1.9,5.2
				C419.6,970.1,419.4,972.5,419.4,975.4z M436.8,975.5c0-0.4,0-0.8,0-1.2c0-0.4,0-0.8,0-1.2l-16.1,12.3c0.7,2.3,1.7,3.9,3,5
				c1.3,1.1,2.8,1.6,4.5,1.6c1.2,0,2.4-0.3,3.5-1c1.1-0.7,2-1.7,2.8-3.1c0.8-1.4,1.4-3.1,1.8-5.2
				C436.6,980.8,436.8,978.3,436.8,975.5z"/>
			<path class="st2" d="M457.6,998.3v-7.6h11v-29.4l-9.6,5.6l-2.6-7l13.7-7.7h6.8v38.5h9.5v7.6H457.6z"/>
			<path class="st2" d="M531.2,975.2c0,3.8-0.4,7.1-1.2,10.1c-0.8,3-1.9,5.5-3.4,7.5c-1.5,2-3.3,3.6-5.4,4.7
				c-2.1,1.1-4.6,1.6-7.3,1.6c-2.4,0-4.6-0.4-6.6-1.3c-2-0.9-3.7-2.3-5.2-4.2c-1.5-1.9-2.6-4.3-3.4-7.3c-0.8-3-1.2-6.5-1.2-10.7
				c0-3.8,0.4-7.1,1.2-10.1c0.8-3,1.9-5.5,3.4-7.5c1.5-2,3.3-3.6,5.5-4.7c2.2-1.1,4.6-1.6,7.3-1.6c2.4,0,4.6,0.4,6.6,1.3
				c2,0.9,3.7,2.3,5.2,4.2c1.4,1.9,2.6,4.3,3.4,7.3S531.2,971.1,531.2,975.2z M505.6,975.4c0,0.5,0,0.9,0,1.3s0,0.8,0.1,1.2
				l16.2-12.4c-0.8-2.3-1.8-4-3.1-5.1c-1.3-1.1-2.8-1.7-4.5-1.7c-1.2,0-2.4,0.3-3.4,1c-1.1,0.7-2,1.7-2.8,3.1
				c-0.8,1.4-1.4,3.1-1.9,5.2C505.8,970.1,505.6,972.5,505.6,975.4z M523.1,975.5c0-0.4,0-0.8,0-1.2c0-0.4,0-0.8,0-1.2l-16.1,12.3
				c0.7,2.3,1.7,3.9,3,5c1.3,1.1,2.8,1.6,4.5,1.6c1.2,0,2.4-0.3,3.5-1c1.1-0.7,2-1.7,2.8-3.1c0.8-1.4,1.4-3.1,1.8-5.2
				C522.9,980.8,523.1,978.3,523.1,975.5z"/>
			<path class="st2" d="M543.9,998.3v-7.6h11v-29.4l-9.6,5.6l-2.6-7l13.7-7.7h6.8v38.5h9.5v7.6H543.9z"/>
		</g>
	</g>
	
		<ellipse transform="matrix(0.9951 -9.861375e-02 9.861375e-02 0.9951 -43.6669 47.7905)" class="st3" cx="461.6" cy="465.6" rx="629.2" ry="624.8"/>
	<g class="st4">
		<path class="st5" d="M-35.6,541.2l37.5-7.6l3,13l-24.1,5.6l15.3,65.5l-111.3,26l-3.4-14.6l98.2-22.9l-9.5-40.5l-98.2,22.9
			l-3.4-14.6l98.2-22.9L-35.6,541.2z"/>
		<path class="st5" d="M-138.8,504.1l86.4-1.5l-87.2-43.9l-0.3-14.2l114.3-2l0.3,14.9l-86.3,1.5l87.1,43.8l0.3,14.3l-114.2,2
			L-138.8,504.1z"/>
		<path class="st5" d="M-13,370.6l-2.7,13.5l-11.2-2.2c-1.5,5.3-3.5,10-6.2,14.1c-2.7,4.1-6.1,7.4-10.3,9.9
			c-4.2,2.5-9.3,4.1-15.3,4.7c-6,0.7-13,0.2-21.2-1.4c-8.2-1.6-14.9-3.9-20.2-6.9c-5.3-3-9.4-6.5-12.4-10.5c-3-4-5-8.4-6-13.2
			c-1-4.8-1.4-9.7-1.1-14.8l-11.4-2.2l2.7-13.5l11.4,2.2c1.6-5.7,3.9-10.6,6.8-14.7c3-4.1,6.6-7.3,11-9.7c4.4-2.4,9.4-3.8,15.3-4.4
			c5.8-0.6,12.3-0.1,19.5,1.3c8.2,1.6,14.9,4,20.2,7.1c5.3,3.2,9.4,6.8,12.5,10.9c3,4.1,5.1,8.5,6.1,13.3c1.1,4.7,1.4,9.5,1.1,14.4
			L-13,370.6z M-106.6,366.2c-0.3,3.9,0.1,7.4,1.3,10.5c1.1,3.1,2.9,5.8,5.4,8.1c2.5,2.3,5.5,4.3,9.2,5.9c3.7,1.6,8,2.9,12.8,3.8
			c5.8,1.1,10.9,1.6,15.2,1.5c4.3-0.2,7.9-0.9,11-2.3c3-1.3,5.5-3.2,7.4-5.7c1.9-2.4,3.4-5.4,4.5-8.8L-106.6,366.2z M-37.1,365.9
			c0.2-3.9-0.2-7.4-1.4-10.5c-1.2-3.1-3-5.9-5.6-8.2s-5.6-4.4-9.2-6c-3.5-1.6-7.7-2.9-12.6-3.8c-4.9-1-9.4-1.4-13.3-1.3
			c-4,0.1-7.6,0.7-10.9,1.9c-3.3,1.2-6.2,3-8.5,5.5c-2.3,2.5-4.1,5.6-5.3,9.4L-37.1,365.9z"/>
		<path class="st5" d="M-43.2,212.3c4.3,1.8,8.2,4.4,11.7,7.8s6.3,7.4,8.2,12c1.9,4.7,2.8,10,2.7,15.9c-0.1,5.9-1.7,12.4-4.7,19.4
			l-5.4,12.5l37.7,16.2l-5.9,13.7l-104.9-45.2l12.2-28.4c2.1-5,4.8-9.5,7.9-13.6c3.1-4.1,6.7-7.3,10.8-9.7c4.1-2.4,8.6-3.7,13.5-4
			C-54.4,208.7-49,209.8-43.2,212.3z M-48.7,226.8c-6.7-2.9-12.8-3-18.2-0.3c-5.4,2.7-9.8,7.8-13,15.5l-6,14l43.2,18.6l5.5-12.8
			c3.5-8.1,4.3-15.2,2.5-21.2S-41.2,230-48.7,226.8z"/>
		<path class="st5" d="M42.1,120.4c8.4,5.9,15,11.9,19.8,18c4.8,6.2,8.1,12.3,9.8,18.3c1.7,6,2.1,11.9,1,17.6
			c-1.1,5.7-3.3,10.9-6.6,15.8c-4,5.8-8.6,10.1-13.8,12.9c-5.2,2.8-10.8,4.2-16.9,4.1c-6.1,0-12.6-1.4-19.4-4.1
			c-6.9-2.7-14-6.7-21.4-11.8c-8.3-5.8-14.9-11.7-19.7-17.9C-30,167.1-33.2,161-35,155c-1.7-6-2.1-11.9-1-17.5
			c1.1-5.7,3.3-10.9,6.6-15.7c4-5.8,8.6-10.1,13.8-12.8c5.2-2.8,10.8-4.2,16.9-4.2c6.1,0,12.5,1.3,19.4,4
			C27.6,111.4,34.7,115.3,42.1,120.4z M34.1,133.8c-5.5-3.8-10.8-6.9-16-9.3c-5.1-2.4-10-3.8-14.5-4.3c-4.5-0.5-8.7,0-12.5,1.6
			c-3.8,1.6-7.1,4.3-9.8,8.3c-2.7,3.9-4,7.9-4,12c0,4.1,1.1,8.2,3.1,12.3c2.1,4.1,5.1,8.1,8.9,12.1c3.9,4,8.3,7.7,13.3,11.2
			c5.6,3.9,10.9,7,16.1,9.3c5.1,2.3,10,3.8,14.5,4.3c4.5,0.5,8.6,0,12.4-1.6c3.8-1.5,7-4.3,9.8-8.2c2.7-3.9,4-7.9,4-12
			c0-4.2-1-8.3-3.1-12.4c-2.1-4.1-5-8.2-8.9-12.1C43.7,141.1,39.2,137.4,34.1,133.8z"/>
		<path class="st5" d="M138,60.2c3.7,4,6.2,8.3,7.6,12.8c1.4,4.5,1.6,9.1,0.8,13.8c-0.8,4.7-2.7,9.4-5.6,14.2
			c-2.9,4.7-6.8,9.3-11.6,13.8l-21.1,19.5l-77.4-84l23.1-21.3c18-16.6,33.3-18,45.8-4.4c4.2,4.5,6.7,9.4,7.7,14.6
			c0.9,5.2-0.2,10.7-3.5,16.6c2.6-1.6,5.3-2.8,8.2-3.5c2.9-0.8,5.8-1,8.8-0.8c3,0.3,5.9,1.1,8.9,2.5C132.7,55.3,135.5,57.5,138,60.2
			z M89.7,36.5c-1.6-1.7-3.3-3.1-5.2-4.2s-4-1.6-6.2-1.5c-2.2,0-4.7,0.7-7.4,2c-2.7,1.3-5.6,3.4-8.9,6.4L50.7,49.7L74.9,76l11-10.1
			c2.5-2.3,4.5-4.7,6.1-7.1c1.5-2.4,2.5-4.9,2.9-7.4c0.4-2.5,0.2-5-0.6-7.5C93.4,41.4,91.9,38.9,89.7,36.5z M126.7,71.4
			c-2-2.1-4.2-3.7-6.6-4.6c-2.4-0.9-5-1.2-7.8-0.9c-2.7,0.3-5.6,1.3-8.5,2.8c-3,1.5-5.9,3.7-8.9,6.4L83.7,85.5l26.7,28.9l11.6-10.7
			c6.3-5.8,9.9-11.3,10.7-16.6C133.5,81.8,131.5,76.6,126.7,71.4z"/>
		<path class="st5" d="M256,26.2l-14,8.3l-19.2-17.6L183.4,40l6,25.4L176,73.3l-26.6-117l17.7-10.4L256,26.2z M212,7l-47-43.2
			l15,62.1L212,7z"/>
		<path class="st5" d="M273.3-16.6c0.1-3.4,0.4-6.2,1-8.3c0.6-2.1,1.2-4,2-5.6c0.8-1.6,1.6-3,2.7-4.1c1-1.2,2-2.1,3-2.9
			c-3.3,0.4-6.4,0.2-9.4-0.7c-3-0.8-5.7-2.2-8.1-4.1c-2.4-1.9-4.6-4.2-6.4-7c-1.8-2.8-3.3-5.8-4.4-9.1c-1.6-4.8-2.3-9.3-2.3-13.7
			c0-4.4,1-8.5,3-12.4c1.9-3.8,4.9-7.3,9-10.5c4.1-3.2,9.4-5.8,16.1-8.1l25.9-8.6l36,108.5l-14.3,4.8L312-43.4l-10.8,3.6
			c-2.1,0.7-3.9,1.5-5.5,2.5c-1.6,1-2.9,2.2-4,3.7c-1.1,1.5-1.9,3.3-2.4,5.5c-0.6,2.2-0.8,4.7-0.8,7.7l-0.1,34.7l-15.9,5.3
			L273.3-16.6z M268.2-64.3c1.1,3.4,2.5,6.1,4.2,8.3c1.7,2.1,3.7,3.8,6,4.9c2.3,1.1,4.9,1.7,7.9,1.7c2.9,0,6.1-0.6,9.6-1.7l12.2-4
			l-13-39.3l-12.8,4.2c-6.8,2.3-11.4,5.6-13.7,10.1C266.3-75.8,266.1-70.5,268.2-64.3z"/>
		<path class="st5" d="M742.9,70.4l-16.2-9.6l-6.6-69.2l-28.7,48.2l-12.8-7.6L737-66.1l12.8,7.6l-27.1,45.6l61.7-25l15.2,9.1
			l-65,24.5L742.9,70.4z"/>
		<path class="st5" d="M824.3,143.1L812.4,132l11.4-23.4l-33.4-31.1l-22.6,13l-11.4-10.6L861,21l15,14L824.3,143.1z M830.2,95.4
			l28.1-57.4L803,70.1L830.2,95.4z"/>
		<path class="st5" d="M860.3,195.9l-7.8-11.3l9.4-6.5c-2.8-4.7-4.7-9.5-5.7-14.2c-1-4.8-1-9.5,0.1-14.3c1.1-4.8,3.6-9.5,7.3-14.2
			c3.7-4.7,9-9.5,15.8-14.2c6.9-4.7,13.2-7.9,19-9.6c5.8-1.7,11.2-2.2,16.2-1.5c5,0.7,9.5,2.3,13.6,4.9c4.1,2.6,7.9,5.8,11.4,9.6
			l9.6-6.6l7.8,11.3l-9.6,6.6c3,5.1,4.9,10.1,5.7,15.1c0.9,5,0.6,9.9-0.7,14.6c-1.3,4.8-3.8,9.4-7.5,14c-3.7,4.6-8.5,8.9-14.5,13.1
			c-6.9,4.7-13.3,7.9-19.2,9.5c-6,1.6-11.4,2-16.5,1.3c-5-0.7-9.6-2.3-13.8-4.9c-4.1-2.6-7.8-5.6-11.1-9.2L860.3,195.9z
			 M928.7,131.9c-2.6-3-5.4-5.1-8.4-6.4c-3-1.3-6.2-1.9-9.6-1.8c-3.4,0.1-6.9,0.9-10.7,2.5c-3.7,1.5-7.6,3.7-11.7,6.5
			c-4.9,3.4-8.8,6.7-11.6,9.8c-2.9,3.2-4.9,6.3-6,9.4c-1.2,3.1-1.5,6.2-1.1,9.3c0.4,3.1,1.4,6.2,3.1,9.4L928.7,131.9z M880.5,181.9
			c2.6,2.9,5.5,5,8.5,6.3c3,1.3,6.3,1.9,9.8,1.7c3.5-0.2,7.1-1,10.7-2.4c3.6-1.4,7.5-3.5,11.6-6.3c4.1-2.8,7.5-5.7,10.3-8.6
			c2.7-2.9,4.8-5.9,6.3-9.2c1.5-3.2,2.1-6.5,2-9.9c-0.2-3.4-1.1-6.8-3-10.3L880.5,181.9z"/>
		<path class="st5" d="M918.8,309.5l-23.6-57.7l105.7-43.3l23.6,57.7l-12.1,5l-18-43.9l-32.8,13.4l17.3,42.2l-12.1,5l-17.3-42.2
			l-36.4,14.9l18,43.9L918.8,309.5z"/>
		<path class="st5" d="M956.1,420.8l-37.5,5.5l-2.3-13.1l24.4-4.3l-10.9-61.3l-24.4,4.3l-2.3-13.1l37.1-7.7l0.2,1.2
			c0.3,1.8,1.2,3.5,2.6,5.1c1.4,1.6,3.7,2.9,6.8,4.1c3.1,1.1,7.2,2,12.3,2.6c5.1,0.6,11.4,0.9,19,0.8c7.6-0.1,16.6-0.6,26.9-1.5
			c10.4-0.9,22.4-2.4,36.2-4.3l9.3,52.2L954,408.9L956.1,420.8z M1037.7,378.8l-4.2-23.9c-12,1.7-22.9,3.1-32.8,4
			c-9.9,0.9-18.6,1.4-26.1,1.4c-7.5,0-13.9-0.5-18.9-1.5c-5.1-1-8.9-2.5-11.3-4.6l7.1,39.9L1037.7,378.8z"/>
		<path class="st5" d="M1020.5,522.5c-4.7-0.2-9.2-1.2-13.8-3c-4.5-1.8-8.5-4.6-12-8.2c-3.5-3.7-6.3-8.3-8.3-13.8
			c-2-5.6-2.9-12.1-2.7-19.8l0.5-13.6l-41-1.5l0.5-14.9l114.2,4.1l-1.1,30.9c-0.2,5.4-1,10.6-2.4,15.5c-1.4,4.9-3.6,9.2-6.5,12.9
			c-2.9,3.7-6.7,6.6-11.2,8.6C1032.2,521.8,1026.8,522.8,1020.5,522.5z M1020.3,507c7.3,0.3,13-1.8,17.1-6.3
			c4.1-4.5,6.3-10.9,6.5-19.1l0.5-15.3l-47-1.7l-0.5,13.9c-0.3,8.8,1.4,15.7,5.3,20.6S1012.2,506.7,1020.3,507z"/>
		<path class="st5" d="M916.6,628.7l4-15.8l26-1.3l11.2-44.3l-22.3-13.6l3.8-15.1l101.8,63.4l-5,19.9L916.6,628.7z M961.1,610.9
			l63.8-3l-54.7-33L961.1,610.9z"/>
	</g>
	<g class="st4">
		
			<rect x="142.1" y="866.2" transform="matrix(0.9366 -0.3504 0.3504 0.9366 -323.705 143.5283)" class="st6" width="185.4" height="200.3"/>
		<text transform="matrix(0.8631 0.421 -0.4384 0.8988 139.8032 976.9611)" class="st5 st7 st8 st9">П</text>
	</g>
	<g class="st4">
		
			<rect x="263" y="940.4" transform="matrix(0.1908 -0.9816 0.9816 0.1908 -720.2816 1192.4684)" class="st6" width="200.3" height="185.4"/>
		<text transform="matrix(0.9426 0.1832 -0.1908 0.9816 267.7485 1038.4443)" class="st5 st7 st10 st9">Г</text>
	</g>
	<g class="st4">
		<rect x="415.2" y="938.9" class="st6" width="185.4" height="200.3"/>
		<text transform="matrix(0.9603 0 0 1 415.1915 1062.4379)" class="st5 st7 st8 st9">У</text>
	</g>
	<g class="st4">
		
			<rect x="681.2" y="860.3" transform="matrix(0.9336 -0.3584 0.3584 0.9336 -292.787 341.1333)" class="st6" width="185.4" height="200.3"/>
		<text transform="matrix(0.8965 -0.3441 0.3584 0.9336 695.8053 1015.5402)" class="st5 st7 st11 st9">С</text>
	</g>
	<g class="st4">
		<g class="st12">
			<path class="st13" d="M645.5,1035.4L631,1039l-24.3-97.5L563,952.4l24.3,97.5l-14.5,3.6l-27.6-110.9l72.7-18.1L645.5,1035.4z"/>
		</g>
	</g>
	<g>
		<g>
			<defs>
				<rect id="SVGID_00000036209086881713825830000017680491197236042386_" x="-128.1" y="-128.8" width="1157" height="1186.3"/>
			</defs>
			<clipPath id="SVGID_00000163779293410161058940000000061765010588543148_">
				<use xlink:href="#SVGID_00000036209086881713825830000017680491197236042386_"  style="overflow:visible;"/>
			</clipPath>
			<path style="opacity:0.78;clip-path:url(#SVGID_00000163779293410161058940000000061765010588543148_);fill:#76C488;" d="
				M207.3,452.8c9.2-7.2,22.6-9.5,38.1-5.5c15.5,4,32.1,14.2,45.4,30.3l22.9-17.8c-16.8-20.3-38.5-34.2-60.7-39.9
				c-22.2-5.7-45.9-3.4-64.1,10.8L207.3,452.8z M214.3,537.3c-13.3-16-20-34-20.7-49.5c-0.7-15.6,4.6-27.7,13.8-34.9L189,430.6
				c-18.3,14.2-25.7,36.2-24.7,58.4c1,22.2,10.3,45.9,27.1,66.1L214.3,537.3z M297.8,562c-9.2,7.2-22.6,9.5-38.1,5.5
				c-15.5-4-32.1-14.2-45.4-30.3l-22.9,17.8c16.8,20.3,38.5,34.2,60.7,39.9c22.2,5.7,45.9,3.4,64.1-10.8L297.8,562z M290.9,477.6
				c13.3,16,20,34,20.7,49.5c0.7,15.6-4.6,27.7-13.8,34.9l18.4,22.2c18.3-14.2,25.7-36.2,24.7-58.4c-1-22.2-10.3-45.9-27.1-66.1
				L290.9,477.6z"/>
			<path style="opacity:0.78;clip-path:url(#SVGID_00000163779293410161058940000000061765010588543148_);fill:#76C488;" d="
				M659.9,270.2c11.6,0.2,23.2,6.7,32.1,19.5c8.9,12.8,14.4,31.2,13.5,52l29.1,0.4c1.1-26.2-5.8-50.7-18.4-69
				c-12.7-18.3-31.9-31.3-55.1-31.6L659.9,270.2z M608.4,340.4c0.9-20.8,7.9-39,17.8-51.5c10-12.6,22-18.8,33.7-18.6l1.2-28.7
				c-23.2-0.3-43.5,12.1-57.7,30c-14.2,17.9-23.1,42.1-24.1,68.4L608.4,340.4z M654.1,411.8c-11.6-0.2-23.2-6.7-32.1-19.5
				c-8.9-12.8-14.4-31.2-13.5-52l-29.1-0.4c-1.1,26.2,5.8,50.7,18.4,69c12.7,18.3,31.9,31.3,55.1,31.6L654.1,411.8z M705.6,341.7
				c-0.9,20.8-7.9,39-17.8,51.5c-10,12.6-22,18.8-33.7,18.6l-1.2,28.7c23.2,0.3,43.5-12.1,57.7-30c14.2-17.9,23.1-42.1,24.1-68.4
				L705.6,341.7z"/>
			<path style="opacity:0.78;clip-path:url(#SVGID_00000163779293410161058940000000061765010588543148_);fill:#76C488;" d="
				M274.2,266.7c10.6-6,25-6.3,40.9,0.9c15.9,7.2,32.1,21.3,43.8,41.1l25.3-14.4c-14.4-24.3-34.9-42.8-56.9-52.7
				c-22-9.9-46.8-11.7-67.9,0.3L274.2,266.7z M269.6,359.6c-11.8-19.8-16.4-40.5-14.9-57.6c1.5-17.1,8.8-29.3,19.4-35.3L259.5,242
				c-21.1,12-31.8,34-33.8,57.6c-2.1,23.6,4.3,50.1,18.7,74.4L269.6,359.6z M354.4,401.7c-10.6,6-25,6.3-40.9-0.9
				c-15.9-7.2-32.1-21.3-43.8-41.1L244.4,374c14.4,24.3,34.9,42.8,56.9,52.7c22,9.9,46.8,11.7,67.9-0.3L354.4,401.7z M358.9,308.7
				c11.8,19.8,16.4,40.5,14.9,57.6c-1.5,17.1-8.8,29.3-19.4,35.3l14.7,24.7c21.1-12,31.8-34,33.8-57.6c2.1-23.6-4.3-50.1-18.7-74.4
				L358.9,308.7z"/>
			<path style="opacity:0.78;clip-path:url(#SVGID_00000163779293410161058940000000061765010588543148_);fill:#76C488;" d="
				M473.3,186.4c12-1.6,25.2,3.7,36.9,16.5c11.6,12.8,20.6,32.3,23.3,55.4l28.9-3.8c-3.3-28.2-14.4-53.3-30.4-71
				c-16-17.6-37.9-28.8-62.1-25.6L473.3,186.4z M431.4,271.9c-2.7-23.1,1.6-44.3,9.9-59.8c8.4-15.5,20-24.1,32-25.7l-3.3-28.5
				c-24.1,3.2-42.9,19.8-54.3,41.1c-11.5,21.3-16.5,48.5-13.2,76.7L431.4,271.9z M491.6,343.8c-12,1.6-25.2-3.7-36.9-16.5
				c-11.6-12.8-20.6-32.3-23.3-55.4l-28.9,3.8c3.3,28.2,14.4,53.3,30.4,71c16,17.6,37.9,28.8,62.1,25.6L491.6,343.8z M533.5,258.3
				c2.7,23.1-1.6,44.3-9.9,59.8c-8.4,15.5-20,24.1-32,25.7l3.3,28.5c24.1-3.2,42.9-19.8,54.3-41.1c11.5-21.3,16.5-48.5,13.2-76.7
				L533.5,258.3z"/>
			<path style="opacity:0.78;clip-path:url(#SVGID_00000163779293410161058940000000061765010588543148_);fill:#76C488;" d="
				M509.8,701.8c-7.4,8.5-13.6,16-20.7,21.6l18.3,22.2c10-7.8,18.4-18,24.9-25.5L509.8,701.8z M537.9,679
				c-3.8,2.3-9.2,6.3-14.2,10.2c-4.8,3.8-10.5,8.6-13.9,12.6l22.5,18.3c1.5-1.7,5.1-5,9.9-8.8c4.6-3.6,9-6.8,11.3-8.2L537.9,679z
				 M360.5,681.2c-1.5-13.2,0.7-27,6.5-40l-26.9-11.4c-7.8,17.4-10.9,36.2-8.8,54.5L360.5,681.2z M375.4,716.5
				c-8.2-10-13.4-22.2-14.9-35.4l-29.2,3.2c2.1,18.4,9.3,35.6,21.1,49.9L375.4,716.5z M407.6,738.5c-12.9-4.4-24-12-32.2-22
				l-23,17.8c11.7,14.3,27.4,25,45.4,31.1L407.6,738.5z M449.2,741.3c-14.4,2.6-28.7,1.6-41.6-2.8l-9.7,26.9
				c18,6.1,37.6,7.4,56.8,3.9L449.2,741.3z M489.1,723.4c-11.8,9.1-25.5,15.3-39.9,17.9l5.4,28c19.2-3.5,37.4-11.7,52.8-23.7
				L489.1,723.4z M521.1,711l11.3,9.1L521.1,711z M498.3,734.5l-9.2-11.1L498.3,734.5z M553.6,703.1c6.9-4.2,8.9-13,4.6-19.6
				c-4.3-6.6-13.4-8.6-20.3-4.4L553.6,703.1z"/>
			<path style="opacity:0.78;clip-path:url(#SVGID_00000163779293410161058940000000061765010588543148_);fill:#76C488;" d="
				M620.3,671c-7.1-1.7-17.6-3.6-28.4-4.4c-10.3-0.7-23.1-0.5-33.5,3.7l11.4,26.2c3.7-1.5,10.6-2.2,19.9-1.5
				c8.7,0.6,17.6,2.2,23.6,3.6L620.3,671z M673.7,649.8c-18,14-37.7,21.2-56.5,20.8l-0.7,28.5c27.1,0.6,53.3-9.8,75.5-27.1
				L673.7,649.8z M612,501.8c25.5,8.5,40.3,12.6,52.3,17.9c10.7,4.7,18.3,10.1,27.3,21l22.9-17.8c-11.8-14.3-23-22.5-38-29.1
				c-13.7-6-31.6-11.1-54.9-18.9L612,501.8z M691.7,540.8c25.7,31.1,19.3,80-18,109L692,672c48.1-37.5,59.8-104.1,22.5-149.1
				L691.7,540.8z M616.9,684.9l-3.4,13.8l1.5,0.4l1.6,0L616.9,684.9z"/>
			<path style="opacity:0.78;clip-path:url(#SVGID_00000163779293410161058940000000061765010588543148_);fill:#76C488;" d="
				M512.5,442.6c3.5,2.4,7.1,5.2,11.1,8.4c3.8,3,8,6.5,12,9.5l17.6-22.9c-3.4-2.5-6.9-5.4-11.1-8.7c-4-3.2-8.4-6.7-12.9-9.8
				L512.5,442.6z M449.1,437.2c21.7-10.8,46.4-6.1,63.5,5.4l16.7-23.6c-23.9-16.2-60.1-24-93.3-7.4L449.1,437.2z M404.2,522.5
				c4.4-23.7,7.5-40.7,13.8-54.4c5.8-12.7,14.4-22.6,31-30.9l-13.2-25.5c-22.6,11.3-35.9,26.1-44.5,44.8
				c-8.1,17.6-11.7,38.6-15.9,61L404.2,522.5z M520.8,430.8l-8.3,11.8L520.8,430.8z"/>
			<path style="opacity:0.78;clip-path:url(#SVGID_00000163779293410161058940000000061765010588543148_);fill:#76C488;" d="
				M546.4,675.5c-13.9,6.1-23.7,13.6-30.2,19.8c-3.2,3.1-5.6,5.9-7.3,8c-0.8,1-1.5,1.9-1.9,2.6c-0.2,0.3-0.4,0.6-0.6,0.8
				c-0.1,0.1-0.1,0.2-0.2,0.3c0,0-0.1,0.1-0.1,0.1c0,0,0,0,0,0c0,0,0,0,0,0c0,0,0,0,0,0c0,0,0,0,12.6,7.1s12.6,7.1,12.6,7.1
				c0,0,0,0,0,0c0,0,0,0,0,0c0,0,0,0,0,0c0,0,0,0,0,0c0,0,0,0,0,0c0,0,0-0.1,0.1-0.2c0.2-0.2,0.5-0.6,0.9-1.2c0.9-1.1,2.4-2.9,4.6-5
				c4.3-4.1,11.2-9.5,21.3-13.9L546.4,675.5z M614.5,670.6c0.2,0-0.3,0-4.7-1.1c-3.6-0.9-8.6-2.1-14.7-2.7
				c-12.6-1.3-28.6,0.1-48.7,8.9l11.8,25.8c15.3-6.7,25.9-7.2,33.2-6.4c3.8,0.4,7.1,1.2,10.5,2c2.5,0.6,7.6,2.1,12.2,2L614.5,670.6z
				 M552.2,688.4l5.9,12.9L552.2,688.4z"/>
			<path style="opacity:0.78;clip-path:url(#SVGID_00000163779293410161058940000000061765010588543148_);fill:#76C488;" d="
				M580.6,488.7c15.9,7.9,33.9,14.4,47.8,19c7,2.3,13,4.1,17.2,5.4c2.1,0.6,3.8,1.1,5,1.4c0.6,0.2,1.1,0.3,1.4,0.4
				c0.2,0,0.3,0.1,0.4,0.1c0,0,0.1,0,0.1,0c0,0,0,0,0,0c0,0,0,0,0,0c0,0,0,0,0,0c0,0,0,0,4-13.9c4-13.9,4-13.9,4-13.9c0,0,0,0,0,0
				c0,0,0,0,0,0c0,0,0,0,0,0c0,0,0,0-0.1,0c-0.1,0-0.2,0-0.3-0.1c-0.3-0.1-0.7-0.2-1.2-0.3c-1.1-0.3-2.7-0.7-4.7-1.3
				c-4-1.2-9.7-2.9-16.3-5.1c-13.3-4.4-29.9-10.5-44-17.5L580.6,488.7z M521.8,431.7c-9.4,11.1-9.4,11.1-9.4,11.1c0,0,0,0,0,0
				c0,0,0,0,0,0c0,0,0,0,0,0c0,0,0.1,0,0.1,0.1c0.1,0.1,0.2,0.2,0.3,0.3c0.3,0.2,0.7,0.6,1.2,1c1.1,0.9,2.6,2.1,4.6,3.6
				c3.9,3.1,9.4,7.3,15.9,12c12.8,9.3,30,20.9,46.1,28.9L594,463c-13.9-6.9-29.5-17.4-41.9-26.4c-6.1-4.5-11.4-8.5-15.1-11.4
				c-1.8-1.4-3.3-2.6-4.3-3.4c-0.5-0.4-0.9-0.7-1.1-0.9c-0.1-0.1-0.2-0.2-0.3-0.2c0,0,0,0-0.1-0.1c0,0,0,0,0,0c0,0,0,0,0,0
				c0,0,0,0,0,0C531.3,420.6,531.3,420.6,521.8,431.7z"/>
			<path style="opacity:0.78;clip-path:url(#SVGID_00000163779293410161058940000000061765010588543148_);fill:#76C488;" d="
				M332.8,654.5l10.8-31.8l27.7,9l-10.8,31.8L332.8,654.5z M370.4,633.7c-3.6,7-6,14-7.5,19.2c-0.7,2.6-1.2,4.8-1.5,6.2
				c-0.1,0.7-0.2,1.3-0.3,1.6c0,0.2,0,0.3-0.1,0.3c0,0,0,0,0,0c0,0,0,0,0,0c0,0,0,0,0,0c0,0,0,0,0,0c0,0,0,0,0,0c0,0,0,0-14.4-2.1
				s-14.4-2.1-14.4-2.1c0,0,0,0,0,0c0,0,0,0,0,0c0,0,0,0,0,0c0,0,0,0,0-0.1c0-0.1,0-0.1,0-0.2c0-0.2,0.1-0.4,0.1-0.7
				c0.1-0.6,0.3-1.4,0.5-2.4c0.4-2,1-4.7,2-8c1.8-6.6,4.8-15.5,9.6-24.7L370.4,633.7z M388.3,593.4c-5.1,14.4-11.8,28.6-17.9,40.3
				l-26-13c5.7-11,11.8-24,16.3-36.7L388.3,593.4z M392.2,504.4c14.5,1.6,14.5,1.6,14.5,1.6c0,0,0,0,0,0c0,0,0,0,0,0c0,0,0,0,0,0
				c0,0,0,0.1,0,0.1c0,0.1,0,0.3-0.1,0.5c0,0.4-0.1,1-0.2,1.8c-0.2,1.5-0.5,3.7-0.9,6.4c-0.8,5.5-1.9,13.1-3.4,21.7
				c-3,17.1-7.6,39.2-13.8,56.8l-27.5-9.4c5.4-15.3,9.7-35.4,12.6-52.2c1.4-8.3,2.5-15.6,3.3-20.8c0.4-2.6,0.6-4.7,0.8-6.1
				c0.1-0.7,0.2-1.3,0.2-1.6c0-0.2,0-0.3,0-0.4c0,0,0-0.1,0-0.1c0,0,0,0,0,0c0,0,0,0,0,0c0,0,0,0,0,0
				C377.7,502.8,377.7,502.8,392.2,504.4z M346.7,659l13.8,4.5l-28.3-6.6L346.7,659z M374.6,588.7l13.8,4.7L374.6,588.7z"/>
			<g style="clip-path:url(#SVGID_00000163779293410161058940000000061765010588543148_);">
				<defs>
					<rect id="SVGID_00000045593371690154414250000018344001286181339808_" x="-164.5" y="-138.9" width="1237.6" height="1239.8"/>
				</defs>
				<clipPath id="SVGID_00000001630223717695501430000017904621270880563096_">
					<use xlink:href="#SVGID_00000045593371690154414250000018344001286181339808_"  style="overflow:visible;"/>
				</clipPath>
				<g transform="matrix(1 0 0 1 0 0)" style="clip-path:url(#SVGID_00000001630223717695501430000017904621270880563096_);">
					
						<image style="overflow:visible;" width="423" height="433" xlink:href="91EFFDD7.png"  transform="matrix(2.9257 0 0 2.8632 -164.5168 -138.8845)">
					</image>
				</g>
			</g>
			<g style="clip-path:url(#SVGID_00000163779293410161058940000000061765010588543148_);">
				<defs>
					<rect id="SVGID_00000107555836815100722520000000006434815600475314_" x="40.1" y="61.5" width="828.4" height="839"/>
				</defs>
				<clipPath id="SVGID_00000104671335539493344230000013863627708390499993_">
					<use xlink:href="#SVGID_00000107555836815100722520000000006434815600475314_"  style="overflow:visible;"/>
				</clipPath>
				<g style="clip-path:url(#SVGID_00000104671335539493344230000013863627708390499993_);">
					
						<image style="overflow:visible;" width="283" height="293" xlink:href="91EFFDD5.png"  transform="matrix(2.9272 0 0 2.8636 40.0663 61.4706)">
					</image>
				</g>
			</g>
			<g style="clip-path:url(#SVGID_00000163779293410161058940000000061765010588543148_);">
				<defs>
					<rect id="SVGID_00000142164754861625833480000007863172426138320517_" x="69.3" y="90.1" width="769.9" height="781.8"/>
				</defs>
				<clipPath id="SVGID_00000041978227535055182930000013097549045900884878_">
					<use xlink:href="#SVGID_00000142164754861625833480000007863172426138320517_"  style="overflow:visible;"/>
				</clipPath>
				<g transform="matrix(1 0 0 1 0 0)" style="clip-path:url(#SVGID_00000041978227535055182930000013097549045900884878_);">
					
						<image style="overflow:visible;" width="263" height="273" xlink:href="91EFFDDB.png"  transform="matrix(2.9275 0 0 2.8637 69.2925 90.0928)">
					</image>
				</g>
			</g>
			<path style="opacity:0.93;clip-path:url(#SVGID_00000163779293410161058940000000061765010588543148_);fill:#DEEFE1;" d="
				M207.3,452.8c9.2-7.2,22.6-9.5,38.1-5.5c15.5,4,32.1,14.2,45.4,30.3l22.9-17.8c-16.8-20.3-38.5-34.2-60.7-39.9
				c-22.2-5.7-45.9-3.4-64.1,10.8L207.3,452.8z M214.3,537.3c-13.3-16-20-34-20.7-49.5c-0.7-15.6,4.6-27.7,13.8-34.9L189,430.6
				c-18.3,14.2-25.7,36.2-24.7,58.4c1,22.2,10.3,45.9,27.1,66.1L214.3,537.3z M297.8,562c-9.2,7.2-22.6,9.5-38.1,5.5
				c-15.5-4-32.1-14.2-45.4-30.3l-22.9,17.8c16.8,20.3,38.5,34.2,60.7,39.9c22.2,5.7,45.9,3.4,64.1-10.8L297.8,562z M290.9,477.6
				c13.3,16,20,34,20.7,49.5c0.7,15.6-4.6,27.7-13.8,34.9l18.4,22.2c18.3-14.2,25.7-36.2,24.7-58.4c-1-22.2-10.3-45.9-27.1-66.1
				L290.9,477.6z"/>
			<path style="opacity:0.93;clip-path:url(#SVGID_00000163779293410161058940000000061765010588543148_);fill:#DEEFE1;" d="
				M659.9,270.2c11.6,0.2,23.2,6.7,32.1,19.5c8.9,12.8,14.4,31.2,13.5,52l29.1,0.4c1.1-26.2-5.8-50.7-18.4-69
				c-12.7-18.3-31.9-31.3-55.1-31.6L659.9,270.2z M608.4,340.4c0.9-20.8,7.9-39,17.8-51.5c10-12.6,22-18.8,33.7-18.6l1.2-28.7
				c-23.2-0.3-43.5,12.1-57.7,30c-14.2,17.9-23.1,42.1-24.1,68.4L608.4,340.4z M654.1,411.8c-11.6-0.2-23.2-6.7-32.1-19.5
				c-8.9-12.8-14.4-31.2-13.5-52l-29.1-0.4c-1.1,26.2,5.8,50.7,18.4,69c12.7,18.3,31.9,31.3,55.1,31.6L654.1,411.8z M705.6,341.7
				c-0.9,20.8-7.9,39-17.8,51.5c-10,12.6-22,18.8-33.7,18.6l-1.2,28.7c23.2,0.3,43.5-12.1,57.7-30c14.2-17.9,23.1-42.1,24.1-68.4
				L705.6,341.7z"/>
			<path style="opacity:0.93;clip-path:url(#SVGID_00000163779293410161058940000000061765010588543148_);fill:#DEEFE1;" d="
				M274.2,266.7c10.6-6,25-6.3,40.9,0.9c15.9,7.2,32.1,21.3,43.8,41.1l25.3-14.4c-14.4-24.3-34.9-42.8-56.9-52.7
				c-22-9.9-46.8-11.7-67.9,0.3L274.2,266.7z M269.6,359.6c-11.8-19.8-16.4-40.5-14.9-57.6c1.5-17.1,8.8-29.3,19.4-35.3L259.5,242
				c-21.1,12-31.8,34-33.8,57.6c-2.1,23.6,4.3,50.1,18.7,74.4L269.6,359.6z M354.4,401.7c-10.6,6-25,6.3-40.9-0.9
				c-15.9-7.2-32.1-21.3-43.8-41.1L244.4,374c14.4,24.3,34.9,42.8,56.9,52.7c22,9.9,46.8,11.7,67.9-0.3L354.4,401.7z M358.9,308.7
				c11.8,19.8,16.4,40.5,14.9,57.6c-1.5,17.1-8.8,29.3-19.4,35.3l14.7,24.7c21.1-12,31.8-34,33.8-57.6c2.1-23.6-4.3-50.1-18.7-74.4
				L358.9,308.7z"/>
			<path style="opacity:0.93;clip-path:url(#SVGID_00000163779293410161058940000000061765010588543148_);fill:#DEEFE1;" d="
				M473.3,186.4c12-1.6,25.2,3.7,36.9,16.5c11.6,12.8,20.6,32.3,23.3,55.4l28.9-3.8c-3.3-28.2-14.4-53.3-30.4-71
				c-16-17.6-37.9-28.8-62.1-25.6L473.3,186.4z M431.4,271.9c-2.7-23.1,1.6-44.3,9.9-59.8c8.4-15.5,20-24.1,32-25.7l-3.3-28.5
				c-24.1,3.2-42.9,19.8-54.3,41.1c-11.5,21.3-16.5,48.5-13.2,76.7L431.4,271.9z M491.6,343.8c-12,1.6-25.2-3.7-36.9-16.5
				c-11.6-12.8-20.6-32.3-23.3-55.4l-28.9,3.8c3.3,28.2,14.4,53.3,30.4,71c16,17.6,37.9,28.8,62.1,25.6L491.6,343.8z M533.5,258.3
				c2.7,23.1-1.6,44.3-9.9,59.8c-8.4,15.5-20,24.1-32,25.7l3.3,28.5c24.1-3.2,42.9-19.8,54.3-41.1c11.5-21.3,16.5-48.5,13.2-76.7
				L533.5,258.3z"/>
			<path style="opacity:0.93;clip-path:url(#SVGID_00000163779293410161058940000000061765010588543148_);fill:#DEEFE1;" d="
				M509.8,701.8c-7.4,8.5-13.6,16-20.7,21.6l18.3,22.2c10-7.8,18.4-18,24.9-25.5L509.8,701.8z M537.9,679
				c-3.8,2.3-9.2,6.3-14.2,10.2c-4.8,3.8-10.5,8.6-13.9,12.6l22.5,18.3c1.5-1.7,5.1-5,9.9-8.8c4.6-3.6,9-6.8,11.3-8.2L537.9,679z
				 M360.5,681.2c-1.5-13.2,0.7-27,6.5-40l-26.9-11.4c-7.8,17.4-10.9,36.2-8.8,54.5L360.5,681.2z M375.4,716.5
				c-8.2-10-13.4-22.2-14.9-35.4l-29.2,3.2c2.1,18.4,9.3,35.6,21.1,49.9L375.4,716.5z M407.6,738.5c-12.9-4.4-24-12-32.2-22
				l-23,17.8c11.7,14.3,27.4,25,45.4,31.1L407.6,738.5z M449.2,741.3c-14.4,2.6-28.7,1.6-41.6-2.8l-9.7,26.9
				c18,6.1,37.6,7.4,56.8,3.9L449.2,741.3z M489.1,723.4c-11.8,9.1-25.5,15.3-39.9,17.9l5.4,28c19.2-3.5,37.4-11.7,52.8-23.7
				L489.1,723.4z M521.1,711l11.3,9.1L521.1,711z M498.3,734.5l-9.2-11.1L498.3,734.5z M553.6,703.1c6.9-4.2,8.9-13,4.6-19.6
				c-4.3-6.6-13.4-8.6-20.3-4.4L553.6,703.1z"/>
			<path style="opacity:0.93;clip-path:url(#SVGID_00000163779293410161058940000000061765010588543148_);fill:#DEEFE1;" d="
				M620.3,671c-7.1-1.7-17.6-3.6-28.4-4.4c-10.3-0.7-23.1-0.5-33.5,3.7l11.4,26.2c3.7-1.5,10.6-2.2,19.9-1.5
				c8.7,0.6,17.6,2.2,23.6,3.6L620.3,671z M673.7,649.8c-18,14-37.7,21.2-56.5,20.8l-0.7,28.5c27.1,0.6,53.3-9.8,75.5-27.1
				L673.7,649.8z M612,501.8c25.5,8.5,40.3,12.6,52.3,17.9c10.7,4.7,18.3,10.1,27.3,21l22.9-17.8c-11.8-14.3-23-22.5-38-29.1
				c-13.7-6-31.6-11.1-54.9-18.9L612,501.8z M691.7,540.8c25.7,31.1,19.3,80-18,109L692,672c48.1-37.5,59.8-104.1,22.5-149.1
				L691.7,540.8z M616.9,684.9l-3.4,13.8l1.5,0.4l1.6,0L616.9,684.9z"/>
			<path style="opacity:0.93;clip-path:url(#SVGID_00000163779293410161058940000000061765010588543148_);fill:#DEEFE1;" d="
				M512.5,442.6c3.5,2.4,7.1,5.2,11.1,8.4c3.8,3,8,6.5,12,9.5l17.6-22.9c-3.4-2.5-6.9-5.4-11.1-8.7c-4-3.2-8.4-6.7-12.9-9.8
				L512.5,442.6z M449.1,437.2c21.7-10.8,46.4-6.1,63.5,5.4l16.7-23.6c-23.9-16.2-60.1-24-93.3-7.4L449.1,437.2z M404.2,522.5
				c4.4-23.7,7.5-40.7,13.8-54.4c5.8-12.7,14.4-22.6,31-30.9l-13.2-25.5c-22.6,11.3-35.9,26.1-44.5,44.8
				c-8.1,17.6-11.7,38.6-15.9,61L404.2,522.5z M520.8,430.8l-8.3,11.8L520.8,430.8z"/>
			<path style="opacity:0.93;clip-path:url(#SVGID_00000163779293410161058940000000061765010588543148_);fill:#DEEFE1;" d="
				M546.4,675.5c-13.9,6.1-23.7,13.6-30.2,19.8c-3.2,3.1-5.6,5.9-7.3,8c-0.8,1-1.5,1.9-1.9,2.6c-0.2,0.3-0.4,0.6-0.6,0.8
				c-0.1,0.1-0.1,0.2-0.2,0.3c0,0-0.1,0.1-0.1,0.1c0,0,0,0,0,0c0,0,0,0,0,0c0,0,0,0,0,0c0,0,0,0,12.6,7.1s12.6,7.1,12.6,7.1
				c0,0,0,0,0,0c0,0,0,0,0,0c0,0,0,0,0,0c0,0,0,0,0,0c0,0,0,0,0,0c0,0,0-0.1,0.1-0.2c0.2-0.2,0.5-0.6,0.9-1.2c0.9-1.1,2.4-2.9,4.6-5
				c4.3-4.1,11.2-9.5,21.3-13.9L546.4,675.5z M614.5,670.6c0.2,0-0.3,0-4.7-1.1c-3.6-0.9-8.6-2.1-14.7-2.7
				c-12.6-1.3-28.6,0.1-48.7,8.9l11.8,25.8c15.3-6.7,25.9-7.2,33.2-6.4c3.8,0.4,7.1,1.2,10.5,2c2.5,0.6,7.6,2.1,12.2,2L614.5,670.6z
				 M552.2,688.4l5.9,12.9L552.2,688.4z"/>
			<path style="opacity:0.93;clip-path:url(#SVGID_00000163779293410161058940000000061765010588543148_);fill:#DEEFE1;" d="
				M580.6,488.7c15.9,7.9,33.9,14.4,47.8,19c7,2.3,13,4.1,17.2,5.4c2.1,0.6,3.8,1.1,5,1.4c0.6,0.2,1.1,0.3,1.4,0.4
				c0.2,0,0.3,0.1,0.4,0.1c0,0,0.1,0,0.1,0c0,0,0,0,0,0c0,0,0,0,0,0c0,0,0,0,0,0c0,0,0,0,4-13.9c4-13.9,4-13.9,4-13.9c0,0,0,0,0,0
				c0,0,0,0,0,0c0,0,0,0,0,0c0,0,0,0-0.1,0c-0.1,0-0.2,0-0.3-0.1c-0.3-0.1-0.7-0.2-1.2-0.3c-1.1-0.3-2.7-0.7-4.7-1.3
				c-4-1.2-9.7-2.9-16.3-5.1c-13.3-4.4-29.9-10.5-44-17.5L580.6,488.7z M521.8,431.7c-9.4,11.1-9.4,11.1-9.4,11.1c0,0,0,0,0,0
				c0,0,0,0,0,0c0,0,0,0,0,0c0,0,0.1,0,0.1,0.1c0.1,0.1,0.2,0.2,0.3,0.3c0.3,0.2,0.7,0.6,1.2,1c1.1,0.9,2.6,2.1,4.6,3.6
				c3.9,3.1,9.4,7.3,15.9,12c12.8,9.3,30,20.9,46.1,28.9L594,463c-13.9-6.9-29.5-17.4-41.9-26.4c-6.1-4.5-11.4-8.5-15.1-11.4
				c-1.8-1.4-3.3-2.6-4.3-3.4c-0.5-0.4-0.9-0.7-1.1-0.9c-0.1-0.1-0.2-0.2-0.3-0.2c0,0,0,0-0.1-0.1c0,0,0,0,0,0c0,0,0,0,0,0
				c0,0,0,0,0,0C531.3,420.6,531.3,420.6,521.8,431.7z"/>
			<path style="opacity:0.93;clip-path:url(#SVGID_00000163779293410161058940000000061765010588543148_);fill:#DEEFE1;" d="
				M332.8,654.5l10.8-31.8l27.7,9l-10.8,31.8L332.8,654.5z M370.4,633.7c-3.6,7-6,14-7.5,19.2c-0.7,2.6-1.2,4.8-1.5,6.2
				c-0.1,0.7-0.2,1.3-0.3,1.6c0,0.2,0,0.3-0.1,0.3c0,0,0,0,0,0c0,0,0,0,0,0c0,0,0,0,0,0c0,0,0,0,0,0c0,0,0,0,0,0c0,0,0,0-14.4-2.1
				s-14.4-2.1-14.4-2.1c0,0,0,0,0,0c0,0,0,0,0,0c0,0,0,0,0,0c0,0,0,0,0-0.1c0-0.1,0-0.1,0-0.2c0-0.2,0.1-0.4,0.1-0.7
				c0.1-0.6,0.3-1.4,0.5-2.4c0.4-2,1-4.7,2-8c1.8-6.6,4.8-15.5,9.6-24.7L370.4,633.7z M388.3,593.4c-5.1,14.4-11.8,28.6-17.9,40.3
				l-26-13c5.7-11,11.8-24,16.3-36.7L388.3,593.4z M392.2,504.4c14.5,1.6,14.5,1.6,14.5,1.6c0,0,0,0,0,0c0,0,0,0,0,0c0,0,0,0,0,0
				c0,0,0,0.1,0,0.1c0,0.1,0,0.3-0.1,0.5c0,0.4-0.1,1-0.2,1.8c-0.2,1.5-0.5,3.7-0.9,6.4c-0.8,5.5-1.9,13.1-3.4,21.7
				c-3,17.1-7.6,39.2-13.8,56.8l-27.5-9.4c5.4-15.3,9.7-35.4,12.6-52.2c1.4-8.3,2.5-15.6,3.3-20.8c0.4-2.6,0.6-4.7,0.8-6.1
				c0.1-0.7,0.2-1.3,0.2-1.6c0-0.2,0-0.3,0-0.4c0,0,0-0.1,0-0.1c0,0,0,0,0,0c0,0,0,0,0,0c0,0,0,0,0,0
				C377.7,502.8,377.7,502.8,392.2,504.4z M346.7,659l13.8,4.5l-28.3-6.6L346.7,659z M374.6,588.7l13.8,4.7L374.6,588.7z"/>
		</g>
	</g>
</g>
</svg>
