<?xml version="1.0" encoding="utf-8"?>
<!-- Generator: Adobe Illustrator 26.0.2, SVG Export Plug-In . SVG Version: 6.00 Build 0)  -->
<svg version="1.1" id="Слой_1" xmlns="http://www.w3.org/2000/svg" xmlns:xlink="http://www.w3.org/1999/xlink" x="0px" y="0px"
	 viewBox="0 0 866.6 858.7" style="enable-background:new 0 0 866.6 858.7;" xml:space="preserve">
<style type="text/css">
	.st0{fill:#3C8A56;}
	.st1{clip-path:url(#SVGID_00000142881987114926185490000008032701574469868709_);}
	.st2{opacity:0.89;fill:#FFFFFF;}
	.st3{fill:none;stroke:#3B8C58;stroke-width:6;stroke-miterlimit:10;}
	.st4{opacity:0.89;fill:#3B8C58;}
	.st5{fill:none;}
	.st6{font-family:'Consolas';}
	.st7{font-size:121px;}
	.st8{letter-spacing:10.4;}
	.st9{opacity:0.78;clip-path:url(#SVGID_00000081612175213572614540000000630912901861563802_);fill:#76C488;}
	.st10{clip-path:url(#SVGID_00000081612175213572614540000000630912901861563802_);}
	.st11{opacity:0.93;clip-path:url(#SVGID_00000081612175213572614540000000630912901861563802_);fill:#DEEFE1;}
</style>
<g>
	<ellipse class="st0" cx="434.7" cy="430.9" rx="307.7" ry="312.6"/>
	<g>
		<defs>
			<ellipse id="SVGID_1_" cx="434.7" cy="430.9" rx="307.7" ry="312.6"/>
		</defs>
		<clipPath id="SVGID_00000182496514946899901370000000310139741602266770_">
			<use xlink:href="#SVGID_1_"  style="overflow:visible;"/>
		</clipPath>
		<g style="clip-path:url(#SVGID_00000182496514946899901370000000310139741602266770_);">
			<path class="st2" d="M405.8,84.2c0,2.5-0.3,4.8-0.8,6.8c-0.5,2-1.3,3.7-2.3,5.1c-1,1.4-2.2,2.4-3.7,3.2c-1.4,0.7-3.1,1.1-5,1.1
				c-1.6,0-3.1-0.3-4.4-0.9c-1.4-0.6-2.5-1.5-3.5-2.8c-1-1.3-1.8-2.9-2.3-4.9s-0.8-4.4-0.8-7.2c0-2.5,0.3-4.8,0.8-6.8
				c0.5-2,1.3-3.7,2.3-5.1c1-1.4,2.2-2.4,3.7-3.2c1.5-0.7,3.1-1.1,5-1.1c1.6,0,3.1,0.3,4.4,0.9c1.4,0.6,2.5,1.5,3.5,2.8
				c1,1.3,1.7,2.9,2.3,4.9S405.8,81.4,405.8,84.2z M388.5,84.3c0,0.3,0,0.6,0,0.9s0,0.6,0,0.8l11-8.4c-0.5-1.6-1.2-2.7-2.1-3.5
				c-0.9-0.7-1.9-1.1-3-1.1c-0.8,0-1.6,0.2-2.3,0.7c-0.7,0.5-1.3,1.1-1.9,2.1c-0.5,0.9-0.9,2.1-1.3,3.5
				C388.6,80.7,388.5,82.4,388.5,84.3z M400.3,84.4c0-0.3,0-0.5,0-0.8c0-0.3,0-0.5,0-0.8l-10.9,8.3c0.5,1.5,1.1,2.7,2,3.4
				c0.9,0.7,1.9,1.1,3,1.1c0.8,0,1.6-0.2,2.3-0.7c0.7-0.5,1.3-1.1,1.9-2.1c0.5-0.9,0.9-2.1,1.2-3.5C400.1,88,400.3,86.3,400.3,84.4z
				"/>
			<path class="st2" d="M414.3,99.8v-5.1h7.4V74.8l-6.5,3.8l-1.8-4.7l9.3-5.2h4.6v26h6.4v5.1H414.3z"/>
			<path class="st2" d="M464.1,84.2c0,2.5-0.3,4.8-0.8,6.8c-0.5,2-1.3,3.7-2.3,5.1c-1,1.4-2.2,2.4-3.7,3.2c-1.4,0.7-3.1,1.1-5,1.1
				c-1.6,0-3.1-0.3-4.4-0.9c-1.4-0.6-2.5-1.5-3.5-2.8c-1-1.3-1.8-2.9-2.3-4.9s-0.8-4.4-0.8-7.2c0-2.5,0.3-4.8,0.8-6.8
				c0.5-2,1.3-3.7,2.3-5.1c1-1.4,2.2-2.4,3.7-3.2c1.5-0.7,3.1-1.1,5-1.1c1.6,0,3.1,0.3,4.4,0.9c1.4,0.6,2.5,1.5,3.5,2.8
				c1,1.3,1.7,2.9,2.3,4.9S464.1,81.4,464.1,84.2z M446.8,84.3c0,0.3,0,0.6,0,0.9s0,0.6,0,0.8l11-8.4c-0.5-1.6-1.2-2.7-2.1-3.5
				c-0.9-0.7-1.9-1.1-3-1.1c-0.8,0-1.6,0.2-2.3,0.7c-0.7,0.5-1.3,1.1-1.9,2.1c-0.5,0.9-0.9,2.1-1.3,3.5
				C446.9,80.7,446.8,82.4,446.8,84.3z M458.6,84.4c0-0.3,0-0.5,0-0.8c0-0.3,0-0.5,0-0.8l-10.9,8.3c0.5,1.5,1.1,2.7,2,3.4
				c0.9,0.7,1.9,1.1,3,1.1c0.8,0,1.6-0.2,2.3-0.7c0.7-0.5,1.3-1.1,1.9-2.1c0.5-0.9,0.9-2.1,1.2-3.5C458.4,88,458.6,86.3,458.6,84.4z
				"/>
			<path class="st2" d="M257.5,142.9v-5.1h7.4v-19.9l-6.5,3.8l-1.8-4.7l9.3-5.2h4.6v26h6.4v5.1H257.5z"/>
			<path class="st2" d="M286.6,142.9v-5.1h7.4v-19.9l-6.5,3.8l-1.8-4.7l9.3-5.2h4.6v26h6.4v5.1H286.6z"/>
			<path class="st2" d="M315.8,142.9v-5.1h7.4v-19.9l-6.5,3.8l-1.8-4.7l9.3-5.2h4.6v26h6.4v5.1H315.8z"/>
			<path class="st2" d="M344.9,142.9v-5.1h7.4v-19.9l-6.5,3.8l-1.8-4.7l9.3-5.2h4.6v26h6.4v5.1H344.9z"/>
			<path class="st2" d="M374.1,142.9v-5.1h7.4v-19.9l-6.5,3.8l-1.8-4.7l9.3-5.2h4.6v26h6.4v5.1H374.1z"/>
			<path class="st2" d="M403.2,142.9v-5.1h7.4v-19.9l-6.5,3.8l-1.8-4.7l9.3-5.2h4.6v26h6.4v5.1H403.2z"/>
			<path class="st2" d="M432.3,142.9v-5.1h7.4v-19.9l-6.5,3.8l-1.8-4.7l9.3-5.2h4.6v26h6.4v5.1H432.3z"/>
			<path class="st2" d="M461.5,142.9v-5.1h7.4v-19.9l-6.5,3.8l-1.8-4.7l9.3-5.2h4.6v26h6.4v5.1H461.5z"/>
			<path class="st2" d="M490.6,142.9v-5.1h7.4v-19.9l-6.5,3.8l-1.8-4.7l9.3-5.2h4.6v26h6.4v5.1H490.6z"/>
			<path class="st2" d="M519.8,142.9v-5.1h7.4v-19.9l-6.5,3.8L519,117l9.3-5.2h4.6v26h6.4v5.1H519.8z"/>
			<path class="st2" d="M548.9,142.9v-5.1h7.4v-19.9l-6.5,3.8l-1.8-4.7l9.3-5.2h4.6v26h6.4v5.1H548.9z"/>
			<path class="st2" d="M578.1,142.9v-5.1h7.4v-19.9l-6.5,3.8l-1.8-4.7l9.3-5.2h4.6v26h6.4v5.1H578.1z"/>
			<path class="st2" d="M196.7,186v-5.1h7.4V161l-6.5,3.8l-1.8-4.7l9.3-5.2h4.6v26h6.4v5.1H196.7z"/>
			<path class="st2" d="M225.9,186v-5.1h7.4V161l-6.5,3.8l-1.8-4.7l9.3-5.2h4.6v26h6.4v5.1H225.9z"/>
			<path class="st2" d="M255,186v-5.1h7.4V161l-6.5,3.8l-1.8-4.7l9.3-5.2h4.6v26h6.4v5.1H255z"/>
			<path class="st2" d="M284.2,186v-5.1h7.4V161l-6.5,3.8l-1.8-4.7l9.3-5.2h4.6v26h6.4v5.1H284.2z"/>
			<path class="st2" d="M333.9,170.4c0,2.5-0.3,4.8-0.8,6.8c-0.5,2-1.3,3.7-2.3,5.1c-1,1.4-2.2,2.4-3.7,3.2c-1.4,0.7-3.1,1.1-5,1.1
				c-1.6,0-3.1-0.3-4.4-0.9c-1.4-0.6-2.5-1.5-3.5-2.8c-1-1.3-1.8-2.9-2.3-4.9s-0.8-4.4-0.8-7.2c0-2.5,0.3-4.8,0.8-6.8
				c0.5-2,1.3-3.7,2.3-5.1c1-1.4,2.2-2.4,3.7-3.2c1.5-0.7,3.1-1.1,5-1.1c1.6,0,3.1,0.3,4.4,0.9c1.4,0.6,2.5,1.5,3.5,2.8
				c1,1.3,1.7,2.9,2.3,4.9S333.9,167.6,333.9,170.4z M316.6,170.5c0,0.3,0,0.6,0,0.9s0,0.6,0,0.8l11-8.4c-0.5-1.6-1.2-2.7-2.1-3.5
				c-0.9-0.7-1.9-1.1-3-1.1c-0.8,0-1.6,0.2-2.3,0.7c-0.7,0.5-1.3,1.1-1.9,2.1c-0.5,0.9-0.9,2.1-1.3,3.5
				C316.7,166.9,316.6,168.6,316.6,170.5z M328.4,170.6c0-0.3,0-0.5,0-0.8c0-0.3,0-0.5,0-0.8l-10.9,8.3c0.5,1.5,1.1,2.7,2,3.4
				c0.9,0.7,1.9,1.1,3,1.1c0.8,0,1.6-0.2,2.3-0.7c0.7-0.5,1.3-1.1,1.9-2.1c0.5-0.9,0.9-2.1,1.2-3.5
				C328.2,174.2,328.4,172.5,328.4,170.6z"/>
			<path class="st2" d="M342.4,186v-5.1h7.4V161l-6.5,3.8l-1.8-4.7l9.3-5.2h4.6v26h6.4v5.1H342.4z"/>
			<path class="st2" d="M371.6,186v-5.1h7.4V161l-6.5,3.8l-1.8-4.7l9.3-5.2h4.6v26h6.4v5.1H371.6z"/>
			<path class="st2" d="M400.7,186v-5.1h7.4V161l-6.5,3.8l-1.8-4.7l9.3-5.2h4.6v26h6.4v5.1H400.7z"/>
			<path class="st2" d="M450.5,170.4c0,2.5-0.3,4.8-0.8,6.8c-0.5,2-1.3,3.7-2.3,5.1c-1,1.4-2.2,2.4-3.7,3.2c-1.4,0.7-3.1,1.1-5,1.1
				c-1.6,0-3.1-0.3-4.4-0.9c-1.4-0.6-2.5-1.5-3.5-2.8c-1-1.3-1.8-2.9-2.3-4.9s-0.8-4.4-0.8-7.2c0-2.5,0.3-4.8,0.8-6.8
				c0.5-2,1.3-3.7,2.3-5.1c1-1.4,2.2-2.4,3.7-3.2c1.5-0.7,3.1-1.1,5-1.1c1.6,0,3.1,0.3,4.4,0.9c1.4,0.6,2.5,1.5,3.5,2.8
				c1,1.3,1.7,2.9,2.3,4.9S450.5,167.6,450.5,170.4z M433.2,170.5c0,0.3,0,0.6,0,0.9s0,0.6,0,0.8l11-8.4c-0.5-1.6-1.2-2.7-2.1-3.5
				c-0.9-0.7-1.9-1.1-3-1.1c-0.8,0-1.6,0.2-2.3,0.7c-0.7,0.5-1.3,1.1-1.9,2.1c-0.5,0.9-0.9,2.1-1.3,3.5
				C433.3,166.9,433.2,168.6,433.2,170.5z M445,170.6c0-0.3,0-0.5,0-0.8c0-0.3,0-0.5,0-0.8l-10.9,8.3c0.5,1.5,1.1,2.7,2,3.4
				c0.9,0.7,1.9,1.1,3,1.1c0.8,0,1.6-0.2,2.3-0.7c0.7-0.5,1.3-1.1,1.9-2.1c0.5-0.9,0.9-2.1,1.2-3.5C444.8,174.2,445,172.5,445,170.6
				z"/>
			<path class="st2" d="M459,186v-5.1h7.4V161l-6.5,3.8l-1.8-4.7l9.3-5.2h4.6v26h6.4v5.1H459z"/>
			<path class="st2" d="M488.2,186v-5.1h7.4V161l-6.5,3.8l-1.8-4.7l9.3-5.2h4.6v26h6.4v5.1H488.2z"/>
			<path class="st2" d="M517.3,186v-5.1h7.4V161l-6.5,3.8l-1.8-4.7l9.3-5.2h4.6v26h6.4v5.1H517.3z"/>
			<path class="st2" d="M546.5,186v-5.1h7.4V161l-6.5,3.8l-1.8-4.7l9.3-5.2h4.6v26h6.4v5.1H546.5z"/>
			<path class="st2" d="M575.6,186v-5.1h7.4V161l-6.5,3.8l-1.8-4.7l9.3-5.2h4.6v26h6.4v5.1H575.6z"/>
			<path class="st2" d="M604.8,186v-5.1h7.4V161l-6.5,3.8l-1.8-4.7l9.3-5.2h4.6v26h6.4v5.1H604.8z"/>
			<path class="st2" d="M633.9,186v-5.1h7.4V161l-6.5,3.8l-1.8-4.7l9.3-5.2h4.6v26h6.4v5.1H633.9z"/>
			<path class="st2" d="M155,229.2V224h7.4v-19.9l-6.5,3.8l-1.8-4.7l9.3-5.2h4.6v26h6.4v5.1H155z"/>
			<path class="st2" d="M184.1,229.2V224h7.4v-19.9l-6.5,3.8l-1.8-4.7l9.3-5.2h4.6v26h6.4v5.1H184.1z"/>
			<path class="st2" d="M233.8,213.6c0,2.5-0.3,4.8-0.8,6.8c-0.5,2-1.3,3.7-2.3,5.1c-1,1.4-2.2,2.4-3.7,3.2c-1.4,0.7-3.1,1.1-5,1.1
				c-1.6,0-3.1-0.3-4.4-0.9c-1.4-0.6-2.5-1.5-3.5-2.8c-1-1.3-1.8-2.9-2.3-4.9s-0.8-4.4-0.8-7.2c0-2.5,0.3-4.8,0.8-6.8
				c0.5-2,1.3-3.7,2.3-5.1c1-1.4,2.2-2.4,3.7-3.2c1.5-0.7,3.1-1.1,5-1.1c1.6,0,3.1,0.3,4.4,0.9c1.4,0.6,2.5,1.5,3.5,2.8
				c1,1.3,1.7,2.9,2.3,4.9S233.8,210.7,233.8,213.6z M216.5,213.6c0,0.3,0,0.6,0,0.9s0,0.6,0,0.8l11-8.4c-0.5-1.6-1.2-2.7-2.1-3.5
				c-0.9-0.7-1.9-1.1-3-1.1c-0.8,0-1.6,0.2-2.3,0.7c-0.7,0.5-1.3,1.1-1.9,2.1c-0.5,0.9-0.9,2.1-1.3,3.5
				C216.7,210.1,216.5,211.7,216.5,213.6z M228.3,213.7c0-0.3,0-0.5,0-0.8c0-0.3,0-0.5,0-0.8l-10.9,8.3c0.5,1.5,1.1,2.7,2,3.4
				c0.9,0.7,1.9,1.1,3,1.1c0.8,0,1.6-0.2,2.3-0.7c0.7-0.5,1.3-1.1,1.9-2.1c0.5-0.9,0.9-2.1,1.2-3.5
				C228.2,217.3,228.3,215.7,228.3,213.7z"/>
			<path class="st2" d="M242.4,229.2V224h7.4v-19.9l-6.5,3.8l-1.8-4.7l9.3-5.2h4.6v26h6.4v5.1H242.4z"/>
			<path class="st2" d="M271.5,229.2V224h7.4v-19.9l-6.5,3.8l-1.8-4.7l9.3-5.2h4.6v26h6.4v5.1H271.5z"/>
			<path class="st2" d="M300.7,229.2V224h7.4v-19.9l-6.5,3.8l-1.8-4.7l9.3-5.2h4.6v26h6.4v5.1H300.7z"/>
			<path class="st2" d="M329.8,229.2V224h7.4v-19.9l-6.5,3.8l-1.8-4.7l9.3-5.2h4.6v26h6.4v5.1H329.8z"/>
			<path class="st2" d="M359,229.2V224h7.4v-19.9l-6.5,3.8l-1.8-4.7l9.3-5.2h4.6v26h6.4v5.1H359z"/>
			<path class="st2" d="M388.1,229.2V224h7.4v-19.9l-6.5,3.8l-1.8-4.7l9.3-5.2h4.6v26h6.4v5.1H388.1z"/>
			<path class="st2" d="M417.3,229.2V224h7.4v-19.9l-6.5,3.8l-1.8-4.7l9.3-5.2h4.6v26h6.4v5.1H417.3z"/>
			<path class="st2" d="M446.4,229.2V224h7.4v-19.9l-6.5,3.8l-1.8-4.7l9.3-5.2h4.6v26h6.4v5.1H446.4z"/>
			<path class="st2" d="M496.1,213.6c0,2.5-0.3,4.8-0.8,6.8c-0.5,2-1.3,3.7-2.3,5.1c-1,1.4-2.2,2.4-3.7,3.2c-1.4,0.7-3.1,1.1-5,1.1
				c-1.6,0-3.1-0.3-4.4-0.9c-1.4-0.6-2.5-1.5-3.5-2.8c-1-1.3-1.8-2.9-2.3-4.9s-0.8-4.4-0.8-7.2c0-2.5,0.3-4.8,0.8-6.8
				c0.5-2,1.3-3.7,2.3-5.1c1-1.4,2.2-2.4,3.7-3.2c1.5-0.7,3.1-1.1,5-1.1c1.6,0,3.1,0.3,4.4,0.9c1.4,0.6,2.5,1.5,3.5,2.8
				c1,1.3,1.7,2.9,2.3,4.9S496.1,210.7,496.1,213.6z M478.8,213.6c0,0.3,0,0.6,0,0.9s0,0.6,0,0.8l11-8.4c-0.5-1.6-1.2-2.7-2.1-3.5
				c-0.9-0.7-1.9-1.1-3-1.1c-0.8,0-1.6,0.2-2.3,0.7c-0.7,0.5-1.3,1.1-1.9,2.1c-0.5,0.9-0.9,2.1-1.3,3.5
				C479,210.1,478.8,211.7,478.8,213.6z M490.6,213.7c0-0.3,0-0.5,0-0.8c0-0.3,0-0.5,0-0.8l-10.9,8.3c0.5,1.5,1.1,2.7,2,3.4
				c0.9,0.7,1.9,1.1,3,1.1c0.8,0,1.6-0.2,2.3-0.7c0.7-0.5,1.3-1.1,1.9-2.1c0.5-0.9,0.9-2.1,1.2-3.5
				C490.5,217.3,490.6,215.7,490.6,213.7z"/>
			<path class="st2" d="M504.7,229.2V224h7.4v-19.9l-6.5,3.8l-1.8-4.7l9.3-5.2h4.6v26h6.4v5.1H504.7z"/>
			<path class="st2" d="M533.8,229.2V224h7.4v-19.9l-6.5,3.8l-1.8-4.7l9.3-5.2h4.6v26h6.4v5.1H533.8z"/>
			<path class="st2" d="M563,229.2V224h7.4v-19.9l-6.5,3.8l-1.8-4.7l9.3-5.2h4.6v26h6.4v5.1H563z"/>
			<path class="st2" d="M592.1,229.2V224h7.4v-19.9l-6.5,3.8l-1.8-4.7l9.3-5.2h4.6v26h6.4v5.1H592.1z"/>
			<path class="st2" d="M621.3,229.2V224h7.4v-19.9l-6.5,3.8l-1.8-4.7l9.3-5.2h4.6v26h6.4v5.1H621.3z"/>
			<path class="st2" d="M650.4,229.2V224h7.4v-19.9l-6.5,3.8l-1.8-4.7l9.3-5.2h4.6v26h6.4v5.1H650.4z"/>
			<path class="st2" d="M700.2,213.6c0,2.5-0.3,4.8-0.8,6.8c-0.5,2-1.3,3.7-2.3,5.1c-1,1.4-2.2,2.4-3.7,3.2c-1.4,0.7-3.1,1.1-5,1.1
				c-1.6,0-3.1-0.3-4.4-0.9c-1.4-0.6-2.5-1.5-3.5-2.8c-1-1.3-1.8-2.9-2.3-4.9s-0.8-4.4-0.8-7.2c0-2.5,0.3-4.8,0.8-6.8
				c0.5-2,1.3-3.7,2.3-5.1c1-1.4,2.2-2.4,3.7-3.2c1.5-0.7,3.1-1.1,5-1.1c1.6,0,3.1,0.3,4.4,0.9c1.4,0.6,2.5,1.5,3.5,2.8
				c1,1.3,1.7,2.9,2.3,4.9S700.2,210.7,700.2,213.6z M682.9,213.6c0,0.3,0,0.6,0,0.9s0,0.6,0,0.8l11-8.4c-0.5-1.6-1.2-2.7-2.1-3.5
				c-0.9-0.7-1.9-1.1-3-1.1c-0.8,0-1.6,0.2-2.3,0.7c-0.7,0.5-1.3,1.1-1.9,2.1c-0.5,0.9-0.9,2.1-1.3,3.5
				C683,210.1,682.9,211.7,682.9,213.6z M694.7,213.7c0-0.3,0-0.5,0-0.8c0-0.3,0-0.5,0-0.8l-10.9,8.3c0.5,1.5,1.1,2.7,2,3.4
				c0.9,0.7,1.9,1.1,3,1.1c0.8,0,1.6-0.2,2.3-0.7c0.7-0.5,1.3-1.1,1.9-2.1c0.5-0.9,0.9-2.1,1.2-3.5
				C694.5,217.3,694.7,215.7,694.7,213.7z"/>
			<path class="st2" d="M124.4,272.3v-5.1h7.4v-19.9l-6.5,3.8l-1.8-4.7l9.3-5.2h4.6v26h6.4v5.1H124.4z"/>
			<path class="st2" d="M153.6,272.3v-5.1h7.4v-19.9l-6.5,3.8l-1.8-4.7l9.3-5.2h4.6v26h6.4v5.1H153.6z"/>
			<path class="st2" d="M182.7,272.3v-5.1h7.4v-19.9l-6.5,3.8l-1.8-4.7l9.3-5.2h4.6v26h6.4v5.1H182.7z"/>
			<path class="st2" d="M211.9,272.3v-5.1h7.4v-19.9l-6.5,3.8l-1.8-4.7l9.3-5.2h4.6v26h6.4v5.1H211.9z"/>
			<path class="st2" d="M241,272.3v-5.1h7.4v-19.9L242,251l-1.8-4.7l9.3-5.2h4.6v26h6.4v5.1H241z"/>
			<path class="st2" d="M270.2,272.3v-5.1h7.4v-19.9l-6.5,3.8l-1.8-4.7l9.3-5.2h4.6v26h6.4v5.1H270.2z"/>
			<path class="st2" d="M319.9,256.7c0,2.5-0.3,4.8-0.8,6.8c-0.5,2-1.3,3.7-2.3,5.1c-1,1.4-2.2,2.4-3.7,3.2c-1.4,0.7-3.1,1.1-5,1.1
				c-1.6,0-3.1-0.3-4.4-0.9c-1.4-0.6-2.5-1.5-3.5-2.8c-1-1.3-1.8-2.9-2.3-4.9c-0.6-2-0.8-4.4-0.8-7.2c0-2.5,0.3-4.8,0.8-6.8
				c0.5-2,1.3-3.7,2.3-5.1c1-1.4,2.2-2.4,3.7-3.2c1.5-0.7,3.1-1.1,5-1.1c1.6,0,3.1,0.3,4.4,0.9c1.4,0.6,2.5,1.5,3.5,2.8
				c1,1.3,1.7,2.9,2.3,4.9C319.6,251.4,319.9,253.9,319.9,256.7z M302.6,256.8c0,0.3,0,0.6,0,0.9c0,0.3,0,0.6,0,0.8l11-8.4
				c-0.5-1.6-1.2-2.7-2.1-3.5s-1.9-1.1-3-1.1c-0.8,0-1.6,0.2-2.3,0.7c-0.7,0.5-1.3,1.1-1.9,2.1s-0.9,2.1-1.3,3.5
				C302.7,253.2,302.6,254.8,302.6,256.8z M314.4,256.9c0-0.3,0-0.5,0-0.8c0-0.3,0-0.5,0-0.8l-10.9,8.3c0.5,1.5,1.1,2.7,2,3.4
				c0.9,0.7,1.9,1.1,3,1.1c0.8,0,1.6-0.2,2.3-0.7c0.7-0.5,1.3-1.1,1.9-2.1s0.9-2.1,1.2-3.5S314.4,258.8,314.4,256.9z"/>
			<path class="st2" d="M328.4,272.3v-5.1h7.4v-19.9l-6.5,3.8l-1.8-4.7l9.3-5.2h4.6v26h6.4v5.1H328.4z"/>
			<path class="st2" d="M357.6,272.3v-5.1h7.4v-19.9l-6.5,3.8l-1.8-4.7l9.3-5.2h4.6v26h6.4v5.1H357.6z"/>
			<path class="st2" d="M386.7,272.3v-5.1h7.4v-19.9l-6.5,3.8l-1.8-4.7l9.3-5.2h4.6v26h6.4v5.1H386.7z"/>
			<path class="st2" d="M415.9,272.3v-5.1h7.4v-19.9l-6.5,3.8l-1.8-4.7l9.3-5.2h4.6v26h6.4v5.1H415.9z"/>
			<path class="st2" d="M445,272.3v-5.1h7.4v-19.9L446,251l-1.8-4.7l9.3-5.2h4.6v26h6.4v5.1H445z"/>
			<path class="st2" d="M474.2,272.3v-5.1h7.4v-19.9l-6.5,3.8l-1.8-4.7l9.3-5.2h4.6v26h6.4v5.1H474.2z"/>
			<path class="st2" d="M503.3,272.3v-5.1h7.4v-19.9l-6.5,3.8l-1.8-4.7l9.3-5.2h4.6v26h6.4v5.1H503.3z"/>
			<path class="st2" d="M532.5,272.3v-5.1h7.4v-19.9l-6.5,3.8l-1.8-4.7l9.3-5.2h4.6v26h6.4v5.1H532.5z"/>
			<path class="st2" d="M561.6,272.3v-5.1h7.4v-19.9l-6.5,3.8l-1.8-4.7l9.3-5.2h4.6v26h6.4v5.1H561.6z"/>
			<path class="st2" d="M590.8,272.3v-5.1h7.4v-19.9l-6.5,3.8l-1.8-4.7l9.3-5.2h4.6v26h6.4v5.1H590.8z"/>
			<path class="st2" d="M619.9,272.3v-5.1h7.4v-19.9l-6.5,3.8l-1.8-4.7l9.3-5.2h4.6v26h6.4v5.1H619.9z"/>
			<path class="st2" d="M649,272.3v-5.1h7.4v-19.9L650,251l-1.8-4.7l9.3-5.2h4.6v26h6.4v5.1H649z"/>
			<path class="st2" d="M678.2,272.3v-5.1h7.4v-19.9l-6.5,3.8l-1.8-4.7l9.3-5.2h4.6v26h6.4v5.1H678.2z"/>
			<path class="st2" d="M707.3,272.3v-5.1h7.4v-19.9l-6.5,3.8l-1.8-4.7l9.3-5.2h4.6v26h6.4v5.1H707.3z"/>
			<path class="st2" d="M102.1,315.4v-5.1h7.4v-19.9l-6.5,3.8l-1.8-4.7l9.3-5.2h4.6v26h6.4v5.1H102.1z"/>
			<path class="st2" d="M131.2,315.4v-5.1h7.4v-19.9l-6.5,3.8l-1.8-4.7l9.3-5.2h4.6v26h6.4v5.1H131.2z"/>
			<path class="st2" d="M160.4,315.4v-5.1h7.4v-19.9l-6.5,3.8l-1.8-4.7l9.3-5.2h4.6v26h6.4v5.1H160.4z"/>
			<path class="st2" d="M189.5,315.4v-5.1h7.4v-19.9l-6.5,3.8l-1.8-4.7l9.3-5.2h4.6v26h6.4v5.1H189.5z"/>
			<path class="st2" d="M218.7,315.4v-5.1h7.4v-19.9l-6.5,3.8l-1.8-4.7l9.3-5.2h4.6v26h6.4v5.1H218.7z"/>
			<path class="st2" d="M247.8,315.4v-5.1h7.4v-19.9l-6.5,3.8l-1.8-4.7l9.3-5.2h4.6v26h6.4v5.1H247.8z"/>
			<path class="st2" d="M276.9,315.4v-5.1h7.4v-19.9l-6.5,3.8l-1.8-4.7l9.3-5.2h4.6v26h6.4v5.1H276.9z"/>
			<path class="st2" d="M306.1,315.4v-5.1h7.4v-19.9l-6.5,3.8l-1.8-4.7l9.3-5.2h4.6v26h6.4v5.1H306.1z"/>
			<path class="st2" d="M335.2,315.4v-5.1h7.4v-19.9l-6.5,3.8l-1.8-4.7l9.3-5.2h4.6v26h6.4v5.1H335.2z"/>
			<path class="st2" d="M364.4,315.4v-5.1h7.4v-19.9l-6.5,3.8l-1.8-4.7l9.3-5.2h4.6v26h6.4v5.1H364.4z"/>
			<path class="st2" d="M393.5,315.4v-5.1h7.4v-19.9l-6.5,3.8l-1.8-4.7l9.3-5.2h4.6v26h6.4v5.1H393.5z"/>
			<path class="st2" d="M422.7,315.4v-5.1h7.4v-19.9l-6.5,3.8l-1.8-4.7l9.3-5.2h4.6v26h6.4v5.1H422.7z"/>
			<path class="st2" d="M451.8,315.4v-5.1h7.4v-19.9l-6.5,3.8l-1.8-4.7l9.3-5.2h4.6v26h6.4v5.1H451.8z"/>
			<path class="st2" d="M481,315.4v-5.1h7.4v-19.9l-6.5,3.8l-1.8-4.7l9.3-5.2h4.6v26h6.4v5.1H481z"/>
			<path class="st2" d="M510.1,315.4v-5.1h7.4v-19.9l-6.5,3.8l-1.8-4.7l9.3-5.2h4.6v26h6.4v5.1H510.1z"/>
			<path class="st2" d="M539.3,315.4v-5.1h7.4v-19.9l-6.5,3.8l-1.8-4.7l9.3-5.2h4.6v26h6.4v5.1H539.3z"/>
			<path class="st2" d="M568.4,315.4v-5.1h7.4v-19.9l-6.5,3.8l-1.8-4.7l9.3-5.2h4.6v26h6.4v5.1H568.4z"/>
			<path class="st2" d="M597.5,315.4v-5.1h7.4v-19.9l-6.5,3.8l-1.8-4.7l9.3-5.2h4.6v26h6.4v5.1H597.5z"/>
			<path class="st2" d="M626.7,315.4v-5.1h7.4v-19.9l-6.5,3.8l-1.8-4.7l9.3-5.2h4.6v26h6.4v5.1H626.7z"/>
			<path class="st2" d="M655.8,315.4v-5.1h7.4v-19.9l-6.5,3.8l-1.8-4.7l9.3-5.2h4.6v26h6.4v5.1H655.8z"/>
			<path class="st2" d="M685,315.4v-5.1h7.4v-19.9l-6.5,3.8l-1.8-4.7l9.3-5.2h4.6v26h6.4v5.1H685z"/>
			<path class="st2" d="M714.1,315.4v-5.1h7.4v-19.9l-6.5,3.8l-1.8-4.7l9.3-5.2h4.6v26h6.4v5.1H714.1z"/>
			<path class="st2" d="M106.9,342.9c0,2.5-0.3,4.8-0.8,6.8c-0.5,2-1.3,3.7-2.3,5.1c-1,1.4-2.2,2.4-3.7,3.2c-1.4,0.7-3.1,1.1-5,1.1
				c-1.6,0-3.1-0.3-4.4-0.9c-1.4-0.6-2.5-1.5-3.5-2.8c-1-1.3-1.8-2.9-2.3-4.9s-0.8-4.4-0.8-7.2c0-2.5,0.3-4.8,0.8-6.8
				c0.5-2,1.3-3.7,2.3-5.1c1-1.4,2.2-2.4,3.7-3.2c1.5-0.7,3.1-1.1,5-1.1c1.6,0,3.1,0.3,4.4,0.9c1.4,0.6,2.5,1.5,3.5,2.8
				c1,1.3,1.7,2.9,2.3,4.9S106.9,340.1,106.9,342.9z M89.6,343c0,0.3,0,0.6,0,0.9s0,0.6,0,0.8l11-8.4c-0.5-1.6-1.2-2.7-2.1-3.5
				c-0.9-0.7-1.9-1.1-3-1.1c-0.8,0-1.6,0.2-2.3,0.7c-0.7,0.5-1.3,1.1-1.9,2.1c-0.5,0.9-0.9,2.1-1.3,3.5
				C89.8,339.4,89.6,341.1,89.6,343z M101.4,343.1c0-0.3,0-0.5,0-0.8c0-0.3,0-0.5,0-0.8l-10.9,8.3c0.5,1.5,1.1,2.7,2,3.4
				c0.9,0.7,1.9,1.1,3,1.1c0.8,0,1.6-0.2,2.3-0.7c0.7-0.5,1.3-1.1,1.9-2.1c0.5-0.9,0.9-2.1,1.2-3.5
				C101.3,346.7,101.4,345,101.4,343.1z"/>
			<path class="st2" d="M115.5,358.5v-5.1h7.4v-19.9l-6.5,3.8l-1.8-4.7l9.3-5.2h4.6v26h6.4v5.1H115.5z"/>
			<path class="st2" d="M144.6,358.5v-5.1h7.4v-19.9l-6.5,3.8l-1.8-4.7l9.3-5.2h4.6v26h6.4v5.1H144.6z"/>
			<path class="st2" d="M173.8,358.5v-5.1h7.4v-19.9l-6.5,3.8l-1.8-4.7l9.3-5.2h4.6v26h6.4v5.1H173.8z"/>
			<path class="st2" d="M202.9,358.5v-5.1h7.4v-19.9l-6.5,3.8l-1.8-4.7l9.3-5.2h4.6v26h6.4v5.1H202.9z"/>
			<path class="st2" d="M232.1,358.5v-5.1h7.4v-19.9l-6.5,3.8l-1.8-4.7l9.3-5.2h4.6v26h6.4v5.1H232.1z"/>
			<path class="st2" d="M261.2,358.5v-5.1h7.4v-19.9l-6.5,3.8l-1.8-4.7l9.3-5.2h4.6v26h6.4v5.1H261.2z"/>
			<path class="st2" d="M290.4,358.5v-5.1h7.4v-19.9l-6.5,3.8l-1.8-4.7l9.3-5.2h4.6v26h6.4v5.1H290.4z"/>
			<path class="st2" d="M319.5,358.5v-5.1h7.4v-19.9l-6.5,3.8l-1.8-4.7l9.3-5.2h4.6v26h6.4v5.1H319.5z"/>
			<path class="st2" d="M369.2,342.9c0,2.5-0.3,4.8-0.8,6.8c-0.5,2-1.3,3.7-2.3,5.1c-1,1.4-2.2,2.4-3.7,3.2c-1.4,0.7-3.1,1.1-5,1.1
				c-1.6,0-3.1-0.3-4.4-0.9c-1.4-0.6-2.5-1.5-3.5-2.8c-1-1.3-1.8-2.9-2.3-4.9s-0.8-4.4-0.8-7.2c0-2.5,0.3-4.8,0.8-6.8
				c0.5-2,1.3-3.7,2.3-5.1c1-1.4,2.2-2.4,3.7-3.2c1.5-0.7,3.1-1.1,5-1.1c1.6,0,3.1,0.3,4.4,0.9c1.4,0.6,2.5,1.5,3.5,2.8
				c1,1.3,1.7,2.9,2.3,4.9S369.2,340.1,369.2,342.9z M351.9,343c0,0.3,0,0.6,0,0.9s0,0.6,0,0.8l11-8.4c-0.5-1.6-1.2-2.7-2.1-3.5
				c-0.9-0.7-1.9-1.1-3-1.1c-0.8,0-1.6,0.2-2.3,0.7c-0.7,0.5-1.3,1.1-1.9,2.1c-0.5,0.9-0.9,2.1-1.3,3.5
				C352.1,339.4,351.9,341.1,351.9,343z M363.7,343.1c0-0.3,0-0.5,0-0.8c0-0.3,0-0.5,0-0.8l-10.9,8.3c0.5,1.5,1.1,2.7,2,3.4
				c0.9,0.7,1.9,1.1,3,1.1c0.8,0,1.6-0.2,2.3-0.7c0.7-0.5,1.3-1.1,1.9-2.1c0.5-0.9,0.9-2.1,1.2-3.5
				C363.6,346.7,363.7,345,363.7,343.1z"/>
			<path class="st2" d="M377.8,358.5v-5.1h7.4v-19.9l-6.5,3.8l-1.8-4.7l9.3-5.2h4.6v26h6.4v5.1H377.8z"/>
			<path class="st2" d="M407,358.5v-5.1h7.4v-19.9l-6.5,3.8l-1.8-4.7l9.3-5.2h4.6v26h6.4v5.1H407z"/>
			<path class="st2" d="M436.1,358.5v-5.1h7.4v-19.9l-6.5,3.8l-1.8-4.7l9.3-5.2h4.6v26h6.4v5.1H436.1z"/>
			<path class="st2" d="M465.2,358.5v-5.1h7.4v-19.9l-6.5,3.8l-1.8-4.7l9.3-5.2h4.6v26h6.4v5.1H465.2z"/>
			<path class="st2" d="M494.4,358.5v-5.1h7.4v-19.9l-6.5,3.8l-1.8-4.7l9.3-5.2h4.6v26h6.4v5.1H494.4z"/>
			<path class="st2" d="M544.1,342.9c0,2.5-0.3,4.8-0.8,6.8c-0.5,2-1.3,3.7-2.3,5.1c-1,1.4-2.2,2.4-3.7,3.2c-1.4,0.7-3.1,1.1-5,1.1
				c-1.6,0-3.1-0.3-4.4-0.9c-1.4-0.6-2.5-1.5-3.5-2.8c-1-1.3-1.8-2.9-2.3-4.9s-0.8-4.4-0.8-7.2c0-2.5,0.3-4.8,0.8-6.8
				c0.5-2,1.3-3.7,2.3-5.1c1-1.4,2.2-2.4,3.7-3.2c1.5-0.7,3.1-1.1,5-1.1c1.6,0,3.1,0.3,4.4,0.9c1.4,0.6,2.5,1.5,3.5,2.8
				c1,1.3,1.7,2.9,2.3,4.9S544.1,340.1,544.1,342.9z M526.8,343c0,0.3,0,0.6,0,0.9s0,0.6,0,0.8l11-8.4c-0.5-1.6-1.2-2.7-2.1-3.5
				c-0.9-0.7-1.9-1.1-3-1.1c-0.8,0-1.6,0.2-2.3,0.7c-0.7,0.5-1.3,1.1-1.9,2.1c-0.5,0.9-0.9,2.1-1.3,3.5
				C527,339.4,526.8,341.1,526.8,343z M538.6,343.1c0-0.3,0-0.5,0-0.8c0-0.3,0-0.5,0-0.8l-10.9,8.3c0.5,1.5,1.1,2.7,2,3.4
				c0.9,0.7,1.9,1.1,3,1.1c0.8,0,1.6-0.2,2.3-0.7c0.7-0.5,1.3-1.1,1.9-2.1c0.5-0.9,0.9-2.1,1.2-3.5
				C538.5,346.7,538.6,345,538.6,343.1z"/>
			<path class="st2" d="M552.7,358.5v-5.1h7.4v-19.9l-6.5,3.8l-1.8-4.7l9.3-5.2h4.6v26h6.4v5.1H552.7z"/>
			<path class="st2" d="M581.8,358.5v-5.1h7.4v-19.9l-6.5,3.8l-1.8-4.7l9.3-5.2h4.6v26h6.4v5.1H581.8z"/>
			<path class="st2" d="M611,358.5v-5.1h7.4v-19.9l-6.5,3.8l-1.8-4.7l9.3-5.2h4.6v26h6.4v5.1H611z"/>
			<path class="st2" d="M640.1,358.5v-5.1h7.4v-19.9l-6.5,3.8l-1.8-4.7l9.3-5.2h4.6v26h6.4v5.1H640.1z"/>
			<path class="st2" d="M669.3,358.5v-5.1h7.4v-19.9l-6.5,3.8l-1.8-4.7l9.3-5.2h4.6v26h6.4v5.1H669.3z"/>
			<path class="st2" d="M698.4,358.5v-5.1h7.4v-19.9l-6.5,3.8l-1.8-4.7l9.3-5.2h4.6v26h6.4v5.1H698.4z"/>
			<path class="st2" d="M727.5,358.5v-5.1h7.4v-19.9l-6.5,3.8l-1.8-4.7l9.3-5.2h4.6v26h6.4v5.1H727.5z"/>
			<path class="st2" d="M756.7,358.5v-5.1h7.4v-19.9l-6.5,3.8l-1.8-4.7l9.3-5.2h4.6v26h6.4v5.1H756.7z"/>
			<path class="st2" d="M76.4,401.6v-5.1h7.4v-19.9l-6.5,3.8l-1.8-4.7l9.3-5.2h4.6v26h6.4v5.1H76.4z"/>
			<path class="st2" d="M105.5,401.6v-5.1h7.4v-19.9l-6.5,3.8l-1.8-4.7l9.3-5.2h4.6v26h6.4v5.1H105.5z"/>
			<path class="st2" d="M134.7,401.6v-5.1h7.4v-19.9l-6.5,3.8l-1.8-4.7l9.3-5.2h4.6v26h6.4v5.1H134.7z"/>
			<path class="st2" d="M163.8,401.6v-5.1h7.4v-19.9l-6.5,3.8l-1.8-4.7l9.3-5.2h4.6v26h6.4v5.1H163.8z"/>
			<path class="st2" d="M193,401.6v-5.1h7.4v-19.9l-6.5,3.8l-1.8-4.7l9.3-5.2h4.6v26h6.4v5.1H193z"/>
			<path class="st2" d="M222.1,401.6v-5.1h7.4v-19.9l-6.5,3.8l-1.8-4.7l9.3-5.2h4.6v26h6.4v5.1H222.1z"/>
			<path class="st2" d="M251.3,401.6v-5.1h7.4v-19.9l-6.5,3.8l-1.8-4.7l9.3-5.2h4.6v26h6.4v5.1H251.3z"/>
			<path class="st2" d="M280.4,401.6v-5.1h7.4v-19.9l-6.5,3.8l-1.8-4.7l9.3-5.2h4.6v26h6.4v5.1H280.4z"/>
			<path class="st2" d="M309.6,401.6v-5.1h7.4v-19.9l-6.5,3.8l-1.8-4.7l9.3-5.2h4.6v26h6.4v5.1H309.6z"/>
			<path class="st2" d="M338.7,401.6v-5.1h7.4v-19.9l-6.5,3.8l-1.8-4.7l9.3-5.2h4.6v26h6.4v5.1H338.7z"/>
			<path class="st2" d="M367.8,401.6v-5.1h7.4v-19.9l-6.5,3.8l-1.8-4.7l9.3-5.2h4.6v26h6.4v5.1H367.8z"/>
			<path class="st2" d="M397,401.6v-5.1h7.4v-19.9l-6.5,3.8l-1.8-4.7l9.3-5.2h4.6v26h6.4v5.1H397z"/>
			<path class="st2" d="M426.1,401.6v-5.1h7.4v-19.9l-6.5,3.8l-1.8-4.7l9.3-5.2h4.6v26h6.4v5.1H426.1z"/>
			<path class="st2" d="M455.3,401.6v-5.1h7.4v-19.9l-6.5,3.8l-1.8-4.7l9.3-5.2h4.6v26h6.4v5.1H455.3z"/>
			<path class="st2" d="M484.4,401.6v-5.1h7.4v-19.9l-6.5,3.8l-1.8-4.7l9.3-5.2h4.6v26h6.4v5.1H484.4z"/>
			<path class="st2" d="M513.6,401.6v-5.1h7.4v-19.9l-6.5,3.8l-1.8-4.7l9.3-5.2h4.6v26h6.4v5.1H513.6z"/>
			<path class="st2" d="M542.7,401.6v-5.1h7.4v-19.9l-6.5,3.8l-1.8-4.7l9.3-5.2h4.6v26h6.4v5.1H542.7z"/>
			<path class="st2" d="M571.9,401.6v-5.1h7.4v-19.9l-6.5,3.8l-1.8-4.7l9.3-5.2h4.6v26h6.4v5.1H571.9z"/>
			<path class="st2" d="M601,401.6v-5.1h7.4v-19.9l-6.5,3.8l-1.8-4.7l9.3-5.2h4.6v26h6.4v5.1H601z"/>
			<path class="st2" d="M630.2,401.6v-5.1h7.4v-19.9l-6.5,3.8l-1.8-4.7l9.3-5.2h4.6v26h6.4v5.1H630.2z"/>
			<path class="st2" d="M679.9,386c0,2.5-0.3,4.8-0.8,6.8c-0.5,2-1.3,3.7-2.3,5.1c-1,1.4-2.2,2.4-3.7,3.2c-1.4,0.7-3.1,1.1-5,1.1
				c-1.6,0-3.1-0.3-4.4-0.9c-1.4-0.6-2.5-1.5-3.5-2.8c-1-1.3-1.8-2.9-2.3-4.9c-0.6-2-0.8-4.4-0.8-7.2c0-2.5,0.3-4.8,0.8-6.8
				c0.5-2,1.3-3.7,2.3-5.1c1-1.4,2.2-2.4,3.7-3.2c1.5-0.7,3.1-1.1,5-1.1c1.6,0,3.1,0.3,4.4,0.9c1.4,0.6,2.5,1.5,3.5,2.8
				c1,1.3,1.7,2.9,2.3,4.9C679.6,380.8,679.9,383.2,679.9,386z M662.6,386.1c0,0.3,0,0.6,0,0.9c0,0.3,0,0.6,0,0.8l11-8.4
				c-0.5-1.6-1.2-2.7-2.1-3.5s-1.9-1.1-3-1.1c-0.8,0-1.6,0.2-2.3,0.7c-0.7,0.5-1.3,1.1-1.9,2.1s-0.9,2.1-1.3,3.5
				C662.7,382.5,662.6,384.2,662.6,386.1z M674.4,386.2c0-0.3,0-0.5,0-0.8c0-0.3,0-0.5,0-0.8l-10.9,8.3c0.5,1.5,1.1,2.7,2,3.4
				c0.9,0.7,1.9,1.1,3,1.1c0.8,0,1.6-0.2,2.3-0.7c0.7-0.5,1.3-1.1,1.9-2.1s0.9-2.1,1.2-3.5S674.4,388.1,674.4,386.2z"/>
			<path class="st2" d="M688.4,401.6v-5.1h7.4v-19.9l-6.5,3.8l-1.8-4.7l9.3-5.2h4.6v26h6.4v5.1H688.4z"/>
			<path class="st2" d="M717.6,401.6v-5.1h7.4v-19.9l-6.5,3.8l-1.8-4.7l9.3-5.2h4.6v26h6.4v5.1H717.6z"/>
			<path class="st2" d="M746.7,401.6v-5.1h7.4v-19.9l-6.5,3.8l-1.8-4.7l9.3-5.2h4.6v26h6.4v5.1H746.7z"/>
			<path class="st2" d="M71.7,444.7v-5.1h7.4v-19.9l-6.5,3.8l-1.8-4.7l9.3-5.2h4.6v26h6.4v5.1H71.7z"/>
			<path class="st2" d="M100.8,444.7v-5.1h7.4v-19.9l-6.5,3.8l-1.8-4.7l9.3-5.2h4.6v26h6.4v5.1H100.8z"/>
			<path class="st2" d="M130,444.7v-5.1h7.4v-19.9l-6.5,3.8l-1.8-4.7l9.3-5.2h4.6v26h6.4v5.1H130z"/>
			<path class="st2" d="M159.1,444.7v-5.1h7.4v-19.9l-6.5,3.8l-1.8-4.7l9.3-5.2h4.6v26h6.4v5.1H159.1z"/>
			<path class="st2" d="M188.3,444.7v-5.1h7.4v-19.9l-6.5,3.8l-1.8-4.7l9.3-5.2h4.6v26h6.4v5.1H188.3z"/>
			<path class="st2" d="M238,429.1c0,2.5-0.3,4.8-0.8,6.8c-0.5,2-1.3,3.7-2.3,5.1c-1,1.4-2.2,2.4-3.7,3.2c-1.4,0.7-3.1,1.1-5,1.1
				c-1.6,0-3.1-0.3-4.4-0.9c-1.4-0.6-2.5-1.5-3.5-2.8c-1-1.3-1.8-2.9-2.3-4.9c-0.6-2-0.8-4.4-0.8-7.2c0-2.5,0.3-4.8,0.8-6.8
				c0.5-2,1.3-3.7,2.3-5.1c1-1.4,2.2-2.4,3.7-3.2c1.5-0.7,3.1-1.1,5-1.1c1.6,0,3.1,0.3,4.4,0.9c1.4,0.6,2.5,1.5,3.5,2.8
				c1,1.3,1.7,2.9,2.3,4.9C237.7,423.9,238,426.3,238,429.1z M220.7,429.2c0,0.3,0,0.6,0,0.9c0,0.3,0,0.6,0,0.8l11-8.4
				c-0.5-1.6-1.2-2.7-2.1-3.5s-1.9-1.1-3-1.1c-0.8,0-1.6,0.2-2.3,0.7c-0.7,0.5-1.3,1.1-1.9,2.1s-0.9,2.1-1.3,3.5
				C220.9,425.6,220.7,427.3,220.7,429.2z M232.5,429.3c0-0.3,0-0.5,0-0.8c0-0.3,0-0.5,0-0.8l-10.9,8.3c0.5,1.5,1.1,2.7,2,3.4
				c0.9,0.7,1.9,1.1,3,1.1c0.8,0,1.6-0.2,2.3-0.7c0.7-0.5,1.3-1.1,1.9-2.1s0.9-2.1,1.2-3.5S232.5,431.2,232.5,429.3z"/>
			<path class="st2" d="M246.6,444.7v-5.1h7.4v-19.9l-6.5,3.8l-1.8-4.7l9.3-5.2h4.6v26h6.4v5.1H246.6z"/>
			<path class="st2" d="M275.7,444.7v-5.1h7.4v-19.9l-6.5,3.8l-1.8-4.7l9.3-5.2h4.6v26h6.4v5.1H275.7z"/>
			<path class="st2" d="M304.9,444.7v-5.1h7.4v-19.9l-6.5,3.8l-1.8-4.7l9.3-5.2h4.6v26h6.4v5.1H304.9z"/>
			<path class="st2" d="M334,444.7v-5.1h7.4v-19.9l-6.5,3.8l-1.8-4.7l9.3-5.2h4.6v26h6.4v5.1H334z"/>
			<path class="st2" d="M363.1,444.7v-5.1h7.4v-19.9l-6.5,3.8l-1.8-4.7l9.3-5.2h4.6v26h6.4v5.1H363.1z"/>
			<path class="st2" d="M392.3,444.7v-5.1h7.4v-19.9l-6.5,3.8l-1.8-4.7l9.3-5.2h4.6v26h6.4v5.1H392.3z"/>
			<path class="st2" d="M442,429.1c0,2.5-0.3,4.8-0.8,6.8c-0.5,2-1.3,3.7-2.3,5.1c-1,1.4-2.2,2.4-3.7,3.2c-1.4,0.7-3.1,1.1-5,1.1
				c-1.6,0-3.1-0.3-4.4-0.9c-1.4-0.6-2.5-1.5-3.5-2.8c-1-1.3-1.8-2.9-2.3-4.9c-0.6-2-0.8-4.4-0.8-7.2c0-2.5,0.3-4.8,0.8-6.8
				c0.5-2,1.3-3.7,2.3-5.1c1-1.4,2.2-2.4,3.7-3.2c1.5-0.7,3.1-1.1,5-1.1c1.6,0,3.1,0.3,4.4,0.9c1.4,0.6,2.5,1.5,3.5,2.8
				c1,1.3,1.7,2.9,2.3,4.9C441.7,423.9,442,426.3,442,429.1z M424.7,429.2c0,0.3,0,0.6,0,0.9c0,0.3,0,0.6,0,0.8l11-8.4
				c-0.5-1.6-1.2-2.7-2.1-3.5s-1.9-1.1-3-1.1c-0.8,0-1.6,0.2-2.3,0.7c-0.7,0.5-1.3,1.1-1.9,2.1s-0.9,2.1-1.3,3.5
				C424.9,425.6,424.7,427.3,424.7,429.2z M436.5,429.3c0-0.3,0-0.5,0-0.8c0-0.3,0-0.5,0-0.8l-10.9,8.3c0.5,1.5,1.1,2.7,2,3.4
				c0.9,0.7,1.9,1.1,3,1.1c0.8,0,1.6-0.2,2.3-0.7c0.7-0.5,1.3-1.1,1.9-2.1s0.9-2.1,1.2-3.5S436.5,431.2,436.5,429.3z"/>
			<path class="st2" d="M450.6,444.7v-5.1h7.4v-19.9l-6.5,3.8l-1.8-4.7l9.3-5.2h4.6v26h6.4v5.1H450.6z"/>
			<path class="st2" d="M479.7,444.7v-5.1h7.4v-19.9l-6.5,3.8l-1.8-4.7l9.3-5.2h4.6v26h6.4v5.1H479.7z"/>
			<path class="st2" d="M508.9,444.7v-5.1h7.4v-19.9l-6.5,3.8l-1.8-4.7l9.3-5.2h4.6v26h6.4v5.1H508.9z"/>
			<path class="st2" d="M538,444.7v-5.1h7.4v-19.9l-6.5,3.8l-1.8-4.7l9.3-5.2h4.6v26h6.4v5.1H538z"/>
			<path class="st2" d="M567.2,444.7v-5.1h7.4v-19.9l-6.5,3.8l-1.8-4.7l9.3-5.2h4.6v26h6.4v5.1H567.2z"/>
			<path class="st2" d="M596.3,444.7v-5.1h7.4v-19.9l-6.5,3.8l-1.8-4.7l9.3-5.2h4.6v26h6.4v5.1H596.3z"/>
			<path class="st2" d="M625.5,444.7v-5.1h7.4v-19.9l-6.5,3.8l-1.8-4.7l9.3-5.2h4.6v26h6.4v5.1H625.5z"/>
			<path class="st2" d="M654.6,444.7v-5.1h7.4v-19.9l-6.5,3.8l-1.8-4.7l9.3-5.2h4.6v26h6.4v5.1H654.6z"/>
			<path class="st2" d="M683.7,444.7v-5.1h7.4v-19.9l-6.5,3.8l-1.8-4.7l9.3-5.2h4.6v26h6.4v5.1H683.7z"/>
			<path class="st2" d="M733.5,429.1c0,2.5-0.3,4.8-0.8,6.8c-0.5,2-1.3,3.7-2.3,5.1c-1,1.4-2.2,2.4-3.7,3.2c-1.4,0.7-3.1,1.1-5,1.1
				c-1.6,0-3.1-0.3-4.4-0.9c-1.4-0.6-2.5-1.5-3.5-2.8c-1-1.3-1.8-2.9-2.3-4.9c-0.6-2-0.8-4.4-0.8-7.2c0-2.5,0.3-4.8,0.8-6.8
				c0.5-2,1.3-3.7,2.3-5.1c1-1.4,2.2-2.4,3.7-3.2c1.5-0.7,3.1-1.1,5-1.1c1.6,0,3.1,0.3,4.4,0.9c1.4,0.6,2.5,1.5,3.5,2.8
				c1,1.3,1.7,2.9,2.3,4.9C733.2,423.9,733.5,426.3,733.5,429.1z M716.2,429.2c0,0.3,0,0.6,0,0.9c0,0.3,0,0.6,0,0.8l11-8.4
				c-0.5-1.6-1.2-2.7-2.1-3.5s-1.9-1.1-3-1.1c-0.8,0-1.6,0.2-2.3,0.7c-0.7,0.5-1.3,1.1-1.9,2.1s-0.9,2.1-1.3,3.5
				C716.3,425.6,716.2,427.3,716.2,429.2z M728,429.3c0-0.3,0-0.5,0-0.8c0-0.3,0-0.5,0-0.8L717,436c0.5,1.5,1.1,2.7,2,3.4
				c0.9,0.7,1.9,1.1,3,1.1c0.8,0,1.6-0.2,2.3-0.7c0.7-0.5,1.3-1.1,1.9-2.1s0.9-2.1,1.2-3.5S728,431.2,728,429.3z"/>
			<path class="st2" d="M742,444.7v-5.1h7.4v-19.9l-6.5,3.8l-1.8-4.7l9.3-5.2h4.6v26h6.4v5.1H742z"/>
			<path class="st2" d="M771.2,444.7v-5.1h7.4v-19.9l-6.5,3.8l-1.8-4.7l9.3-5.2h4.6v26h6.4v5.1H771.2z"/>
			<path class="st2" d="M75.1,487.8v-5.1h7.4v-19.9l-6.5,3.8l-1.8-4.7l9.3-5.2h4.6v26h6.4v5.1H75.1z"/>
			<path class="st2" d="M104.3,487.8v-5.1h7.4v-19.9l-6.5,3.8l-1.8-4.7l9.3-5.2h4.6v26h6.4v5.1H104.3z"/>
			<path class="st2" d="M133.4,487.8v-5.1h7.4v-19.9l-6.5,3.8l-1.8-4.7l9.3-5.2h4.6v26h6.4v5.1H133.4z"/>
			<path class="st2" d="M162.6,487.8v-5.1h7.4v-19.9l-6.5,3.8l-1.8-4.7l9.3-5.2h4.6v26h6.4v5.1H162.6z"/>
			<path class="st2" d="M191.7,487.8v-5.1h7.4v-19.9l-6.5,3.8l-1.8-4.7l9.3-5.2h4.6v26h6.4v5.1H191.7z"/>
			<path class="st2" d="M220.9,487.8v-5.1h7.4v-19.9l-6.5,3.8l-1.8-4.7l9.3-5.2h4.6v26h6.4v5.1H220.9z"/>
			<path class="st2" d="M270.6,472.2c0,2.5-0.3,4.8-0.8,6.8c-0.5,2-1.3,3.7-2.3,5.1c-1,1.4-2.2,2.4-3.7,3.2c-1.4,0.7-3.1,1.1-5,1.1
				c-1.6,0-3.1-0.3-4.4-0.9c-1.4-0.6-2.5-1.5-3.5-2.8c-1-1.3-1.8-2.9-2.3-4.9s-0.8-4.4-0.8-7.2c0-2.5,0.3-4.8,0.8-6.8
				c0.5-2,1.3-3.7,2.3-5.1c1-1.4,2.2-2.4,3.7-3.2c1.5-0.7,3.1-1.1,5-1.1c1.6,0,3.1,0.3,4.4,0.9c1.4,0.6,2.5,1.5,3.5,2.8
				c1,1.3,1.7,2.9,2.3,4.9S270.6,469.4,270.6,472.2z M253.3,472.3c0,0.3,0,0.6,0,0.9s0,0.6,0,0.8l11-8.4c-0.5-1.6-1.2-2.7-2.1-3.5
				c-0.9-0.7-1.9-1.1-3-1.1c-0.8,0-1.6,0.2-2.3,0.7c-0.7,0.5-1.3,1.1-1.9,2.1c-0.5,0.9-0.9,2.1-1.3,3.5
				C253.4,468.7,253.3,470.4,253.3,472.3z M265.1,472.4c0-0.3,0-0.5,0-0.8c0-0.3,0-0.5,0-0.8l-10.9,8.3c0.5,1.5,1.1,2.7,2,3.4
				c0.9,0.7,1.9,1.1,3,1.1c0.8,0,1.6-0.2,2.3-0.7c0.7-0.5,1.3-1.1,1.9-2.1c0.5-0.9,0.9-2.1,1.2-3.5
				C264.9,476,265.1,474.3,265.1,472.4z"/>
			<path class="st2" d="M279.1,487.8v-5.1h7.4v-19.9l-6.5,3.8l-1.8-4.7l9.3-5.2h4.6v26h6.4v5.1H279.1z"/>
			<path class="st2" d="M308.3,487.8v-5.1h7.4v-19.9l-6.5,3.8l-1.8-4.7l9.3-5.2h4.6v26h6.4v5.1H308.3z"/>
			<path class="st2" d="M337.4,487.8v-5.1h7.4v-19.9l-6.5,3.8l-1.8-4.7l9.3-5.2h4.6v26h6.4v5.1H337.4z"/>
			<path class="st2" d="M366.6,487.8v-5.1h7.4v-19.9l-6.5,3.8l-1.8-4.7l9.3-5.2h4.6v26h6.4v5.1H366.6z"/>
			<path class="st2" d="M395.7,487.8v-5.1h7.4v-19.9l-6.5,3.8l-1.8-4.7l9.3-5.2h4.6v26h6.4v5.1H395.7z"/>
			<path class="st2" d="M445.5,472.2c0,2.5-0.3,4.8-0.8,6.8c-0.5,2-1.3,3.7-2.3,5.1c-1,1.4-2.2,2.4-3.7,3.2c-1.4,0.7-3.1,1.1-5,1.1
				c-1.6,0-3.1-0.3-4.4-0.9c-1.4-0.6-2.5-1.5-3.5-2.8c-1-1.3-1.8-2.9-2.3-4.9s-0.8-4.4-0.8-7.2c0-2.5,0.3-4.8,0.8-6.8
				c0.5-2,1.3-3.7,2.3-5.1c1-1.4,2.2-2.4,3.7-3.2c1.5-0.7,3.1-1.1,5-1.1c1.6,0,3.1,0.3,4.4,0.9c1.4,0.6,2.5,1.5,3.5,2.8
				c1,1.3,1.7,2.9,2.3,4.9S445.5,469.4,445.5,472.2z M428.2,472.3c0,0.3,0,0.6,0,0.9s0,0.6,0,0.8l11-8.4c-0.5-1.6-1.2-2.7-2.1-3.5
				c-0.9-0.7-1.9-1.1-3-1.1c-0.8,0-1.6,0.2-2.3,0.7c-0.7,0.5-1.3,1.1-1.9,2.1c-0.5,0.9-0.9,2.1-1.3,3.5
				C428.3,468.7,428.2,470.4,428.2,472.3z M440,472.4c0-0.3,0-0.5,0-0.8c0-0.3,0-0.5,0-0.8l-10.9,8.3c0.5,1.5,1.1,2.7,2,3.4
				c0.9,0.7,1.9,1.1,3,1.1c0.8,0,1.6-0.2,2.3-0.7c0.7-0.5,1.3-1.1,1.9-2.1c0.5-0.9,0.9-2.1,1.2-3.5C439.8,476,440,474.3,440,472.4z"
				/>
			<path class="st2" d="M474.6,472.2c0,2.5-0.3,4.8-0.8,6.8c-0.5,2-1.3,3.7-2.3,5.1c-1,1.4-2.2,2.4-3.7,3.2c-1.4,0.7-3.1,1.1-5,1.1
				c-1.6,0-3.1-0.3-4.4-0.9c-1.4-0.6-2.5-1.5-3.5-2.8c-1-1.3-1.8-2.9-2.3-4.9s-0.8-4.4-0.8-7.2c0-2.5,0.3-4.8,0.8-6.8
				c0.5-2,1.3-3.7,2.3-5.1c1-1.4,2.2-2.4,3.7-3.2c1.5-0.7,3.1-1.1,5-1.1c1.6,0,3.1,0.3,4.4,0.9c1.4,0.6,2.5,1.5,3.5,2.8
				c1,1.3,1.7,2.9,2.3,4.9S474.6,469.4,474.6,472.2z M457.3,472.3c0,0.3,0,0.6,0,0.9s0,0.6,0,0.8l11-8.4c-0.5-1.6-1.2-2.7-2.1-3.5
				c-0.9-0.7-1.9-1.1-3-1.1c-0.8,0-1.6,0.2-2.3,0.7c-0.7,0.5-1.3,1.1-1.9,2.1c-0.5,0.9-0.9,2.1-1.3,3.5
				C457.5,468.7,457.3,470.4,457.3,472.3z M469.1,472.4c0-0.3,0-0.5,0-0.8c0-0.3,0-0.5,0-0.8l-10.9,8.3c0.5,1.5,1.1,2.7,2,3.4
				c0.9,0.7,1.9,1.1,3,1.1c0.8,0,1.6-0.2,2.3-0.7c0.7-0.5,1.3-1.1,1.9-2.1c0.5-0.9,0.9-2.1,1.2-3.5C469,476,469.1,474.3,469.1,472.4
				z"/>
			<path class="st2" d="M483.2,487.8v-5.1h7.4v-19.9l-6.5,3.8l-1.8-4.7l9.3-5.2h4.6v26h6.4v5.1H483.2z"/>
			<path class="st2" d="M512.3,487.8v-5.1h7.4v-19.9l-6.5,3.8l-1.8-4.7l9.3-5.2h4.6v26h6.4v5.1H512.3z"/>
			<path class="st2" d="M541.5,487.8v-5.1h7.4v-19.9l-6.5,3.8l-1.8-4.7l9.3-5.2h4.6v26h6.4v5.1H541.5z"/>
			<path class="st2" d="M591.2,472.2c0,2.5-0.3,4.8-0.8,6.8c-0.5,2-1.3,3.7-2.3,5.1c-1,1.4-2.2,2.4-3.7,3.2c-1.4,0.7-3.1,1.1-5,1.1
				c-1.6,0-3.1-0.3-4.4-0.9c-1.4-0.6-2.5-1.5-3.5-2.8c-1-1.3-1.8-2.9-2.3-4.9s-0.8-4.4-0.8-7.2c0-2.5,0.3-4.8,0.8-6.8
				c0.5-2,1.3-3.7,2.3-5.1c1-1.4,2.2-2.4,3.7-3.2c1.5-0.7,3.1-1.1,5-1.1c1.6,0,3.1,0.3,4.4,0.9c1.4,0.6,2.5,1.5,3.5,2.8
				c1,1.3,1.7,2.9,2.3,4.9S591.2,469.4,591.2,472.2z M573.9,472.3c0,0.3,0,0.6,0,0.9s0,0.6,0,0.8l11-8.4c-0.5-1.6-1.2-2.7-2.1-3.5
				c-0.9-0.7-1.9-1.1-3-1.1c-0.8,0-1.6,0.2-2.3,0.7c-0.7,0.5-1.3,1.1-1.9,2.1c-0.5,0.9-0.9,2.1-1.3,3.5
				C574,468.7,573.9,470.4,573.9,472.3z M585.7,472.4c0-0.3,0-0.5,0-0.8c0-0.3,0-0.5,0-0.8l-10.9,8.3c0.5,1.5,1.1,2.7,2,3.4
				c0.9,0.7,1.9,1.1,3,1.1c0.8,0,1.6-0.2,2.3-0.7c0.7-0.5,1.3-1.1,1.9-2.1c0.5-0.9,0.9-2.1,1.2-3.5
				C585.5,476,585.7,474.3,585.7,472.4z"/>
			<path class="st2" d="M599.7,487.8v-5.1h7.4v-19.9l-6.5,3.8l-1.8-4.7l9.3-5.2h4.6v26h6.4v5.1H599.7z"/>
			<path class="st2" d="M628.9,487.8v-5.1h7.4v-19.9l-6.5,3.8l-1.8-4.7l9.3-5.2h4.6v26h6.4v5.1H628.9z"/>
			<path class="st2" d="M658,487.8v-5.1h7.4v-19.9l-6.5,3.8l-1.8-4.7l9.3-5.2h4.6v26h6.4v5.1H658z"/>
			<path class="st2" d="M687.2,487.8v-5.1h7.4v-19.9l-6.5,3.8l-1.8-4.7l9.3-5.2h4.6v26h6.4v5.1H687.2z"/>
			<path class="st2" d="M716.3,487.8v-5.1h7.4v-19.9l-6.5,3.8l-1.8-4.7l9.3-5.2h4.6v26h6.4v5.1H716.3z"/>
			<path class="st2" d="M745.5,487.8v-5.1h7.4v-19.9l-6.5,3.8l-1.8-4.7l9.3-5.2h4.6v26h6.4v5.1H745.5z"/>
			<path class="st2" d="M84.1,530.9v-5.1h7.4v-19.9l-6.5,3.8l-1.8-4.7l9.3-5.2h4.6v26h6.4v5.1H84.1z"/>
			<path class="st2" d="M113.2,530.9v-5.1h7.4v-19.9l-6.5,3.8l-1.8-4.7l9.3-5.2h4.6v26h6.4v5.1H113.2z"/>
			<path class="st2" d="M163,515.3c0,2.5-0.3,4.8-0.8,6.8c-0.5,2-1.3,3.7-2.3,5.1c-1,1.4-2.2,2.4-3.7,3.2c-1.4,0.7-3.1,1.1-5,1.1
				c-1.6,0-3.1-0.3-4.4-0.9c-1.4-0.6-2.5-1.5-3.5-2.8c-1-1.3-1.8-2.9-2.3-4.9s-0.8-4.4-0.8-7.2c0-2.5,0.3-4.8,0.8-6.8
				c0.5-2,1.3-3.7,2.3-5.1c1-1.4,2.2-2.4,3.7-3.2c1.5-0.7,3.1-1.1,5-1.1c1.6,0,3.1,0.3,4.4,0.9c1.4,0.6,2.5,1.5,3.5,2.8
				c1,1.3,1.7,2.9,2.3,4.9S163,512.5,163,515.3z M145.7,515.4c0,0.3,0,0.6,0,0.9s0,0.6,0,0.8l11-8.4c-0.5-1.6-1.2-2.7-2.1-3.5
				c-0.9-0.7-1.9-1.1-3-1.1c-0.8,0-1.6,0.2-2.3,0.7c-0.7,0.5-1.3,1.1-1.9,2.1c-0.5,0.9-0.9,2.1-1.3,3.5
				C145.8,511.8,145.7,513.5,145.7,515.4z M157.5,515.5c0-0.3,0-0.5,0-0.8c0-0.3,0-0.5,0-0.8l-10.9,8.3c0.5,1.5,1.1,2.7,2,3.4
				c0.9,0.7,1.9,1.1,3,1.1c0.8,0,1.6-0.2,2.3-0.7c0.7-0.5,1.3-1.1,1.9-2.1c0.5-0.9,0.9-2.1,1.2-3.5
				C157.3,519.1,157.5,517.4,157.5,515.5z"/>
			<path class="st2" d="M171.5,530.9v-5.1h7.4v-19.9l-6.5,3.8l-1.8-4.7l9.3-5.2h4.6v26h6.4v5.1H171.5z"/>
			<path class="st2" d="M200.7,530.9v-5.1h7.4v-19.9l-6.5,3.8l-1.8-4.7l9.3-5.2h4.6v26h6.4v5.1H200.7z"/>
			<path class="st2" d="M229.8,530.9v-5.1h7.4v-19.9l-6.5,3.8L229,505l9.3-5.2h4.6v26h6.4v5.1H229.8z"/>
			<path class="st2" d="M279.5,515.3c0,2.5-0.3,4.8-0.8,6.8c-0.5,2-1.3,3.7-2.3,5.1c-1,1.4-2.2,2.4-3.7,3.2c-1.4,0.7-3.1,1.1-5,1.1
				c-1.6,0-3.1-0.3-4.4-0.9c-1.4-0.6-2.5-1.5-3.5-2.8c-1-1.3-1.8-2.9-2.3-4.9s-0.8-4.4-0.8-7.2c0-2.5,0.3-4.8,0.8-6.8
				c0.5-2,1.3-3.7,2.3-5.1c1-1.4,2.2-2.4,3.7-3.2c1.5-0.7,3.1-1.1,5-1.1c1.6,0,3.1,0.3,4.4,0.9c1.4,0.6,2.5,1.5,3.5,2.8
				c1,1.3,1.7,2.9,2.3,4.9S279.5,512.5,279.5,515.3z M262.2,515.4c0,0.3,0,0.6,0,0.9s0,0.6,0,0.8l11-8.4c-0.5-1.6-1.2-2.7-2.1-3.5
				c-0.9-0.7-1.9-1.1-3-1.1c-0.8,0-1.6,0.2-2.3,0.7c-0.7,0.5-1.3,1.1-1.9,2.1c-0.5,0.9-0.9,2.1-1.3,3.5
				C262.4,511.8,262.2,513.5,262.2,515.4z M274,515.5c0-0.3,0-0.5,0-0.8c0-0.3,0-0.5,0-0.8l-10.9,8.3c0.5,1.5,1.1,2.7,2,3.4
				c0.9,0.7,1.9,1.1,3,1.1c0.8,0,1.6-0.2,2.3-0.7c0.7-0.5,1.3-1.1,1.9-2.1c0.5-0.9,0.9-2.1,1.2-3.5C273.9,519.1,274,517.4,274,515.5
				z"/>
			<path class="st2" d="M288.1,530.9v-5.1h7.4v-19.9l-6.5,3.8l-1.8-4.7l9.3-5.2h4.6v26h6.4v5.1H288.1z"/>
			<path class="st2" d="M317.2,530.9v-5.1h7.4v-19.9l-6.5,3.8l-1.8-4.7l9.3-5.2h4.6v26h6.4v5.1H317.2z"/>
			<path class="st2" d="M346.4,530.9v-5.1h7.4v-19.9l-6.5,3.8l-1.8-4.7l9.3-5.2h4.6v26h6.4v5.1H346.4z"/>
			<path class="st2" d="M375.5,530.9v-5.1h7.4v-19.9l-6.5,3.8l-1.8-4.7l9.3-5.2h4.6v26h6.4v5.1H375.5z"/>
			<path class="st2" d="M404.7,530.9v-5.1h7.4v-19.9l-6.5,3.8l-1.8-4.7l9.3-5.2h4.6v26h6.4v5.1H404.7z"/>
			<path class="st2" d="M433.8,530.9v-5.1h7.4v-19.9l-6.5,3.8L433,505l9.3-5.2h4.6v26h6.4v5.1H433.8z"/>
			<path class="st2" d="M463,530.9v-5.1h7.4v-19.9l-6.5,3.8l-1.8-4.7l9.3-5.2h4.6v26h6.4v5.1H463z"/>
			<path class="st2" d="M492.1,530.9v-5.1h7.4v-19.9l-6.5,3.8l-1.8-4.7l9.3-5.2h4.6v26h6.4v5.1H492.1z"/>
			<path class="st2" d="M521.3,530.9v-5.1h7.4v-19.9l-6.5,3.8l-1.8-4.7l9.3-5.2h4.6v26h6.4v5.1H521.3z"/>
			<path class="st2" d="M550.4,530.9v-5.1h7.4v-19.9l-6.5,3.8l-1.8-4.7l9.3-5.2h4.6v26h6.4v5.1H550.4z"/>
			<path class="st2" d="M600.1,515.3c0,2.5-0.3,4.8-0.8,6.8c-0.5,2-1.3,3.7-2.3,5.1c-1,1.4-2.2,2.4-3.7,3.2c-1.4,0.7-3.1,1.1-5,1.1
				c-1.6,0-3.1-0.3-4.4-0.9c-1.4-0.6-2.5-1.5-3.5-2.8c-1-1.3-1.8-2.9-2.3-4.9s-0.8-4.4-0.8-7.2c0-2.5,0.3-4.8,0.8-6.8
				c0.5-2,1.3-3.7,2.3-5.1c1-1.4,2.2-2.4,3.7-3.2c1.5-0.7,3.1-1.1,5-1.1c1.6,0,3.1,0.3,4.4,0.9c1.4,0.6,2.5,1.5,3.5,2.8
				c1,1.3,1.7,2.9,2.3,4.9S600.1,512.5,600.1,515.3z M582.8,515.4c0,0.3,0,0.6,0,0.9s0,0.6,0,0.8l11-8.4c-0.5-1.6-1.2-2.7-2.1-3.5
				c-0.9-0.7-1.9-1.1-3-1.1c-0.8,0-1.6,0.2-2.3,0.7c-0.7,0.5-1.3,1.1-1.9,2.1c-0.5,0.9-0.9,2.1-1.3,3.5
				C583,511.8,582.8,513.5,582.8,515.4z M594.6,515.5c0-0.3,0-0.5,0-0.8c0-0.3,0-0.5,0-0.8l-10.9,8.3c0.5,1.5,1.1,2.7,2,3.4
				c0.9,0.7,1.9,1.1,3,1.1c0.8,0,1.6-0.2,2.3-0.7c0.7-0.5,1.3-1.1,1.9-2.1c0.5-0.9,0.9-2.1,1.2-3.5
				C594.5,519.1,594.6,517.4,594.6,515.5z"/>
			<path class="st2" d="M608.7,530.9v-5.1h7.4v-19.9l-6.5,3.8l-1.8-4.7l9.3-5.2h4.6v26h6.4v5.1H608.7z"/>
			<path class="st2" d="M637.8,530.9v-5.1h7.4v-19.9l-6.5,3.8L637,505l9.3-5.2h4.6v26h6.4v5.1H637.8z"/>
			<path class="st2" d="M667,530.9v-5.1h7.4v-19.9l-6.5,3.8l-1.8-4.7l9.3-5.2h4.6v26h6.4v5.1H667z"/>
			<path class="st2" d="M696.1,530.9v-5.1h7.4v-19.9l-6.5,3.8l-1.8-4.7l9.3-5.2h4.6v26h6.4v5.1H696.1z"/>
			<path class="st2" d="M725.3,530.9v-5.1h7.4v-19.9l-6.5,3.8l-1.8-4.7l9.3-5.2h4.6v26h6.4v5.1H725.3z"/>
			<path class="st2" d="M754.4,530.9v-5.1h7.4v-19.9l-6.5,3.8l-1.8-4.7l9.3-5.2h4.6v26h6.4v5.1H754.4z"/>
			<path class="st2" d="M98.7,574.1v-5.1h7.4V549l-6.5,3.8l-1.8-4.7l9.3-5.2h4.6v26h6.4v5.1H98.7z"/>
			<path class="st2" d="M127.8,574.1v-5.1h7.4V549l-6.5,3.8l-1.8-4.7l9.3-5.2h4.6v26h6.4v5.1H127.8z"/>
			<path class="st2" d="M157,574.1v-5.1h7.4V549l-6.5,3.8l-1.8-4.7l9.3-5.2h4.6v26h6.4v5.1H157z"/>
			<path class="st2" d="M186.1,574.1v-5.1h7.4V549l-6.5,3.8l-1.8-4.7l9.3-5.2h4.6v26h6.4v5.1H186.1z"/>
			<path class="st2" d="M215.3,574.1v-5.1h7.4V549l-6.5,3.8l-1.8-4.7l9.3-5.2h4.6v26h6.4v5.1H215.3z"/>
			<path class="st2" d="M244.4,574.1v-5.1h7.4V549l-6.5,3.8l-1.8-4.7l9.3-5.2h4.6v26h6.4v5.1H244.4z"/>
			<path class="st2" d="M273.6,574.1v-5.1h7.4V549l-6.5,3.8l-1.8-4.7l9.3-5.2h4.6v26h6.4v5.1H273.6z"/>
			<path class="st2" d="M302.7,574.1v-5.1h7.4V549l-6.5,3.8l-1.8-4.7l9.3-5.2h4.6v26h6.4v5.1H302.7z"/>
			<path class="st2" d="M331.8,574.1v-5.1h7.4V549l-6.5,3.8l-1.8-4.7l9.3-5.2h4.6v26h6.4v5.1H331.8z"/>
			<path class="st2" d="M361,574.1v-5.1h7.4V549l-6.5,3.8l-1.8-4.7l9.3-5.2h4.6v26h6.4v5.1H361z"/>
			<path class="st2" d="M390.1,574.1v-5.1h7.4V549l-6.5,3.8l-1.8-4.7l9.3-5.2h4.6v26h6.4v5.1H390.1z"/>
			<path class="st2" d="M419.3,574.1v-5.1h7.4V549l-6.5,3.8l-1.8-4.7l9.3-5.2h4.6v26h6.4v5.1H419.3z"/>
			<path class="st2" d="M448.4,574.1v-5.1h7.4V549l-6.5,3.8l-1.8-4.7l9.3-5.2h4.6v26h6.4v5.1H448.4z"/>
			<path class="st2" d="M477.6,574.1v-5.1h7.4V549l-6.5,3.8l-1.8-4.7l9.3-5.2h4.6v26h6.4v5.1H477.6z"/>
			<path class="st2" d="M506.7,574.1v-5.1h7.4V549l-6.5,3.8l-1.8-4.7l9.3-5.2h4.6v26h6.4v5.1H506.7z"/>
			<path class="st2" d="M535.9,574.1v-5.1h7.4V549l-6.5,3.8l-1.8-4.7l9.3-5.2h4.6v26h6.4v5.1H535.9z"/>
			<path class="st2" d="M565,574.1v-5.1h7.4V549l-6.5,3.8l-1.8-4.7l9.3-5.2h4.6v26h6.4v5.1H565z"/>
			<path class="st2" d="M594.2,574.1v-5.1h7.4V549l-6.5,3.8l-1.8-4.7l9.3-5.2h4.6v26h6.4v5.1H594.2z"/>
			<path class="st2" d="M623.3,574.1v-5.1h7.4V549l-6.5,3.8l-1.8-4.7l9.3-5.2h4.6v26h6.4v5.1H623.3z"/>
			<path class="st2" d="M652.4,574.1v-5.1h7.4V549l-6.5,3.8l-1.8-4.7l9.3-5.2h4.6v26h6.4v5.1H652.4z"/>
			<path class="st2" d="M681.6,574.1v-5.1h7.4V549l-6.5,3.8l-1.8-4.7l9.3-5.2h4.6v26h6.4v5.1H681.6z"/>
			<path class="st2" d="M710.7,574.1v-5.1h7.4V549l-6.5,3.8l-1.8-4.7l9.3-5.2h4.6v26h6.4v5.1H710.7z"/>
			<path class="st2" d="M739.9,574.1v-5.1h7.4V549l-6.5,3.8l-1.8-4.7l9.3-5.2h4.6v26h6.4v5.1H739.9z"/>
			<path class="st2" d="M119.7,617.2V612h7.4v-19.9l-6.5,3.8l-1.8-4.7l9.3-5.2h4.6v26h6.4v5.1H119.7z"/>
			<path class="st2" d="M148.9,617.2V612h7.4v-19.9l-6.5,3.8l-1.8-4.7l9.3-5.2h4.6v26h6.4v5.1H148.9z"/>
			<path class="st2" d="M198.6,601.6c0,2.5-0.3,4.8-0.8,6.8c-0.5,2-1.3,3.7-2.3,5.1c-1,1.4-2.2,2.4-3.7,3.2c-1.4,0.7-3.1,1.1-5,1.1
				c-1.6,0-3.1-0.3-4.4-0.9c-1.4-0.6-2.5-1.5-3.5-2.8c-1-1.3-1.8-2.9-2.3-4.9c-0.6-2-0.8-4.4-0.8-7.2c0-2.5,0.3-4.8,0.8-6.8
				c0.5-2,1.3-3.7,2.3-5.1c1-1.4,2.2-2.4,3.7-3.2c1.5-0.7,3.1-1.1,5-1.1c1.6,0,3.1,0.3,4.4,0.9c1.4,0.6,2.5,1.5,3.5,2.8
				c1,1.3,1.7,2.9,2.3,4.9C198.3,596.3,198.6,598.8,198.6,601.6z M181.3,601.7c0,0.3,0,0.6,0,0.9c0,0.3,0,0.6,0,0.8l11-8.4
				c-0.5-1.6-1.2-2.7-2.1-3.5s-1.9-1.1-3-1.1c-0.8,0-1.6,0.2-2.3,0.7c-0.7,0.5-1.3,1.1-1.9,2.1s-0.9,2.1-1.3,3.5
				C181.4,598.1,181.3,599.7,181.3,601.7z M193.1,601.8c0-0.3,0-0.5,0-0.8c0-0.3,0-0.5,0-0.8l-10.9,8.3c0.5,1.5,1.1,2.7,2,3.4
				c0.9,0.7,1.9,1.1,3,1.1c0.8,0,1.6-0.2,2.3-0.7c0.7-0.5,1.3-1.1,1.9-2.1s0.9-2.1,1.2-3.5S193.1,603.7,193.1,601.8z"/>
			<path class="st2" d="M207.1,617.2V612h7.4v-19.9l-6.5,3.8l-1.8-4.7l9.3-5.2h4.6v26h6.4v5.1H207.1z"/>
			<path class="st2" d="M236.3,617.2V612h7.4v-19.9l-6.5,3.8l-1.8-4.7l9.3-5.2h4.6v26h6.4v5.1H236.3z"/>
			<path class="st2" d="M265.4,617.2V612h7.4v-19.9l-6.5,3.8l-1.8-4.7l9.3-5.2h4.6v26h6.4v5.1H265.4z"/>
			<path class="st2" d="M294.6,617.2V612h7.4v-19.9l-6.5,3.8l-1.8-4.7l9.3-5.2h4.6v26h6.4v5.1H294.6z"/>
			<path class="st2" d="M323.7,617.2V612h7.4v-19.9l-6.5,3.8l-1.8-4.7l9.3-5.2h4.6v26h6.4v5.1H323.7z"/>
			<path class="st2" d="M352.9,617.2V612h7.4v-19.9l-6.5,3.8l-1.8-4.7l9.3-5.2h4.6v26h6.4v5.1H352.9z"/>
			<path class="st2" d="M402.6,601.6c0,2.5-0.3,4.8-0.8,6.8c-0.5,2-1.3,3.7-2.3,5.1c-1,1.4-2.2,2.4-3.7,3.2c-1.4,0.7-3.1,1.1-5,1.1
				c-1.6,0-3.1-0.3-4.4-0.9c-1.4-0.6-2.5-1.5-3.5-2.8c-1-1.3-1.8-2.9-2.3-4.9c-0.6-2-0.8-4.4-0.8-7.2c0-2.5,0.3-4.8,0.8-6.8
				c0.5-2,1.3-3.7,2.3-5.1c1-1.4,2.2-2.4,3.7-3.2c1.5-0.7,3.1-1.1,5-1.1c1.6,0,3.1,0.3,4.4,0.9c1.4,0.6,2.5,1.5,3.5,2.8
				c1,1.3,1.7,2.9,2.3,4.9C402.3,596.3,402.6,598.8,402.6,601.6z M385.3,601.7c0,0.3,0,0.6,0,0.9c0,0.3,0,0.6,0,0.8l11-8.4
				c-0.5-1.6-1.2-2.7-2.1-3.5s-1.9-1.1-3-1.1c-0.8,0-1.6,0.2-2.3,0.7c-0.7,0.5-1.3,1.1-1.9,2.1s-0.9,2.1-1.3,3.5
				C385.5,598.1,385.3,599.7,385.3,601.7z M397.1,601.8c0-0.3,0-0.5,0-0.8c0-0.3,0-0.5,0-0.8l-10.9,8.3c0.5,1.5,1.1,2.7,2,3.4
				c0.9,0.7,1.9,1.1,3,1.1c0.8,0,1.6-0.2,2.3-0.7c0.7-0.5,1.3-1.1,1.9-2.1s0.9-2.1,1.2-3.5S397.1,603.7,397.1,601.8z"/>
			<path class="st2" d="M411.2,617.2V612h7.4v-19.9l-6.5,3.8l-1.8-4.7l9.3-5.2h4.6v26h6.4v5.1H411.2z"/>
			<path class="st2" d="M440.3,617.2V612h7.4v-19.9l-6.5,3.8l-1.8-4.7l9.3-5.2h4.6v26h6.4v5.1H440.3z"/>
			<path class="st2" d="M490,601.6c0,2.5-0.3,4.8-0.8,6.8c-0.5,2-1.3,3.7-2.3,5.1c-1,1.4-2.2,2.4-3.7,3.2c-1.4,0.7-3.1,1.1-5,1.1
				c-1.6,0-3.1-0.3-4.4-0.9c-1.4-0.6-2.5-1.5-3.5-2.8c-1-1.3-1.8-2.9-2.3-4.9c-0.6-2-0.8-4.4-0.8-7.2c0-2.5,0.3-4.8,0.8-6.8
				c0.5-2,1.3-3.7,2.3-5.1c1-1.4,2.2-2.4,3.7-3.2c1.5-0.7,3.1-1.1,5-1.1c1.6,0,3.1,0.3,4.4,0.9c1.4,0.6,2.5,1.5,3.5,2.8
				c1,1.3,1.7,2.9,2.3,4.9C489.8,596.3,490,598.8,490,601.6z M472.7,601.7c0,0.3,0,0.6,0,0.9c0,0.3,0,0.6,0,0.8l11-8.4
				c-0.5-1.6-1.2-2.7-2.1-3.5s-1.9-1.1-3-1.1c-0.8,0-1.6,0.2-2.3,0.7c-0.7,0.5-1.3,1.1-1.9,2.1s-0.9,2.1-1.3,3.5
				C472.9,598.1,472.7,599.7,472.7,601.7z M484.5,601.8c0-0.3,0-0.5,0-0.8c0-0.3,0-0.5,0-0.8l-10.9,8.3c0.5,1.5,1.1,2.7,2,3.4
				c0.9,0.7,1.9,1.1,3,1.1c0.8,0,1.6-0.2,2.3-0.7c0.7-0.5,1.3-1.1,1.9-2.1s0.9-2.1,1.2-3.5S484.5,603.7,484.5,601.8z"/>
			<path class="st2" d="M498.6,617.2V612h7.4v-19.9l-6.5,3.8l-1.8-4.7l9.3-5.2h4.6v26h6.4v5.1H498.6z"/>
			<path class="st2" d="M527.7,617.2V612h7.4v-19.9l-6.5,3.8l-1.8-4.7l9.3-5.2h4.6v26h6.4v5.1H527.7z"/>
			<path class="st2" d="M577.5,601.6c0,2.5-0.3,4.8-0.8,6.8c-0.5,2-1.3,3.7-2.3,5.1c-1,1.4-2.2,2.4-3.7,3.2c-1.4,0.7-3.1,1.1-5,1.1
				c-1.6,0-3.1-0.3-4.4-0.9c-1.4-0.6-2.5-1.5-3.5-2.8c-1-1.3-1.8-2.9-2.3-4.9c-0.6-2-0.8-4.4-0.8-7.2c0-2.5,0.3-4.8,0.8-6.8
				c0.5-2,1.3-3.7,2.3-5.1c1-1.4,2.2-2.4,3.7-3.2c1.5-0.7,3.1-1.1,5-1.1c1.6,0,3.1,0.3,4.4,0.9c1.4,0.6,2.5,1.5,3.5,2.8
				c1,1.3,1.7,2.9,2.3,4.9C577.2,596.3,577.5,598.8,577.5,601.6z M560.2,601.7c0,0.3,0,0.6,0,0.9c0,0.3,0,0.6,0,0.8l11-8.4
				c-0.5-1.6-1.2-2.7-2.1-3.5s-1.9-1.1-3-1.1c-0.8,0-1.6,0.2-2.3,0.7c-0.7,0.5-1.3,1.1-1.9,2.1s-0.9,2.1-1.3,3.5
				C560.3,598.1,560.2,599.7,560.2,601.7z M572,601.8c0-0.3,0-0.5,0-0.8c0-0.3,0-0.5,0-0.8l-10.9,8.3c0.5,1.5,1.1,2.7,2,3.4
				c0.9,0.7,1.9,1.1,3,1.1c0.8,0,1.6-0.2,2.3-0.7c0.7-0.5,1.3-1.1,1.9-2.1s0.9-2.1,1.2-3.5S572,603.7,572,601.8z"/>
			<path class="st2" d="M586,617.2V612h7.4v-19.9l-6.5,3.8l-1.8-4.7l9.3-5.2h4.6v26h6.4v5.1H586z"/>
			<path class="st2" d="M615.2,617.2V612h7.4v-19.9l-6.5,3.8l-1.8-4.7l9.3-5.2h4.6v26h6.4v5.1H615.2z"/>
			<path class="st2" d="M664.9,601.6c0,2.5-0.3,4.8-0.8,6.8c-0.5,2-1.3,3.7-2.3,5.1c-1,1.4-2.2,2.4-3.7,3.2c-1.4,0.7-3.1,1.1-5,1.1
				c-1.6,0-3.1-0.3-4.4-0.9c-1.4-0.6-2.5-1.5-3.5-2.8c-1-1.3-1.8-2.9-2.3-4.9c-0.6-2-0.8-4.4-0.8-7.2c0-2.5,0.3-4.8,0.8-6.8
				c0.5-2,1.3-3.7,2.3-5.1c1-1.4,2.2-2.4,3.7-3.2c1.5-0.7,3.1-1.1,5-1.1c1.6,0,3.1,0.3,4.4,0.9c1.4,0.6,2.5,1.5,3.5,2.8
				c1,1.3,1.7,2.9,2.3,4.9C664.6,596.3,664.9,598.8,664.9,601.6z M647.6,601.7c0,0.3,0,0.6,0,0.9c0,0.3,0,0.6,0,0.8l11-8.4
				c-0.5-1.6-1.2-2.7-2.1-3.5s-1.9-1.1-3-1.1c-0.8,0-1.6,0.2-2.3,0.7c-0.7,0.5-1.3,1.1-1.9,2.1s-0.9,2.1-1.3,3.5
				C647.8,598.1,647.6,599.7,647.6,601.7z M659.4,601.8c0-0.3,0-0.5,0-0.8c0-0.3,0-0.5,0-0.8l-10.9,8.3c0.5,1.5,1.1,2.7,2,3.4
				c0.9,0.7,1.9,1.1,3,1.1c0.8,0,1.6-0.2,2.3-0.7c0.7-0.5,1.3-1.1,1.9-2.1s0.9-2.1,1.2-3.5S659.4,603.7,659.4,601.8z"/>
			<path class="st2" d="M694.1,601.6c0,2.5-0.3,4.8-0.8,6.8c-0.5,2-1.3,3.7-2.3,5.1c-1,1.4-2.2,2.4-3.7,3.2c-1.4,0.7-3.1,1.1-5,1.1
				c-1.6,0-3.1-0.3-4.4-0.9c-1.4-0.6-2.5-1.5-3.5-2.8c-1-1.3-1.8-2.9-2.3-4.9c-0.6-2-0.8-4.4-0.8-7.2c0-2.5,0.3-4.8,0.8-6.8
				c0.5-2,1.3-3.7,2.3-5.1c1-1.4,2.2-2.4,3.7-3.2c1.5-0.7,3.1-1.1,5-1.1c1.6,0,3.1,0.3,4.4,0.9c1.4,0.6,2.5,1.5,3.5,2.8
				c1,1.3,1.7,2.9,2.3,4.9C693.8,596.3,694.1,598.8,694.1,601.6z M676.8,601.7c0,0.3,0,0.6,0,0.9c0,0.3,0,0.6,0,0.8l11-8.4
				c-0.5-1.6-1.2-2.7-2.1-3.5s-1.9-1.1-3-1.1c-0.8,0-1.6,0.2-2.3,0.7c-0.7,0.5-1.3,1.1-1.9,2.1s-0.9,2.1-1.3,3.5
				C676.9,598.1,676.8,599.7,676.8,601.7z M688.6,601.8c0-0.3,0-0.5,0-0.8c0-0.3,0-0.5,0-0.8l-10.9,8.3c0.5,1.5,1.1,2.7,2,3.4
				c0.9,0.7,1.9,1.1,3,1.1c0.8,0,1.6-0.2,2.3-0.7c0.7-0.5,1.3-1.1,1.9-2.1s0.9-2.1,1.2-3.5S688.6,603.7,688.6,601.8z"/>
			<path class="st2" d="M702.6,617.2V612h7.4v-19.9l-6.5,3.8l-1.8-4.7l9.3-5.2h4.6v26h6.4v5.1H702.6z"/>
			<path class="st2" d="M148.6,660.3v-5.1h7.4v-19.9l-6.5,3.8l-1.8-4.7l9.3-5.2h4.6v26h6.4v5.1H148.6z"/>
			<path class="st2" d="M177.7,660.3v-5.1h7.4v-19.9l-6.5,3.8l-1.8-4.7l9.3-5.2h4.6v26h6.4v5.1H177.7z"/>
			<path class="st2" d="M206.8,660.3v-5.1h7.4v-19.9l-6.5,3.8l-1.8-4.7l9.3-5.2h4.6v26h6.4v5.1H206.8z"/>
			<path class="st2" d="M236,660.3v-5.1h7.4v-19.9l-6.5,3.8l-1.8-4.7l9.3-5.2h4.6v26h6.4v5.1H236z"/>
			<path class="st2" d="M265.1,660.3v-5.1h7.4v-19.9l-6.5,3.8l-1.8-4.7l9.3-5.2h4.6v26h6.4v5.1H265.1z"/>
			<path class="st2" d="M294.3,660.3v-5.1h7.4v-19.9l-6.5,3.8l-1.8-4.7l9.3-5.2h4.6v26h6.4v5.1H294.3z"/>
			<path class="st2" d="M323.4,660.3v-5.1h7.4v-19.9l-6.5,3.8l-1.8-4.7l9.3-5.2h4.6v26h6.4v5.1H323.4z"/>
			<path class="st2" d="M352.6,660.3v-5.1h7.4v-19.9l-6.5,3.8l-1.8-4.7l9.3-5.2h4.6v26h6.4v5.1H352.6z"/>
			<path class="st2" d="M381.7,660.3v-5.1h7.4v-19.9l-6.5,3.8l-1.8-4.7l9.3-5.2h4.6v26h6.4v5.1H381.7z"/>
			<path class="st2" d="M410.9,660.3v-5.1h7.4v-19.9l-6.5,3.8l-1.8-4.7l9.3-5.2h4.6v26h6.4v5.1H410.9z"/>
			<path class="st2" d="M440,660.3v-5.1h7.4v-19.9L441,639l-1.8-4.7l9.3-5.2h4.6v26h6.4v5.1H440z"/>
			<path class="st2" d="M469.2,660.3v-5.1h7.4v-19.9l-6.5,3.8l-1.8-4.7l9.3-5.2h4.6v26h6.4v5.1H469.2z"/>
			<path class="st2" d="M518.9,644.7c0,2.5-0.3,4.8-0.8,6.8c-0.5,2-1.3,3.7-2.3,5.1c-1,1.4-2.2,2.4-3.7,3.2c-1.4,0.7-3.1,1.1-5,1.1
				c-1.6,0-3.1-0.3-4.4-0.9c-1.4-0.6-2.5-1.5-3.5-2.8c-1-1.3-1.8-2.9-2.3-4.9s-0.8-4.4-0.8-7.2c0-2.5,0.3-4.8,0.8-6.8
				c0.5-2,1.3-3.7,2.3-5.1c1-1.4,2.2-2.4,3.7-3.2c1.5-0.7,3.1-1.1,5-1.1c1.6,0,3.1,0.3,4.4,0.9c1.4,0.6,2.5,1.5,3.5,2.8
				c1,1.3,1.7,2.9,2.3,4.9S518.9,641.9,518.9,644.7z M501.6,644.8c0,0.3,0,0.6,0,0.9s0,0.6,0,0.8l11-8.4c-0.5-1.6-1.2-2.7-2.1-3.5
				c-0.9-0.7-1.9-1.1-3-1.1c-0.8,0-1.6,0.2-2.3,0.7c-0.7,0.5-1.3,1.1-1.9,2.1c-0.5,0.9-0.9,2.1-1.3,3.5
				C501.7,641.2,501.6,642.8,501.6,644.8z M513.4,644.9c0-0.3,0-0.5,0-0.8c0-0.3,0-0.5,0-0.8l-10.9,8.3c0.5,1.5,1.1,2.7,2,3.4
				c0.9,0.7,1.9,1.1,3,1.1c0.8,0,1.6-0.2,2.3-0.7c0.7-0.5,1.3-1.1,1.9-2.1c0.5-0.9,0.9-2.1,1.2-3.5
				C513.2,648.4,513.4,646.8,513.4,644.9z"/>
			<path class="st2" d="M527.4,660.3v-5.1h7.4v-19.9l-6.5,3.8l-1.8-4.7l9.3-5.2h4.6v26h6.4v5.1H527.4z"/>
			<path class="st2" d="M556.6,660.3v-5.1h7.4v-19.9l-6.5,3.8l-1.8-4.7l9.3-5.2h4.6v26h6.4v5.1H556.6z"/>
			<path class="st2" d="M585.7,660.3v-5.1h7.4v-19.9l-6.5,3.8l-1.8-4.7l9.3-5.2h4.6v26h6.4v5.1H585.7z"/>
			<path class="st2" d="M614.9,660.3v-5.1h7.4v-19.9l-6.5,3.8l-1.8-4.7l9.3-5.2h4.6v26h6.4v5.1H614.9z"/>
			<path class="st2" d="M664.6,644.7c0,2.5-0.3,4.8-0.8,6.8c-0.5,2-1.3,3.7-2.3,5.1c-1,1.4-2.2,2.4-3.7,3.2c-1.4,0.7-3.1,1.1-5,1.1
				c-1.6,0-3.1-0.3-4.4-0.9c-1.4-0.6-2.5-1.5-3.5-2.8c-1-1.3-1.8-2.9-2.3-4.9s-0.8-4.4-0.8-7.2c0-2.5,0.3-4.8,0.8-6.8
				c0.5-2,1.3-3.7,2.3-5.1c1-1.4,2.2-2.4,3.7-3.2c1.5-0.7,3.1-1.1,5-1.1c1.6,0,3.1,0.3,4.4,0.9c1.4,0.6,2.5,1.5,3.5,2.8
				c1,1.3,1.7,2.9,2.3,4.9S664.6,641.9,664.6,644.7z M647.3,644.8c0,0.3,0,0.6,0,0.9s0,0.6,0,0.8l11-8.4c-0.5-1.6-1.2-2.7-2.1-3.5
				c-0.9-0.7-1.9-1.1-3-1.1c-0.8,0-1.6,0.2-2.3,0.7c-0.7,0.5-1.3,1.1-1.9,2.1c-0.5,0.9-0.9,2.1-1.3,3.5
				C647.5,641.2,647.3,642.8,647.3,644.8z M659.1,644.9c0-0.3,0-0.5,0-0.8c0-0.3,0-0.5,0-0.8l-10.9,8.3c0.5,1.5,1.1,2.7,2,3.4
				c0.9,0.7,1.9,1.1,3,1.1c0.8,0,1.6-0.2,2.3-0.7c0.7-0.5,1.3-1.1,1.9-2.1c0.5-0.9,0.9-2.1,1.2-3.5
				C659,648.4,659.1,646.8,659.1,644.9z"/>
			<path class="st2" d="M673.2,660.3v-5.1h7.4v-19.9l-6.5,3.8l-1.8-4.7l9.3-5.2h4.6v26h6.4v5.1H673.2z"/>
			<path class="st2" d="M208.5,687.8c0,2.5-0.3,4.8-0.8,6.8c-0.5,2-1.3,3.7-2.3,5.1c-1,1.4-2.2,2.4-3.7,3.2c-1.4,0.7-3.1,1.1-5,1.1
				c-1.6,0-3.1-0.3-4.4-0.9c-1.4-0.6-2.5-1.5-3.5-2.8c-1-1.3-1.8-2.9-2.3-4.9c-0.6-2-0.8-4.4-0.8-7.2c0-2.5,0.3-4.8,0.8-6.8
				c0.5-2,1.3-3.7,2.3-5.1c1-1.4,2.2-2.4,3.7-3.2c1.5-0.7,3.1-1.1,5-1.1c1.6,0,3.1,0.3,4.4,0.9c1.4,0.6,2.5,1.5,3.5,2.8
				c1,1.3,1.7,2.9,2.3,4.9C208.2,682.6,208.5,685,208.5,687.8z M191.2,687.9c0,0.3,0,0.6,0,0.9c0,0.3,0,0.6,0,0.8l11-8.4
				c-0.5-1.6-1.2-2.7-2.1-3.5s-1.9-1.1-3-1.1c-0.8,0-1.6,0.2-2.3,0.7c-0.7,0.5-1.3,1.1-1.9,2.1s-0.9,2.1-1.3,3.5
				C191.3,684.3,191.2,686,191.2,687.9z M203,688c0-0.3,0-0.5,0-0.8c0-0.3,0-0.5,0-0.8l-10.9,8.3c0.5,1.5,1.1,2.7,2,3.4
				c0.9,0.7,1.9,1.1,3,1.1c0.8,0,1.6-0.2,2.3-0.7c0.7-0.5,1.3-1.1,1.9-2.1s0.9-2.1,1.2-3.5S203,689.9,203,688z"/>
			<path class="st2" d="M217,703.4v-5.1h7.4v-19.9l-6.5,3.8l-1.8-4.7l9.3-5.2h4.6v26h6.4v5.1H217z"/>
			<path class="st2" d="M266.7,687.8c0,2.5-0.3,4.8-0.8,6.8c-0.5,2-1.3,3.7-2.3,5.1c-1,1.4-2.2,2.4-3.7,3.2c-1.4,0.7-3.1,1.1-5,1.1
				c-1.6,0-3.1-0.3-4.4-0.9c-1.4-0.6-2.5-1.5-3.5-2.8c-1-1.3-1.8-2.9-2.3-4.9c-0.6-2-0.8-4.4-0.8-7.2c0-2.5,0.3-4.8,0.8-6.8
				c0.5-2,1.3-3.7,2.3-5.1c1-1.4,2.2-2.4,3.7-3.2c1.5-0.7,3.1-1.1,5-1.1c1.6,0,3.1,0.3,4.4,0.9c1.4,0.6,2.5,1.5,3.5,2.8
				c1,1.3,1.7,2.9,2.3,4.9C266.5,682.6,266.7,685,266.7,687.8z M249.4,687.9c0,0.3,0,0.6,0,0.9c0,0.3,0,0.6,0,0.8l11-8.4
				c-0.5-1.6-1.2-2.7-2.1-3.5s-1.9-1.1-3-1.1c-0.8,0-1.6,0.2-2.3,0.7c-0.7,0.5-1.3,1.1-1.9,2.1s-0.9,2.1-1.3,3.5
				C249.6,684.3,249.4,686,249.4,687.9z M261.2,688c0-0.3,0-0.5,0-0.8c0-0.3,0-0.5,0-0.8l-10.9,8.3c0.5,1.5,1.1,2.7,2,3.4
				c0.9,0.7,1.9,1.1,3,1.1c0.8,0,1.6-0.2,2.3-0.7c0.7-0.5,1.3-1.1,1.9-2.1s0.9-2.1,1.2-3.5S261.2,689.9,261.2,688z"/>
			<path class="st2" d="M295.9,687.8c0,2.5-0.3,4.8-0.8,6.8c-0.5,2-1.3,3.7-2.3,5.1c-1,1.4-2.2,2.4-3.7,3.2c-1.4,0.7-3.1,1.1-5,1.1
				c-1.6,0-3.1-0.3-4.4-0.9c-1.4-0.6-2.5-1.5-3.5-2.8c-1-1.3-1.8-2.9-2.3-4.9c-0.6-2-0.8-4.4-0.8-7.2c0-2.5,0.3-4.8,0.8-6.8
				c0.5-2,1.3-3.7,2.3-5.1c1-1.4,2.2-2.4,3.7-3.2c1.5-0.7,3.1-1.1,5-1.1c1.6,0,3.1,0.3,4.4,0.9c1.4,0.6,2.5,1.5,3.5,2.8
				c1,1.3,1.7,2.9,2.3,4.9C295.6,682.6,295.9,685,295.9,687.8z M278.6,687.9c0,0.3,0,0.6,0,0.9c0,0.3,0,0.6,0,0.8l11-8.4
				c-0.5-1.6-1.2-2.7-2.1-3.5s-1.9-1.1-3-1.1c-0.8,0-1.6,0.2-2.3,0.7c-0.7,0.5-1.3,1.1-1.9,2.1s-0.9,2.1-1.3,3.5
				C278.7,684.3,278.6,686,278.6,687.9z M290.4,688c0-0.3,0-0.5,0-0.8c0-0.3,0-0.5,0-0.8l-10.9,8.3c0.5,1.5,1.1,2.7,2,3.4
				c0.9,0.7,1.9,1.1,3,1.1c0.8,0,1.6-0.2,2.3-0.7c0.7-0.5,1.3-1.1,1.9-2.1s0.9-2.1,1.2-3.5S290.4,689.9,290.4,688z"/>
			<path class="st2" d="M304.5,703.4v-5.1h7.4v-19.9l-6.5,3.8l-1.8-4.7l9.3-5.2h4.6v26h6.4v5.1H304.5z"/>
			<path class="st2" d="M354.2,687.8c0,2.5-0.3,4.8-0.8,6.8c-0.5,2-1.3,3.7-2.3,5.1c-1,1.4-2.2,2.4-3.7,3.2c-1.4,0.7-3.1,1.1-5,1.1
				c-1.6,0-3.1-0.3-4.4-0.9c-1.4-0.6-2.5-1.5-3.5-2.8c-1-1.3-1.8-2.9-2.3-4.9c-0.6-2-0.8-4.4-0.8-7.2c0-2.5,0.3-4.8,0.8-6.8
				c0.5-2,1.3-3.7,2.3-5.1c1-1.4,2.2-2.4,3.7-3.2c1.5-0.7,3.1-1.1,5-1.1c1.6,0,3.1,0.3,4.4,0.9c1.4,0.6,2.5,1.5,3.5,2.8
				c1,1.3,1.7,2.9,2.3,4.9C353.9,682.6,354.2,685,354.2,687.8z M336.9,687.9c0,0.3,0,0.6,0,0.9c0,0.3,0,0.6,0,0.8l11-8.4
				c-0.5-1.6-1.2-2.7-2.1-3.5s-1.9-1.1-3-1.1c-0.8,0-1.6,0.2-2.3,0.7c-0.7,0.5-1.3,1.1-1.9,2.1s-0.9,2.1-1.3,3.5
				C337,684.3,336.9,686,336.9,687.9z M348.7,688c0-0.3,0-0.5,0-0.8c0-0.3,0-0.5,0-0.8l-10.9,8.3c0.5,1.5,1.1,2.7,2,3.4
				c0.9,0.7,1.9,1.1,3,1.1c0.8,0,1.6-0.2,2.3-0.7c0.7-0.5,1.3-1.1,1.9-2.1s0.9-2.1,1.2-3.5S348.7,689.9,348.7,688z"/>
			<path class="st2" d="M362.7,703.4v-5.1h7.4v-19.9l-6.5,3.8l-1.8-4.7l9.3-5.2h4.6v26h6.4v5.1H362.7z"/>
			<path class="st2" d="M412.5,687.8c0,2.5-0.3,4.8-0.8,6.8c-0.5,2-1.3,3.7-2.3,5.1c-1,1.4-2.2,2.4-3.7,3.2c-1.4,0.7-3.1,1.1-5,1.1
				c-1.6,0-3.1-0.3-4.4-0.9c-1.4-0.6-2.5-1.5-3.5-2.8c-1-1.3-1.8-2.9-2.3-4.9c-0.6-2-0.8-4.4-0.8-7.2c0-2.5,0.3-4.8,0.8-6.8
				c0.5-2,1.3-3.7,2.3-5.1c1-1.4,2.2-2.4,3.7-3.2c1.5-0.7,3.1-1.1,5-1.1c1.6,0,3.1,0.3,4.4,0.9c1.4,0.6,2.5,1.5,3.5,2.8
				c1,1.3,1.7,2.9,2.3,4.9C412.2,682.6,412.5,685,412.5,687.8z M395.2,687.9c0,0.3,0,0.6,0,0.9c0,0.3,0,0.6,0,0.8l11-8.4
				c-0.5-1.6-1.2-2.7-2.1-3.5s-1.9-1.1-3-1.1c-0.8,0-1.6,0.2-2.3,0.7c-0.7,0.5-1.3,1.1-1.9,2.1s-0.9,2.1-1.3,3.5
				C395.3,684.3,395.2,686,395.2,687.9z M407,688c0-0.3,0-0.5,0-0.8c0-0.3,0-0.5,0-0.8l-10.9,8.3c0.5,1.5,1.1,2.7,2,3.4
				c0.9,0.7,1.9,1.1,3,1.1c0.8,0,1.6-0.2,2.3-0.7c0.7-0.5,1.3-1.1,1.9-2.1s0.9-2.1,1.2-3.5S407,689.9,407,688z"/>
			<path class="st2" d="M421,703.4v-5.1h7.4v-19.9l-6.5,3.8l-1.8-4.7l9.3-5.2h4.6v26h6.4v5.1H421z"/>
			<path class="st2" d="M450.2,703.4v-5.1h7.4v-19.9l-6.5,3.8l-1.8-4.7l9.3-5.2h4.6v26h6.4v5.1H450.2z"/>
			<path class="st2" d="M499.9,687.8c0,2.5-0.3,4.8-0.8,6.8c-0.5,2-1.3,3.7-2.3,5.1c-1,1.4-2.2,2.4-3.7,3.2c-1.4,0.7-3.1,1.1-5,1.1
				c-1.6,0-3.1-0.3-4.4-0.9c-1.4-0.6-2.5-1.5-3.5-2.8c-1-1.3-1.8-2.9-2.3-4.9c-0.6-2-0.8-4.4-0.8-7.2c0-2.5,0.3-4.8,0.8-6.8
				c0.5-2,1.3-3.7,2.3-5.1c1-1.4,2.2-2.4,3.7-3.2c1.5-0.7,3.1-1.1,5-1.1c1.6,0,3.1,0.3,4.4,0.9c1.4,0.6,2.5,1.5,3.5,2.8
				c1,1.3,1.7,2.9,2.3,4.9C499.6,682.6,499.9,685,499.9,687.8z M482.6,687.9c0,0.3,0,0.6,0,0.9c0,0.3,0,0.6,0,0.8l11-8.4
				c-0.5-1.6-1.2-2.7-2.1-3.5s-1.9-1.1-3-1.1c-0.8,0-1.6,0.2-2.3,0.7c-0.7,0.5-1.3,1.1-1.9,2.1s-0.9,2.1-1.3,3.5
				C482.8,684.3,482.6,686,482.6,687.9z M494.4,688c0-0.3,0-0.5,0-0.8c0-0.3,0-0.5,0-0.8l-10.9,8.3c0.5,1.5,1.1,2.7,2,3.4
				c0.9,0.7,1.9,1.1,3,1.1c0.8,0,1.6-0.2,2.3-0.7c0.7-0.5,1.3-1.1,1.9-2.1s0.9-2.1,1.2-3.5S494.4,689.9,494.4,688z"/>
			<path class="st2" d="M508.5,703.4v-5.1h7.4v-19.9l-6.5,3.8l-1.8-4.7l9.3-5.2h4.6v26h6.4v5.1H508.5z"/>
			<path class="st2" d="M558.2,687.8c0,2.5-0.3,4.8-0.8,6.8c-0.5,2-1.3,3.7-2.3,5.1c-1,1.4-2.2,2.4-3.7,3.2c-1.4,0.7-3.1,1.1-5,1.1
				c-1.6,0-3.1-0.3-4.4-0.9c-1.4-0.6-2.5-1.5-3.5-2.8c-1-1.3-1.8-2.9-2.3-4.9c-0.6-2-0.8-4.4-0.8-7.2c0-2.5,0.3-4.8,0.8-6.8
				c0.5-2,1.3-3.7,2.3-5.1c1-1.4,2.2-2.4,3.7-3.2c1.5-0.7,3.1-1.1,5-1.1c1.6,0,3.1,0.3,4.4,0.9c1.4,0.6,2.5,1.5,3.5,2.8
				c1,1.3,1.7,2.9,2.3,4.9C557.9,682.6,558.2,685,558.2,687.8z M540.9,687.9c0,0.3,0,0.6,0,0.9c0,0.3,0,0.6,0,0.8l11-8.4
				c-0.5-1.6-1.2-2.7-2.1-3.5s-1.9-1.1-3-1.1c-0.8,0-1.6,0.2-2.3,0.7c-0.7,0.5-1.3,1.1-1.9,2.1s-0.9,2.1-1.3,3.5
				C541.1,684.3,540.9,686,540.9,687.9z M552.7,688c0-0.3,0-0.5,0-0.8c0-0.3,0-0.5,0-0.8l-10.9,8.3c0.5,1.5,1.1,2.7,2,3.4
				c0.9,0.7,1.9,1.1,3,1.1c0.8,0,1.6-0.2,2.3-0.7c0.7-0.5,1.3-1.1,1.9-2.1s0.9-2.1,1.2-3.5S552.7,689.9,552.7,688z"/>
			<path class="st2" d="M587.3,687.8c0,2.5-0.3,4.8-0.8,6.8c-0.5,2-1.3,3.7-2.3,5.1c-1,1.4-2.2,2.4-3.7,3.2c-1.4,0.7-3.1,1.1-5,1.1
				c-1.6,0-3.1-0.3-4.4-0.9c-1.4-0.6-2.5-1.5-3.5-2.8c-1-1.3-1.8-2.9-2.3-4.9c-0.6-2-0.8-4.4-0.8-7.2c0-2.5,0.3-4.8,0.8-6.8
				c0.5-2,1.3-3.7,2.3-5.1c1-1.4,2.2-2.4,3.7-3.2c1.5-0.7,3.1-1.1,5-1.1c1.6,0,3.1,0.3,4.4,0.9c1.4,0.6,2.5,1.5,3.5,2.8
				c1,1.3,1.7,2.9,2.3,4.9C587.1,682.6,587.3,685,587.3,687.8z M570,687.9c0,0.3,0,0.6,0,0.9c0,0.3,0,0.6,0,0.8l11-8.4
				c-0.5-1.6-1.2-2.7-2.1-3.5s-1.9-1.1-3-1.1c-0.8,0-1.6,0.2-2.3,0.7c-0.7,0.5-1.3,1.1-1.9,2.1s-0.9,2.1-1.3,3.5
				C570.2,684.3,570,686,570,687.9z M581.8,688c0-0.3,0-0.5,0-0.8c0-0.3,0-0.5,0-0.8l-10.9,8.3c0.5,1.5,1.1,2.7,2,3.4
				c0.9,0.7,1.9,1.1,3,1.1c0.8,0,1.6-0.2,2.3-0.7c0.7-0.5,1.3-1.1,1.9-2.1s0.9-2.1,1.2-3.5S581.8,689.9,581.8,688z"/>
			<path class="st2" d="M595.9,703.4v-5.1h7.4v-19.9l-6.5,3.8l-1.8-4.7l9.3-5.2h4.6v26h6.4v5.1H595.9z"/>
			<path class="st2" d="M645.6,687.8c0,2.5-0.3,4.8-0.8,6.8c-0.5,2-1.3,3.7-2.3,5.1c-1,1.4-2.2,2.4-3.7,3.2c-1.4,0.7-3.1,1.1-5,1.1
				c-1.6,0-3.1-0.3-4.4-0.9c-1.4-0.6-2.5-1.5-3.5-2.8c-1-1.3-1.8-2.9-2.3-4.9c-0.6-2-0.8-4.4-0.8-7.2c0-2.5,0.3-4.8,0.8-6.8
				c0.5-2,1.3-3.7,2.3-5.1c1-1.4,2.2-2.4,3.7-3.2c1.5-0.7,3.1-1.1,5-1.1c1.6,0,3.1,0.3,4.4,0.9c1.4,0.6,2.5,1.5,3.5,2.8
				c1,1.3,1.7,2.9,2.3,4.9C645.4,682.6,645.6,685,645.6,687.8z M628.3,687.9c0,0.3,0,0.6,0,0.9c0,0.3,0,0.6,0,0.8l11-8.4
				c-0.5-1.6-1.2-2.7-2.1-3.5s-1.9-1.1-3-1.1c-0.8,0-1.6,0.2-2.3,0.7c-0.7,0.5-1.3,1.1-1.9,2.1s-0.9,2.1-1.3,3.5
				C628.5,684.3,628.3,686,628.3,687.9z M640.1,688c0-0.3,0-0.5,0-0.8c0-0.3,0-0.5,0-0.8l-10.9,8.3c0.5,1.5,1.1,2.7,2,3.4
				c0.9,0.7,1.9,1.1,3,1.1c0.8,0,1.6-0.2,2.3-0.7c0.7-0.5,1.3-1.1,1.9-2.1s0.9-2.1,1.2-3.5S640.1,689.9,640.1,688z"/>
			<path class="st2" d="M654.2,703.4v-5.1h7.4v-19.9l-6.5,3.8l-1.8-4.7l9.3-5.2h4.6v26h6.4v5.1H654.2z"/>
			<path class="st2" d="M264.6,730.9c0,2.5-0.3,4.8-0.8,6.8c-0.5,2-1.3,3.7-2.3,5.1c-1,1.4-2.2,2.4-3.7,3.2c-1.4,0.7-3.1,1.1-5,1.1
				c-1.6,0-3.1-0.3-4.4-0.9c-1.4-0.6-2.5-1.5-3.5-2.8c-1-1.3-1.8-2.9-2.3-4.9c-0.6-2-0.8-4.4-0.8-7.2c0-2.5,0.3-4.8,0.8-6.8
				c0.5-2,1.3-3.7,2.3-5.1c1-1.4,2.2-2.4,3.7-3.2c1.5-0.7,3.1-1.1,5-1.1c1.6,0,3.1,0.3,4.4,0.9c1.4,0.6,2.5,1.5,3.5,2.8
				c1,1.3,1.7,2.9,2.3,4.9C264.3,725.7,264.6,728.1,264.6,730.9z M247.3,731c0,0.3,0,0.6,0,0.9c0,0.3,0,0.6,0,0.8l11-8.4
				c-0.5-1.6-1.2-2.7-2.1-3.5c-0.9-0.8-1.9-1.1-3-1.1c-0.8,0-1.6,0.2-2.3,0.7c-0.7,0.5-1.3,1.1-1.9,2.1s-0.9,2.1-1.3,3.5
				C247.4,727.4,247.3,729.1,247.3,731z M259.1,731.1c0-0.3,0-0.5,0-0.8c0-0.3,0-0.5,0-0.8l-10.9,8.3c0.5,1.5,1.1,2.7,2,3.4
				c0.9,0.7,1.9,1.1,3,1.1c0.8,0,1.6-0.2,2.3-0.7c0.7-0.5,1.3-1.1,1.9-2.1s0.9-2.1,1.2-3.5S259.1,733,259.1,731.1z"/>
			<path class="st2" d="M273.1,746.5v-5.1h7.4v-19.9l-6.5,3.8l-1.8-4.7l9.3-5.2h4.6v26h6.4v5.1H273.1z"/>
			<path class="st2" d="M302.3,746.5v-5.1h7.4v-19.9l-6.5,3.8l-1.8-4.7l9.3-5.2h4.6v26h6.4v5.1H302.3z"/>
			<path class="st2" d="M352,730.9c0,2.5-0.3,4.8-0.8,6.8c-0.5,2-1.3,3.7-2.3,5.1c-1,1.4-2.2,2.4-3.7,3.2c-1.4,0.7-3.1,1.1-5,1.1
				c-1.6,0-3.1-0.3-4.4-0.9c-1.4-0.6-2.5-1.5-3.5-2.8c-1-1.3-1.8-2.9-2.3-4.9c-0.6-2-0.8-4.4-0.8-7.2c0-2.5,0.3-4.8,0.8-6.8
				c0.5-2,1.3-3.7,2.3-5.1c1-1.4,2.2-2.4,3.7-3.2c1.5-0.7,3.1-1.1,5-1.1c1.6,0,3.1,0.3,4.4,0.9c1.4,0.6,2.5,1.5,3.5,2.8
				c1,1.3,1.7,2.9,2.3,4.9C351.7,725.7,352,728.1,352,730.9z M334.7,731c0,0.3,0,0.6,0,0.9c0,0.3,0,0.6,0,0.8l11-8.4
				c-0.5-1.6-1.2-2.7-2.1-3.5s-1.9-1.1-3-1.1c-0.8,0-1.6,0.2-2.3,0.7c-0.7,0.5-1.3,1.1-1.9,2.1s-0.9,2.1-1.3,3.5
				C334.9,727.4,334.7,729.1,334.7,731z M346.5,731.1c0-0.3,0-0.5,0-0.8c0-0.3,0-0.5,0-0.8l-10.9,8.3c0.5,1.5,1.1,2.7,2,3.4
				c0.9,0.7,1.9,1.1,3,1.1c0.8,0,1.6-0.2,2.3-0.7c0.7-0.5,1.3-1.1,1.9-2.1s0.9-2.1,1.2-3.5S346.5,733,346.5,731.1z"/>
			<path class="st2" d="M360.6,746.5v-5.1h7.4v-19.9l-6.5,3.8l-1.8-4.7l9.3-5.2h4.6v26h6.4v5.1H360.6z"/>
			<path class="st2" d="M410.3,730.9c0,2.5-0.3,4.8-0.8,6.8c-0.5,2-1.3,3.7-2.3,5.1c-1,1.4-2.2,2.4-3.7,3.2c-1.4,0.7-3.1,1.1-5,1.1
				c-1.6,0-3.1-0.3-4.4-0.9c-1.4-0.6-2.5-1.5-3.5-2.8c-1-1.3-1.8-2.9-2.3-4.9c-0.6-2-0.8-4.4-0.8-7.2c0-2.5,0.3-4.8,0.8-6.8
				c0.5-2,1.3-3.7,2.3-5.1c1-1.4,2.2-2.4,3.7-3.2c1.5-0.7,3.1-1.1,5-1.1c1.6,0,3.1,0.3,4.4,0.9c1.4,0.6,2.5,1.5,3.5,2.8
				c1,1.3,1.7,2.9,2.3,4.9C410,725.7,410.3,728.1,410.3,730.9z M393,731c0,0.3,0,0.6,0,0.9c0,0.3,0,0.6,0,0.8l11-8.4
				c-0.5-1.6-1.2-2.7-2.1-3.5s-1.9-1.1-3-1.1c-0.8,0-1.6,0.2-2.3,0.7c-0.7,0.5-1.3,1.1-1.9,2.1s-0.9,2.1-1.3,3.5
				C393.2,727.4,393,729.1,393,731z M404.8,731.1c0-0.3,0-0.5,0-0.8c0-0.3,0-0.5,0-0.8l-10.9,8.3c0.5,1.5,1.1,2.7,2,3.4
				c0.9,0.7,1.9,1.1,3,1.1c0.8,0,1.6-0.2,2.3-0.7c0.7-0.5,1.3-1.1,1.9-2.1s0.9-2.1,1.2-3.5S404.8,733,404.8,731.1z"/>
			<path class="st2" d="M418.9,746.5v-5.1h7.4v-19.9l-6.5,3.8l-1.8-4.7l9.3-5.2h4.6v26h6.4v5.1H418.9z"/>
			<path class="st2" d="M468.6,730.9c0,2.5-0.3,4.8-0.8,6.8c-0.5,2-1.3,3.7-2.3,5.1c-1,1.4-2.2,2.4-3.7,3.2c-1.4,0.7-3.1,1.1-5,1.1
				c-1.6,0-3.1-0.3-4.4-0.9c-1.4-0.6-2.5-1.5-3.5-2.8c-1-1.3-1.8-2.9-2.3-4.9c-0.6-2-0.8-4.4-0.8-7.2c0-2.5,0.3-4.8,0.8-6.8
				c0.5-2,1.3-3.7,2.3-5.1c1-1.4,2.2-2.4,3.7-3.2c1.5-0.7,3.1-1.1,5-1.1c1.6,0,3.1,0.3,4.4,0.9c1.4,0.6,2.5,1.5,3.5,2.8
				c1,1.3,1.7,2.9,2.3,4.9C468.3,725.7,468.6,728.1,468.6,730.9z M451.3,731c0,0.3,0,0.6,0,0.9c0,0.3,0,0.6,0,0.8l11-8.4
				c-0.5-1.6-1.2-2.7-2.1-3.5s-1.9-1.1-3-1.1c-0.8,0-1.6,0.2-2.3,0.7c-0.7,0.5-1.3,1.1-1.9,2.1s-0.9,2.1-1.3,3.5
				C451.4,727.4,451.3,729.1,451.3,731z M463.1,731.1c0-0.3,0-0.5,0-0.8c0-0.3,0-0.5,0-0.8l-10.9,8.3c0.5,1.5,1.1,2.7,2,3.4
				c0.9,0.7,1.9,1.1,3,1.1c0.8,0,1.6-0.2,2.3-0.7c0.7-0.5,1.3-1.1,1.9-2.1s0.9-2.1,1.2-3.5S463.1,733,463.1,731.1z"/>
			<path class="st2" d="M477.2,746.5v-5.1h7.4v-19.9l-6.5,3.8l-1.8-4.7l9.3-5.2h4.6v26h6.4v5.1H477.2z"/>
			<path class="st2" d="M526.9,730.9c0,2.5-0.3,4.8-0.8,6.8c-0.5,2-1.3,3.7-2.3,5.1c-1,1.4-2.2,2.4-3.7,3.2c-1.4,0.7-3.1,1.1-5,1.1
				c-1.6,0-3.1-0.3-4.4-0.9c-1.4-0.6-2.5-1.5-3.5-2.8c-1-1.3-1.8-2.9-2.3-4.9c-0.6-2-0.8-4.4-0.8-7.2c0-2.5,0.3-4.8,0.8-6.8
				c0.5-2,1.3-3.7,2.3-5.1c1-1.4,2.2-2.4,3.7-3.2c1.5-0.7,3.1-1.1,5-1.1c1.6,0,3.1,0.3,4.4,0.9c1.4,0.6,2.5,1.5,3.5,2.8
				c1,1.3,1.7,2.9,2.3,4.9C526.6,725.7,526.9,728.1,526.9,730.9z M509.6,731c0,0.3,0,0.6,0,0.9c0,0.3,0,0.6,0,0.8l11-8.4
				c-0.5-1.6-1.2-2.7-2.1-3.5s-1.9-1.1-3-1.1c-0.8,0-1.6,0.2-2.3,0.7c-0.7,0.5-1.3,1.1-1.9,2.1s-0.9,2.1-1.3,3.5
				C509.7,727.4,509.6,729.1,509.6,731z M521.4,731.1c0-0.3,0-0.5,0-0.8c0-0.3,0-0.5,0-0.8l-10.9,8.3c0.5,1.5,1.1,2.7,2,3.4
				c0.9,0.7,1.9,1.1,3,1.1c0.8,0,1.6-0.2,2.3-0.7c0.7-0.5,1.3-1.1,1.9-2.1s0.9-2.1,1.2-3.5S521.4,733,521.4,731.1z"/>
			<path class="st2" d="M556,730.9c0,2.5-0.3,4.8-0.8,6.8c-0.5,2-1.3,3.7-2.3,5.1c-1,1.4-2.2,2.4-3.7,3.2c-1.4,0.7-3.1,1.1-5,1.1
				c-1.6,0-3.1-0.3-4.4-0.9c-1.4-0.6-2.5-1.5-3.5-2.8c-1-1.3-1.8-2.9-2.3-4.9c-0.6-2-0.8-4.4-0.8-7.2c0-2.5,0.3-4.8,0.8-6.8
				c0.5-2,1.3-3.7,2.3-5.1c1-1.4,2.2-2.4,3.7-3.2c1.5-0.7,3.1-1.1,5-1.1c1.6,0,3.1,0.3,4.4,0.9c1.4,0.6,2.5,1.5,3.5,2.8
				c1,1.3,1.7,2.9,2.3,4.9C555.8,725.7,556,728.1,556,730.9z M538.7,731c0,0.3,0,0.6,0,0.9c0,0.3,0,0.6,0,0.8l11-8.4
				c-0.5-1.6-1.2-2.7-2.1-3.5s-1.9-1.1-3-1.1c-0.8,0-1.6,0.2-2.3,0.7c-0.7,0.5-1.3,1.1-1.9,2.1s-0.9,2.1-1.3,3.5
				C538.9,727.4,538.7,729.1,538.7,731z M550.5,731.1c0-0.3,0-0.5,0-0.8c0-0.3,0-0.5,0-0.8l-10.9,8.3c0.5,1.5,1.1,2.7,2,3.4
				c0.9,0.7,1.9,1.1,3,1.1c0.8,0,1.6-0.2,2.3-0.7c0.7-0.5,1.3-1.1,1.9-2.1s0.9-2.1,1.2-3.5S550.5,733,550.5,731.1z"/>
			<path class="st2" d="M585.2,730.9c0,2.5-0.3,4.8-0.8,6.8c-0.5,2-1.3,3.7-2.3,5.1c-1,1.4-2.2,2.4-3.7,3.2c-1.4,0.7-3.1,1.1-5,1.1
				c-1.6,0-3.1-0.3-4.4-0.9c-1.4-0.6-2.5-1.5-3.5-2.8c-1-1.3-1.8-2.9-2.3-4.9c-0.6-2-0.8-4.4-0.8-7.2c0-2.5,0.3-4.8,0.8-6.8
				c0.5-2,1.3-3.7,2.3-5.1c1-1.4,2.2-2.4,3.7-3.2c1.5-0.7,3.1-1.1,5-1.1c1.6,0,3.1,0.3,4.4,0.9c1.4,0.6,2.5,1.5,3.5,2.8
				c1,1.3,1.7,2.9,2.3,4.9C584.9,725.7,585.2,728.1,585.2,730.9z M567.9,731c0,0.3,0,0.6,0,0.9c0,0.3,0,0.6,0,0.8l11-8.4
				c-0.5-1.6-1.2-2.7-2.1-3.5s-1.9-1.1-3-1.1c-0.8,0-1.6,0.2-2.3,0.7c-0.7,0.5-1.3,1.1-1.9,2.1s-0.9,2.1-1.3,3.5
				C568,727.4,567.9,729.1,567.9,731z M579.7,731.1c0-0.3,0-0.5,0-0.8c0-0.3,0-0.5,0-0.8l-10.9,8.3c0.5,1.5,1.1,2.7,2,3.4
				c0.9,0.7,1.9,1.1,3,1.1c0.8,0,1.6-0.2,2.3-0.7c0.7-0.5,1.3-1.1,1.9-2.1s0.9-2.1,1.2-3.5S579.7,733,579.7,731.1z"/>
			<path class="st2" d="M593.7,746.5v-5.1h7.4v-19.9l-6.5,3.8l-1.8-4.7l9.3-5.2h4.6v26h6.4v5.1H593.7z"/>
			<path class="st2" d="M365,774c0,2.5-0.3,4.8-0.8,6.8c-0.5,2-1.3,3.7-2.3,5.1c-1,1.4-2.2,2.4-3.7,3.2c-1.4,0.7-3.1,1.1-5,1.1
				c-1.6,0-3.1-0.3-4.4-0.9c-1.4-0.6-2.5-1.5-3.5-2.8c-1-1.3-1.8-2.9-2.3-4.9s-0.8-4.4-0.8-7.2c0-2.5,0.3-4.8,0.8-6.8
				c0.5-2,1.3-3.7,2.3-5.1c1-1.4,2.2-2.4,3.7-3.2c1.5-0.7,3.1-1.1,5-1.1c1.6,0,3.1,0.3,4.4,0.9c1.4,0.6,2.5,1.5,3.5,2.8
				c1,1.3,1.7,2.9,2.3,4.9S365,771.2,365,774z M347.7,774.1c0,0.3,0,0.6,0,0.9s0,0.6,0,0.8l11-8.4c-0.5-1.6-1.2-2.7-2.1-3.5
				c-0.9-0.7-1.9-1.1-3-1.1c-0.8,0-1.6,0.2-2.3,0.7c-0.7,0.5-1.3,1.1-1.9,2.1c-0.5,0.9-0.9,2.1-1.3,3.5
				C347.9,770.5,347.7,772.2,347.7,774.1z M359.5,774.2c0-0.3,0-0.5,0-0.8c0-0.3,0-0.5,0-0.8l-10.9,8.3c0.5,1.5,1.1,2.7,2,3.4
				c0.9,0.7,1.9,1.1,3,1.1c0.8,0,1.6-0.2,2.3-0.7c0.7-0.5,1.3-1.1,1.9-2.1c0.5-0.9,0.9-2.1,1.2-3.5
				C359.4,777.8,359.5,776.1,359.5,774.2z"/>
			<path class="st2" d="M373.6,789.6v-5.1h7.4v-19.9l-6.5,3.8l-1.8-4.7l9.3-5.2h4.6v26h6.4v5.1H373.6z"/>
			<path class="st2" d="M423.3,774c0,2.5-0.3,4.8-0.8,6.8c-0.5,2-1.3,3.7-2.3,5.1c-1,1.4-2.2,2.4-3.7,3.2c-1.4,0.7-3.1,1.1-5,1.1
				c-1.6,0-3.1-0.3-4.4-0.9c-1.4-0.6-2.5-1.5-3.5-2.8c-1-1.3-1.8-2.9-2.3-4.9s-0.8-4.4-0.8-7.2c0-2.5,0.3-4.8,0.8-6.8
				c0.5-2,1.3-3.7,2.3-5.1c1-1.4,2.2-2.4,3.7-3.2c1.5-0.7,3.1-1.1,5-1.1c1.6,0,3.1,0.3,4.4,0.9c1.4,0.6,2.5,1.5,3.5,2.8
				c1,1.3,1.7,2.9,2.3,4.9S423.3,771.2,423.3,774z M406,774.1c0,0.3,0,0.6,0,0.9s0,0.6,0,0.8l11-8.4c-0.5-1.6-1.2-2.7-2.1-3.5
				c-0.9-0.7-1.9-1.1-3-1.1c-0.8,0-1.6,0.2-2.3,0.7c-0.7,0.5-1.3,1.1-1.9,2.1c-0.5,0.9-0.9,2.1-1.3,3.5
				C406.2,770.5,406,772.2,406,774.1z M417.8,774.2c0-0.3,0-0.5,0-0.8c0-0.3,0-0.5,0-0.8l-10.9,8.3c0.5,1.5,1.1,2.7,2,3.4
				c0.9,0.7,1.9,1.1,3,1.1c0.8,0,1.6-0.2,2.3-0.7c0.7-0.5,1.3-1.1,1.9-2.1c0.5-0.9,0.9-2.1,1.2-3.5
				C417.7,777.8,417.8,776.1,417.8,774.2z"/>
			<path class="st2" d="M431.9,789.6v-5.1h7.4v-19.9l-6.5,3.8l-1.8-4.7l9.3-5.2h4.6v26h6.4v5.1H431.9z"/>
			<path class="st2" d="M481.6,774c0,2.5-0.3,4.8-0.8,6.8c-0.5,2-1.3,3.7-2.3,5.1c-1,1.4-2.2,2.4-3.7,3.2c-1.4,0.7-3.1,1.1-5,1.1
				c-1.6,0-3.1-0.3-4.4-0.9c-1.4-0.6-2.5-1.5-3.5-2.8c-1-1.3-1.8-2.9-2.3-4.9s-0.8-4.4-0.8-7.2c0-2.5,0.3-4.8,0.8-6.8
				c0.5-2,1.3-3.7,2.3-5.1c1-1.4,2.2-2.4,3.7-3.2c1.5-0.7,3.1-1.1,5-1.1c1.6,0,3.1,0.3,4.4,0.9c1.4,0.6,2.5,1.5,3.5,2.8
				c1,1.3,1.7,2.9,2.3,4.9S481.6,771.2,481.6,774z M464.3,774.1c0,0.3,0,0.6,0,0.9s0,0.6,0,0.8l11-8.4c-0.5-1.6-1.2-2.7-2.1-3.5
				c-0.9-0.7-1.9-1.1-3-1.1c-0.8,0-1.6,0.2-2.3,0.7c-0.7,0.5-1.3,1.1-1.9,2.1c-0.5,0.9-0.9,2.1-1.3,3.5
				C464.5,770.5,464.3,772.2,464.3,774.1z M476.1,774.2c0-0.3,0-0.5,0-0.8c0-0.3,0-0.5,0-0.8l-10.9,8.3c0.5,1.5,1.1,2.7,2,3.4
				c0.9,0.7,1.9,1.1,3,1.1c0.8,0,1.6-0.2,2.3-0.7c0.7-0.5,1.3-1.1,1.9-2.1c0.5-0.9,0.9-2.1,1.2-3.5
				C476,777.8,476.1,776.1,476.1,774.2z"/>
			<path class="st2" d="M490.2,789.6v-5.1h7.4v-19.9l-6.5,3.8l-1.8-4.7l9.3-5.2h4.6v26h6.4v5.1H490.2z"/>
		</g>
	</g>
	
		<ellipse transform="matrix(0.9951 -9.861375e-02 9.861375e-02 0.9951 -40.2486 44.9491)" class="st3" cx="434.6" cy="429.6" rx="425.2" ry="422.3"/>
	<g>
		<path class="st4" d="M98.6,480.7l25.3-5.2l2.1,8.8l-16.3,3.8l10.3,44.3L44.8,550l-2.3-9.8l66.3-15.5l-6.4-27.4l-66.3,15.5
			l-2.3-9.8l66.3-15.5L98.6,480.7z"/>
		<path class="st4" d="M28.8,455.6l58.4-1l-58.9-29.6l-0.2-9.6l77.2-1.4l0.2,10.1l-58.3,1l58.9,29.6l0.2,9.6L29,465.7L28.8,455.6z"
			/>
		<path class="st4" d="M113.8,365.4l-1.8,9.1l-7.6-1.5c-1,3.6-2.4,6.8-4.2,9.5c-1.8,2.7-4.1,5-7,6.7c-2.8,1.7-6.3,2.8-10.3,3.2
			c-4,0.4-8.8,0.1-14.3-1c-5.5-1.1-10.1-2.6-13.6-4.7c-3.6-2-6.3-4.4-8.4-7.1c-2-2.7-3.4-5.7-4.1-8.9c-0.7-3.2-0.9-6.6-0.7-10
			l-7.7-1.5l1.8-9.1l7.7,1.5c1.1-3.8,2.6-7.1,4.6-9.9c2-2.8,4.5-4.9,7.4-6.5c2.9-1.6,6.4-2.6,10.3-3c3.9-0.4,8.3-0.1,13.2,0.9
			c5.5,1.1,10.1,2.7,13.7,4.8c3.6,2.1,6.4,4.6,8.4,7.4c2,2.8,3.4,5.8,4.1,9c0.7,3.2,1,6.4,0.8,9.7L113.8,365.4z M50.6,362.5
			c-0.2,2.7,0.1,5,0.9,7.1c0.8,2.1,2,3.9,3.6,5.5c1.7,1.6,3.7,2.9,6.2,4c2.5,1.1,5.4,2,8.7,2.6c3.9,0.8,7.4,1.1,10.2,1
			c2.9-0.1,5.4-0.6,7.4-1.5c2-0.9,3.7-2.2,5-3.8c1.3-1.7,2.3-3.6,3.1-6L50.6,362.5z M97.5,362.2c0.2-2.6-0.2-5-1-7.1
			c-0.8-2.1-2.1-4-3.8-5.6s-3.8-3-6.2-4c-2.4-1.1-5.2-2-8.5-2.6c-3.3-0.7-6.3-1-9-0.9c-2.7,0.1-5.1,0.5-7.4,1.3
			c-2.2,0.8-4.2,2.1-5.7,3.7c-1.6,1.7-2.8,3.8-3.6,6.3L97.5,362.2z"/>
		<path class="st4" d="M93.4,258.4c2.9,1.2,5.5,3,7.9,5.3s4.2,5,5.5,8.1c1.3,3.2,1.9,6.7,1.8,10.7c-0.1,4-1.1,8.4-3.2,13.1l-3.6,8.4
			l25.4,11l-4,9.3l-70.9-30.5l8.3-19.2c1.5-3.4,3.2-6.4,5.3-9.2c2.1-2.8,4.5-4.9,7.3-6.5c2.7-1.6,5.8-2.5,9.1-2.7
			C85.9,256,89.5,256.7,93.4,258.4z M89.7,268.2c-4.6-2-8.7-2-12.3-0.2c-3.7,1.8-6.6,5.3-8.8,10.4l-4.1,9.5l29.2,12.6l3.7-8.7
			c2.4-5.5,2.9-10.3,1.7-14.3S94.8,270.4,89.7,268.2z"/>
		<path class="st4" d="M151.1,196.3c5.7,4,10.2,8,13.4,12.2c3.2,4.2,5.5,8.3,6.6,12.3c1.2,4.1,1.4,8,0.7,11.9
			c-0.7,3.8-2.2,7.4-4.5,10.7c-2.7,3.9-5.8,6.8-9.3,8.7c-3.5,1.9-7.3,2.8-11.4,2.8c-4.1,0-8.5-1-13.1-2.8c-4.6-1.8-9.5-4.5-14.5-8
			c-5.6-3.9-10.1-7.9-13.3-12.1c-3.3-4.1-5.5-8.3-6.7-12.3c-1.2-4.1-1.4-8-0.7-11.8c0.7-3.8,2.2-7.4,4.5-10.6
			c2.7-3.9,5.8-6.8,9.3-8.7c3.5-1.9,7.3-2.8,11.4-2.8c4.1,0,8.5,0.9,13.1,2.7C141.3,190.2,146.1,192.9,151.1,196.3z M145.7,205.4
			c-3.7-2.6-7.3-4.7-10.8-6.3c-3.5-1.6-6.7-2.6-9.8-2.9c-3.1-0.3-5.9,0-8.4,1.1c-2.6,1.1-4.8,2.9-6.7,5.6c-1.8,2.6-2.7,5.3-2.7,8.1
			s0.7,5.6,2.1,8.3c1.4,2.8,3.4,5.5,6,8.2c2.6,2.7,5.6,5.2,9,7.6c3.8,2.6,7.4,4.7,10.8,6.3c3.5,1.6,6.7,2.6,9.8,2.9
			c3,0.3,5.8,0,8.4-1c2.5-1,4.7-2.9,6.6-5.6c1.8-2.6,2.7-5.3,2.7-8.1c0-2.8-0.7-5.6-2.1-8.4c-1.4-2.8-3.4-5.5-6-8.2
			C152.1,210.3,149.1,207.8,145.7,205.4z"/>
		<path class="st4" d="M215.9,155.7c2.5,2.7,4.2,5.6,5.1,8.6c0.9,3,1.1,6.1,0.6,9.3c-0.5,3.2-1.8,6.4-3.8,9.6
			c-2,3.2-4.6,6.3-7.8,9.3l-14.3,13.2l-52.3-56.8l15.6-14.4c12.2-11.2,22.5-12.2,31-3c2.8,3.1,4.6,6.4,5.2,9.8
			c0.6,3.5-0.2,7.2-2.3,11.2c1.7-1.1,3.6-1.9,5.6-2.4c2-0.5,3.9-0.7,6-0.5c2,0.2,4,0.8,6,1.7C212.3,152.4,214.2,153.8,215.9,155.7z
			 M183.3,139.7c-1.1-1.2-2.2-2.1-3.5-2.8s-2.7-1.1-4.2-1c-1.5,0-3.2,0.5-5,1.4c-1.8,0.9-3.8,2.3-6,4.3l-7.7,7.1l16.4,17.8l7.4-6.8
			c1.7-1.6,3.1-3.2,4.1-4.8c1-1.6,1.7-3.3,1.9-5c0.3-1.7,0.1-3.4-0.4-5C185.8,142.9,184.7,141.3,183.3,139.7z M208.3,163.2
			c-1.3-1.4-2.8-2.5-4.5-3.1c-1.7-0.6-3.4-0.8-5.2-0.6c-1.8,0.2-3.8,0.9-5.8,1.9c-2,1-4,2.5-6,4.3l-7.6,7l18,19.5l7.8-7.2
			c4.3-3.9,6.7-7.7,7.2-11.2C212.8,170.2,211.5,166.7,208.3,163.2z"/>
		<path class="st4" d="M295.6,132.6l-9.5,5.6l-13-11.9L246.6,142l4,17.2l-9,5.3l-18-79l11.9-7L295.6,132.6z M265.9,119.7l-31.8-29.2
			l10.1,42L265.9,119.7z"/>
		<path class="st4" d="M307.3,103.8c0.1-2.3,0.3-4.2,0.7-5.6c0.4-1.5,0.8-2.7,1.3-3.8c0.5-1.1,1.1-2,1.8-2.8c0.7-0.8,1.3-1.4,2-1.9
			c-2.2,0.3-4.3,0.1-6.4-0.4c-2-0.6-3.9-1.5-5.5-2.8c-1.6-1.3-3.1-2.9-4.3-4.8c-1.2-1.9-2.2-3.9-3-6.1c-1.1-3.2-1.6-6.3-1.6-9.3
			c0-3,0.7-5.8,2-8.4c1.3-2.6,3.3-5,6.1-7.1c2.7-2.1,6.4-3.9,10.9-5.4l17.5-5.8l24.3,73.3l-9.7,3.2l-10.1-30.3l-7.3,2.4
			c-1.4,0.5-2.6,1-3.7,1.7c-1.1,0.6-2,1.5-2.7,2.5c-0.7,1-1.3,2.2-1.6,3.7c-0.4,1.5-0.6,3.2-0.6,5.2l0,23.5l-10.7,3.6L307.3,103.8z
			 M303.8,71.5c0.8,2.3,1.7,4.1,2.9,5.6c1.2,1.4,2.5,2.5,4.1,3.3c1.6,0.8,3.3,1.1,5.3,1.1c2,0,4.1-0.4,6.5-1.2l8.2-2.7L322,51.1
			l-8.6,2.9c-4.6,1.5-7.7,3.8-9.3,6.8C302.6,63.8,302.5,67.3,303.8,71.5z"/>
		<path class="st4" d="M624.6,162.5l-10.9-6.5l-4.5-46.7l-19.4,32.5l-8.7-5.2l39.5-66.4l8.7,5.2L611,106.3l41.7-16.9l10.3,6.1
			L619.1,112L624.6,162.5z"/>
		<path class="st4" d="M679.7,211.6l-8.1-7.5l7.7-15.8l-22.6-21l-15.3,8.8l-7.7-7.2l70.7-39.7l10.1,9.4L679.7,211.6z M683.7,179.5
			l19-38.8l-37.3,21.7L683.7,179.5z"/>
		<path class="st4" d="M704,247.3l-5.3-7.7l6.4-4.4c-1.9-3.2-3.2-6.4-3.9-9.6c-0.7-3.2-0.7-6.4,0.1-9.6c0.8-3.2,2.4-6.4,4.9-9.6
			c2.5-3.2,6.1-6.4,10.7-9.6c4.6-3.2,8.9-5.4,12.9-6.5c3.9-1.1,7.6-1.5,10.9-1c3.3,0.4,6.4,1.5,9.2,3.3s5.4,3.9,7.7,6.5l6.5-4.5
			l5.3,7.7l-6.5,4.5c2,3.4,3.3,6.9,3.9,10.2c0.6,3.4,0.4,6.7-0.5,9.9c-0.9,3.2-2.6,6.4-5.1,9.5c-2.5,3.1-5.7,6-9.8,8.9
			c-4.6,3.2-9,5.3-13,6.4c-4,1.1-7.7,1.4-11.1,0.9c-3.4-0.5-6.5-1.6-9.3-3.3c-2.8-1.7-5.3-3.8-7.5-6.2L704,247.3z M750.2,204.1
			c-1.8-2-3.7-3.4-5.7-4.3c-2-0.9-4.2-1.3-6.5-1.2c-2.3,0.1-4.7,0.6-7.2,1.7c-2.5,1-5.2,2.5-7.9,4.4c-3.3,2.3-5.9,4.5-7.9,6.6
			c-1.9,2.1-3.3,4.3-4.1,6.4c-0.8,2.1-1,4.2-0.8,6.3c0.3,2.1,1,4.2,2.1,6.4L750.2,204.1z M717.7,237.9c1.8,1.9,3.7,3.4,5.7,4.3
			c2.1,0.9,4.3,1.3,6.6,1.2c2.4-0.1,4.8-0.6,7.2-1.6c2.5-1,5.1-2.4,7.8-4.3c2.8-1.9,5.1-3.9,6.9-5.8c1.8-2,3.2-4,4.2-6.2
			c1-2.2,1.4-4.4,1.3-6.7c-0.1-2.3-0.8-4.6-2-7L717.7,237.9z"/>
		<path class="st4" d="M743.5,324.1l-16-39l71.5-29.3l16,39l-8.2,3.4l-12.1-29.7l-22.1,9.1l11.7,28.5l-8.2,3.4l-11.7-28.5L739.7,291
			l12.1,29.7L743.5,324.1z"/>
		<path class="st4" d="M768.8,399.3l-25.3,3.7l-1.6-8.9l16.5-2.9l-7.4-41.4l-16.5,2.9l-1.6-8.9l25.1-5.2l0.1,0.8
			c0.2,1.2,0.8,2.4,1.8,3.4c1,1.1,2.5,2,4.6,2.8c2.1,0.8,4.9,1.4,8.3,1.8c3.4,0.4,7.7,0.6,12.8,0.5c5.1-0.1,11.2-0.4,18.2-1
			c7-0.6,15.2-1.6,24.4-2.9l6.3,35.3l-67.3,12L768.8,399.3z M823.9,371l-2.9-16.1c-8.1,1.2-15.5,2.1-22.2,2.7s-12.6,0.9-17.7,0.9
			c-5.1,0-9.4-0.3-12.8-1c-3.4-0.7-6-1.7-7.6-3.1l4.8,27L823.9,371z"/>
		<path class="st4" d="M812.2,468.1c-3.1-0.1-6.2-0.8-9.3-2c-3.1-1.2-5.8-3.1-8.1-5.6c-2.4-2.5-4.2-5.6-5.6-9.3
			c-1.4-3.8-2-8.2-1.8-13.3l0.3-9.2l-27.7-1l0.4-10.1l77.2,2.8l-0.7,20.9c-0.1,3.7-0.7,7.2-1.6,10.5c-1,3.3-2.4,6.2-4.4,8.7
			c-2,2.5-4.5,4.4-7.5,5.8C820.2,467.6,816.5,468.2,812.2,468.1z M812.1,457.6c5,0.2,8.8-1.2,11.6-4.3c2.7-3,4.2-7.3,4.4-12.9
			l0.4-10.3l-31.8-1.1l-0.3,9.4c-0.2,6,1,10.6,3.6,14S806.6,457.4,812.1,457.6z"/>
		<path class="st4" d="M742,539.9l2.7-10.7l17.6-0.9l7.6-29.9l-15-9.2l2.6-10.2l68.8,42.8l-3.4,13.4L742,539.9z M772.2,527.8l43.1-2
			l-37-22.3L772.2,527.8z"/>
	</g>
	<g>
		
			<rect x="218.7" y="700.3" transform="matrix(0.9366 -0.3504 0.3504 0.9366 -251.2619 147.2464)" class="st5" width="125.3" height="135.4"/>
		<text transform="matrix(0.8631 0.421 -0.4384 0.8988 217.0997 775.1785)" class="st4 st6 st7 st8">П</text>
	</g>
	<g>
		
			<rect x="300.4" y="750.5" transform="matrix(0.1908 -0.9816 0.9816 0.1908 -500.3812 1019.2512)" class="st5" width="135.4" height="125.3"/>
		<text transform="matrix(0.9426 0.1832 -0.1908 0.9816 303.6366 816.7214)" class="st4 st6 st7 st8">Г</text>
	</g>
	<g>
		<rect x="403.2" y="749.5" class="st5" width="125.3" height="135.4"/>
		<text transform="matrix(0.9603 0 0 1 403.2075 832.944)" class="st4 st6 st7 st8">У</text>
	</g>
	<g>
		
			<rect x="583" y="696.3" transform="matrix(0.9336 -0.3584 0.3584 0.9336 -230.9151 282.1133)" class="st5" width="125.3" height="135.4"/>
		<text transform="matrix(0.8965 -0.3441 0.3584 0.9336 592.9706 801.1186)" class="st4 st6 st7 st8">С</text>
	</g>
	<g>
		<g>
			<path class="st4" d="M558.8,814.7l-9.8,2.4l-16.4-65.9l-29.5,7.4l16.4,65.9l-9.8,2.4L491,752l49.1-12.2L558.8,814.7z"/>
		</g>
	</g>
	<g>
		<g>
			<defs>
				<rect id="SVGID_00000040576951265209613110000016497231469473174680_" x="36" y="27.9" width="781.9" height="801.7"/>
			</defs>
			<clipPath id="SVGID_00000013184089342405533460000010579796598876676530_">
				<use xlink:href="#SVGID_00000040576951265209613110000016497231469473174680_"  style="overflow:visible;"/>
			</clipPath>
			<path style="opacity:0.78;clip-path:url(#SVGID_00000013184089342405533460000010579796598876676530_);fill:#76C488;" d="
				M262.7,421c6.2-4.9,15.3-6.4,25.8-3.7c10.5,2.7,21.7,9.6,30.7,20.5l15.5-12.1c-11.3-13.7-26-23.1-41-27c-15-3.9-31-2.3-43.3,7.3
				L262.7,421z M267.4,478c-9-10.8-13.5-22.9-14-33.5c-0.5-10.5,3.1-18.8,9.3-23.6l-12.4-15c-12.3,9.6-17.4,24.4-16.7,39.5
				c0.7,15,7,31,18.3,44.7L267.4,478z M323.9,494.8c-6.2,4.9-15.3,6.4-25.8,3.7c-10.5-2.7-21.7-9.6-30.7-20.5l-15.5,12.1
				c11.3,13.7,26,23.1,41,27c15,3.9,31,2.3,43.3-7.3L323.9,494.8z M319.2,437.7c9,10.8,13.5,22.9,14,33.5
				c0.5,10.5-3.1,18.8-9.3,23.6l12.4,15c12.3-9.6,17.4-24.4,16.7-39.5c-0.7-15-7-31-18.3-44.7L319.2,437.7z"/>
			<path style="opacity:0.78;clip-path:url(#SVGID_00000013184089342405533460000010579796598876676530_);fill:#76C488;" d="
				M568.6,297.6c7.9,0.1,15.7,4.5,21.7,13.2c6,8.7,9.7,21.1,9.2,35.1l19.7,0.3c0.7-17.7-3.9-34.2-12.5-46.6
				c-8.6-12.4-21.6-21.1-37.3-21.4L568.6,297.6z M533.8,345c0.6-14.1,5.3-26.3,12.1-34.8c6.7-8.5,14.9-12.7,22.8-12.6l0.8-19.4
				c-15.7-0.2-29.4,8.2-39,20.3c-9.6,12.1-15.6,28.5-16.3,46.2L533.8,345z M564.6,393.3c-7.9-0.1-15.7-4.5-21.7-13.2
				c-6-8.7-9.7-21.1-9.2-35.1l-19.7-0.3c-0.7,17.7,3.9,34.2,12.5,46.6c8.6,12.4,21.6,21.1,37.3,21.4L564.6,393.3z M599.4,345.9
				c-0.6,14.1-5.3,26.3-12.1,34.8c-6.7,8.5-14.9,12.7-22.8,12.6l-0.8,19.4c15.7,0.2,29.4-8.2,39-20.3c9.6-12.1,15.6-28.5,16.3-46.2
				L599.4,345.9z"/>
			<path style="opacity:0.78;clip-path:url(#SVGID_00000013184089342405533460000010579796598876676530_);fill:#76C488;" d="
				M307.9,295.2c7.1-4.1,16.9-4.2,27.7,0.6c10.8,4.8,21.7,14.4,29.6,27.8l17.1-9.7c-9.8-16.4-23.6-28.9-38.4-35.6
				c-14.8-6.7-31.7-7.9-45.9,0.2L307.9,295.2z M304.8,358c-8-13.4-11.1-27.4-10-38.9c1-11.6,6-19.8,13.1-23.9l-9.9-16.7
				c-14.2,8.1-21.5,23-22.9,38.9c-1.4,16,2.9,33.9,12.7,50.3L304.8,358z M362.1,386.4c-7.1,4.1-16.9,4.2-27.7-0.6
				c-10.8-4.8-21.7-14.4-29.6-27.8l-17.1,9.7c9.8,16.4,23.6,28.9,38.4,35.6c14.8,6.7,31.7,7.9,45.9-0.2L362.1,386.4z M365.2,323.6
				c8,13.4,11.1,27.4,10,38.9c-1,11.6-6,19.8-13.1,23.9l9.9,16.7c14.2-8.1,21.5-23,22.9-38.9c1.4-16-2.9-33.9-12.7-50.3L365.2,323.6
				z"/>
			<path style="opacity:0.78;clip-path:url(#SVGID_00000013184089342405533460000010579796598876676530_);fill:#76C488;" d="
				M442.5,240.9c8.1-1.1,17.1,2.5,24.9,11.2c7.9,8.7,13.9,21.8,15.8,37.4l19.5-2.6c-2.2-19.1-9.7-36-20.5-48
				c-10.8-11.9-25.6-19.5-41.9-17.3L442.5,240.9z M414.2,298.7c-1.8-15.6,1.1-29.9,6.7-40.4c5.6-10.5,13.5-16.3,21.6-17.3l-2.2-19.3
				c-16.3,2.2-29,13.4-36.7,27.7c-7.7,14.4-11.1,32.8-8.9,51.9L414.2,298.7z M454.9,347.3c-8.1,1.1-17.1-2.5-24.9-11.2
				c-7.9-8.7-13.9-21.8-15.8-37.4l-19.5,2.6c2.2,19.1,9.7,36,20.5,48c10.8,11.9,25.6,19.5,41.9,17.3L454.9,347.3z M483.2,289.5
				c1.8,15.6-1.1,29.9-6.7,40.4c-5.6,10.5-13.5,16.3-21.6,17.3l2.2,19.3c16.3-2.2,29-13.4,36.7-27.7c7.7-14.4,11.1-32.8,8.9-51.9
				L483.2,289.5z"/>
			<path style="opacity:0.78;clip-path:url(#SVGID_00000013184089342405533460000010579796598876676530_);fill:#76C488;" d="
				M467.1,589.2c-5,5.8-9.2,10.8-14,14.6l12.4,15c6.8-5.2,12.4-12.1,16.8-17.2L467.1,589.2z M486.2,573.9c-2.5,1.6-6.2,4.2-9.6,6.9
				c-3.3,2.6-7.1,5.8-9.4,8.5l15.2,12.3c1-1.1,3.5-3.4,6.7-5.9c3.1-2.5,6.1-4.6,7.7-5.5L486.2,573.9z M366.3,575.3
				c-1-8.9,0.5-18.2,4.4-27l-18.2-7.7c-5.3,11.7-7.4,24.4-6,36.9L366.3,575.3z M376.3,599.2c-5.5-6.8-9-15-10.1-23.9l-19.7,2.2
				c1.4,12.4,6.3,24.1,14.2,33.7L376.3,599.2z M398,614c-8.7-3-16.2-8.1-21.7-14.9l-15.5,12c7.9,9.7,18.5,16.9,30.7,21L398,614z
				 M426.2,615.9c-9.7,1.8-19.4,1.1-28.1-1.9l-6.6,18.2c12.2,4.1,25.4,5,38.4,2.6L426.2,615.9z M453.1,603.8
				c-7.9,6.2-17.3,10.3-27,12.1l3.6,18.9c13-2.4,25.3-7.9,35.7-16L453.1,603.8z M474.7,595.4l7.6,6.2L474.7,595.4z M459.3,611.3
				l-6.2-7.5L459.3,611.3z M496.7,590.1c4.6-2.8,6-8.8,3.1-13.3c-2.9-4.5-9-5.8-13.7-3L496.7,590.1z"/>
			<path style="opacity:0.78;clip-path:url(#SVGID_00000013184089342405533460000010579796598876676530_);fill:#76C488;" d="
				M541.8,568.4c-4.8-1.1-11.9-2.4-19.2-2.9c-6.9-0.5-15.6-0.4-22.6,2.5l7.7,17.7c2.5-1,7.2-1.5,13.4-1c5.9,0.4,11.9,1.5,16,2.5
				L541.8,568.4z M577.9,554.1c-12.2,9.5-25.5,14.3-38.2,14.1l-0.5,19.2c18.3,0.4,36-6.6,51-18.3L577.9,554.1z M536.2,454.1
				c17.2,5.8,27.2,8.5,35.3,12.1c7.2,3.2,12.3,6.8,18.5,14.2l15.5-12.1c-8-9.7-15.6-15.2-25.7-19.7c-9.3-4.1-21.3-7.5-37.1-12.8
				L536.2,454.1z M590,480.4c17.4,21,13,54.1-12.2,73.7l12.4,15c32.5-25.3,40.4-70.3,15.2-100.7L590,480.4z M539.5,577.8l-2.3,9.4
				l1,0.2l1.1,0L539.5,577.8z"/>
			<path style="opacity:0.78;clip-path:url(#SVGID_00000013184089342405533460000010579796598876676530_);fill:#76C488;" d="
				M469,414.1c2.3,1.6,4.8,3.5,7.5,5.7c2.6,2.1,5.4,4.4,8.1,6.4l11.9-15.5c-2.3-1.7-4.7-3.7-7.5-5.9c-2.7-2.2-5.7-4.5-8.7-6.6
				L469,414.1z M426.1,410.4c14.6-7.3,31.4-4.1,42.9,3.7l11.3-15.9c-16.1-11-40.6-16.2-63.1-5L426.1,410.4z M395.8,468
				c3-16,5.1-27.5,9.3-36.8c3.9-8.6,9.7-15.3,21-20.9l-8.9-17.2c-15.2,7.6-24.3,17.6-30.1,30.2c-5.4,11.9-7.9,26.1-10.7,41.2
				L395.8,468z M474.6,406.1l-5.6,8L474.6,406.1z"/>
			<path style="opacity:0.78;clip-path:url(#SVGID_00000013184089342405533460000010579796598876676530_);fill:#76C488;" d="
				M491.9,571.5c-9.4,4.1-16,9.2-20.4,13.4c-2.2,2.1-3.8,4-4.9,5.4c-0.6,0.7-1,1.3-1.3,1.8c-0.2,0.2-0.3,0.4-0.4,0.6
				c0,0.1-0.1,0.1-0.1,0.2c0,0,0,0.1,0,0.1c0,0,0,0,0,0c0,0,0,0,0,0c0,0,0,0,0,0c0,0,0,0,8.5,4.8c8.5,4.8,8.5,4.8,8.5,4.8
				c0,0,0,0,0,0c0,0,0,0,0,0c0,0,0,0,0,0c0,0,0,0,0,0c0,0,0,0,0,0c0,0,0,0,0.1-0.1c0.1-0.1,0.3-0.4,0.6-0.8c0.6-0.8,1.6-2,3.1-3.4
				c2.9-2.8,7.6-6.4,14.4-9.4L491.9,571.5z M537.9,568.1c0.1,0-0.2,0-3.2-0.8c-2.4-0.6-5.8-1.4-9.9-1.8c-8.5-0.9-19.3,0-32.9,6
				l8,17.4c10.3-4.5,17.5-4.8,22.5-4.3c2.6,0.3,4.8,0.8,7.1,1.3c1.7,0.4,5.1,1.4,8.2,1.4L537.9,568.1z M495.8,580.2l4,8.7
				L495.8,580.2z"/>
			<path style="opacity:0.78;clip-path:url(#SVGID_00000013184089342405533460000010579796598876676530_);fill:#76C488;" d="
				M515,445.2c10.7,5.3,22.9,9.8,32.3,12.8c4.7,1.6,8.8,2.8,11.6,3.6c1.4,0.4,2.6,0.7,3.4,1c0.4,0.1,0.7,0.2,0.9,0.3
				c0.1,0,0.2,0.1,0.3,0.1c0,0,0.1,0,0.1,0c0,0,0,0,0,0c0,0,0,0,0,0c0,0,0,0,0,0c0,0,0,0,2.7-9.4c2.7-9.4,2.7-9.4,2.7-9.4
				c0,0,0,0,0,0c0,0,0,0,0,0c0,0,0,0,0,0c0,0,0,0,0,0c0,0-0.1,0-0.2-0.1c-0.2,0-0.5-0.1-0.8-0.2c-0.7-0.2-1.8-0.5-3.2-0.9
				c-2.7-0.8-6.6-2-11-3.4c-9-3-20.2-7.1-29.7-11.8L515,445.2z M475.3,406.7c-6.4,7.5-6.4,7.5-6.4,7.5c0,0,0,0,0,0c0,0,0,0,0,0
				c0,0,0,0,0,0c0,0,0,0,0.1,0.1c0.1,0,0.1,0.1,0.2,0.2c0.2,0.2,0.5,0.4,0.8,0.7c0.7,0.6,1.8,1.4,3.1,2.5c2.6,2.1,6.4,4.9,10.7,8.1
				c8.7,6.3,20.2,14.1,31.1,19.5l9-17.4c-9.4-4.7-20-11.7-28.3-17.9c-4.1-3-7.7-5.7-10.2-7.7c-1.2-1-2.2-1.8-2.9-2.3
				c-0.3-0.3-0.6-0.5-0.8-0.6c-0.1-0.1-0.1-0.1-0.2-0.2c0,0,0,0,0,0c0,0,0,0,0,0c0,0,0,0,0,0c0,0,0,0,0,0
				C481.6,399.2,481.6,399.2,475.3,406.7z"/>
			<path style="opacity:0.78;clip-path:url(#SVGID_00000013184089342405533460000010579796598876676530_);fill:#76C488;" d="
				M347.5,557.3l7.3-21.5l18.7,6.1l-7.3,21.5L347.5,557.3z M373,543.2c-2.5,4.7-4.1,9.4-5,13c-0.5,1.8-0.8,3.2-1,4.2
				c-0.1,0.5-0.2,0.9-0.2,1.1c0,0.1,0,0.2,0,0.2c0,0,0,0,0,0c0,0,0,0,0,0c0,0,0,0,0,0c0,0,0,0,0,0c0,0,0,0,0,0c0,0,0,0-9.7-1.4
				c-9.8-1.4-9.7-1.4-9.7-1.4c0,0,0,0,0,0c0,0,0,0,0,0c0,0,0,0,0,0c0,0,0,0,0-0.1c0,0,0-0.1,0-0.1c0-0.1,0-0.3,0.1-0.5
				c0.1-0.4,0.2-0.9,0.3-1.6c0.3-1.3,0.7-3.2,1.3-5.4c1.2-4.4,3.3-10.5,6.5-16.7L373,543.2z M385.1,516c-3.4,9.7-8,19.4-12.1,27.2
				l-17.6-8.8c3.9-7.4,8-16.2,11-24.8L385.1,516z M387.7,455.8c9.8,1.1,9.8,1.1,9.8,1.1c0,0,0,0,0,0c0,0,0,0,0,0c0,0,0,0,0,0
				c0,0,0,0,0,0.1c0,0.1,0,0.2,0,0.3c0,0.3-0.1,0.7-0.1,1.2c-0.1,1-0.3,2.5-0.6,4.4c-0.5,3.7-1.3,8.8-2.3,14.7
				c-2,11.6-5.1,26.5-9.3,38.4l-18.6-6.3c3.7-10.3,6.5-23.9,8.5-35.3c1-5.6,1.7-10.5,2.2-14.1c0.2-1.8,0.4-3.2,0.6-4.1
				c0.1-0.5,0.1-0.8,0.1-1.1c0-0.1,0-0.2,0-0.3c0,0,0-0.1,0-0.1c0,0,0,0,0,0c0,0,0,0,0,0c0,0,0,0,0,0
				C377.9,454.8,377.9,454.8,387.7,455.8z M356.9,560.3l9.4,3l-19.1-4.4L356.9,560.3z M375.7,512.8l9.3,3.2L375.7,512.8z"/>
			<g style="clip-path:url(#SVGID_00000013184089342405533460000010579796598876676530_);">
				<defs>
					<rect id="SVGID_00000093876437590523164880000001113701257228243604_" x="11.4" y="21.1" width="836.3" height="837.8"/>
				</defs>
				<clipPath id="SVGID_00000111900674342627258590000010730339718283758466_">
					<use xlink:href="#SVGID_00000093876437590523164880000001113701257228243604_"  style="overflow:visible;"/>
				</clipPath>
				<g style="clip-path:url(#SVGID_00000111900674342627258590000010730339718283758466_);">
					
						<image style="overflow:visible;" width="423" height="433" xlink:href="854335C6.png"  transform="matrix(1.9771 0 0 1.9349 11.4467 21.104)">
					</image>
				</g>
			</g>
			<g style="clip-path:url(#SVGID_00000013184089342405533460000010579796598876676530_);">
				<defs>
					<rect id="SVGID_00000075136909911338407210000017302409142924372914_" x="149.7" y="156.5" width="559.8" height="567"/>
				</defs>
				<clipPath id="SVGID_00000017487774767198170050000003068008454514912144_">
					<use xlink:href="#SVGID_00000075136909911338407210000017302409142924372914_"  style="overflow:visible;"/>
				</clipPath>
				<g style="clip-path:url(#SVGID_00000017487774767198170050000003068008454514912144_);">
					
						<image style="overflow:visible;" width="283" height="293" xlink:href="854335CA.png"  transform="matrix(1.9781 0 0 1.9352 149.7017 156.5017)">
					</image>
				</g>
			</g>
			<g style="clip-path:url(#SVGID_00000013184089342405533460000010579796598876676530_);">
				<defs>
					<rect id="SVGID_00000145743701715498960600000015753644155747794613_" x="169.5" y="175.8" width="520.3" height="528.3"/>
				</defs>
				<clipPath id="SVGID_00000154423454791517264860000003079656943664967862_">
					<use xlink:href="#SVGID_00000145743701715498960600000015753644155747794613_"  style="overflow:visible;"/>
				</clipPath>
				<g transform="matrix(1 0 0 1 0 0)" style="clip-path:url(#SVGID_00000154423454791517264860000003079656943664967862_);">
					
						<image style="overflow:visible;" width="263" height="273" xlink:href="854335CD.png"  transform="matrix(1.9784 0 0 1.9353 169.4524 175.8442)">
					</image>
				</g>
			</g>
			<path style="opacity:0.93;clip-path:url(#SVGID_00000013184089342405533460000010579796598876676530_);fill:#DEEFE1;" d="
				M262.7,421c6.2-4.9,15.3-6.4,25.8-3.7c10.5,2.7,21.7,9.6,30.7,20.5l15.5-12.1c-11.3-13.7-26-23.1-41-27c-15-3.9-31-2.3-43.3,7.3
				L262.7,421z M267.4,478c-9-10.8-13.5-22.9-14-33.5c-0.5-10.5,3.1-18.8,9.3-23.6l-12.4-15c-12.3,9.6-17.4,24.4-16.7,39.5
				c0.7,15,7,31,18.3,44.7L267.4,478z M323.9,494.8c-6.2,4.9-15.3,6.4-25.8,3.7c-10.5-2.7-21.7-9.6-30.7-20.5l-15.5,12.1
				c11.3,13.7,26,23.1,41,27c15,3.9,31,2.3,43.3-7.3L323.9,494.8z M319.2,437.7c9,10.8,13.5,22.9,14,33.5
				c0.5,10.5-3.1,18.8-9.3,23.6l12.4,15c12.3-9.6,17.4-24.4,16.7-39.5c-0.7-15-7-31-18.3-44.7L319.2,437.7z"/>
			<path style="opacity:0.93;clip-path:url(#SVGID_00000013184089342405533460000010579796598876676530_);fill:#DEEFE1;" d="
				M568.6,297.6c7.9,0.1,15.7,4.5,21.7,13.2c6,8.7,9.7,21.1,9.2,35.1l19.7,0.3c0.7-17.7-3.9-34.2-12.5-46.6
				c-8.6-12.4-21.6-21.1-37.3-21.4L568.6,297.6z M533.8,345c0.6-14.1,5.3-26.3,12.1-34.8c6.7-8.5,14.9-12.7,22.8-12.6l0.8-19.4
				c-15.7-0.2-29.4,8.2-39,20.3c-9.6,12.1-15.6,28.5-16.3,46.2L533.8,345z M564.6,393.3c-7.9-0.1-15.7-4.5-21.7-13.2
				c-6-8.7-9.7-21.1-9.2-35.1l-19.7-0.3c-0.7,17.7,3.9,34.2,12.5,46.6c8.6,12.4,21.6,21.1,37.3,21.4L564.6,393.3z M599.4,345.9
				c-0.6,14.1-5.3,26.3-12.1,34.8c-6.7,8.5-14.9,12.7-22.8,12.6l-0.8,19.4c15.7,0.2,29.4-8.2,39-20.3c9.6-12.1,15.6-28.5,16.3-46.2
				L599.4,345.9z"/>
			<path style="opacity:0.93;clip-path:url(#SVGID_00000013184089342405533460000010579796598876676530_);fill:#DEEFE1;" d="
				M307.9,295.2c7.1-4.1,16.9-4.2,27.7,0.6c10.8,4.8,21.7,14.4,29.6,27.8l17.1-9.7c-9.8-16.4-23.6-28.9-38.4-35.6
				c-14.8-6.7-31.7-7.9-45.9,0.2L307.9,295.2z M304.8,358c-8-13.4-11.1-27.4-10-38.9c1-11.6,6-19.8,13.1-23.9l-9.9-16.7
				c-14.2,8.1-21.5,23-22.9,38.9c-1.4,16,2.9,33.9,12.7,50.3L304.8,358z M362.1,386.4c-7.1,4.1-16.9,4.2-27.7-0.6
				c-10.8-4.8-21.7-14.4-29.6-27.8l-17.1,9.7c9.8,16.4,23.6,28.9,38.4,35.6c14.8,6.7,31.7,7.9,45.9-0.2L362.1,386.4z M365.2,323.6
				c8,13.4,11.1,27.4,10,38.9c-1,11.6-6,19.8-13.1,23.9l9.9,16.7c14.2-8.1,21.5-23,22.9-38.9c1.4-16-2.9-33.9-12.7-50.3L365.2,323.6
				z"/>
			<path style="opacity:0.93;clip-path:url(#SVGID_00000013184089342405533460000010579796598876676530_);fill:#DEEFE1;" d="
				M442.5,240.9c8.1-1.1,17.1,2.5,24.9,11.2c7.9,8.7,13.9,21.8,15.8,37.4l19.5-2.6c-2.2-19.1-9.7-36-20.5-48
				c-10.8-11.9-25.6-19.5-41.9-17.3L442.5,240.9z M414.2,298.7c-1.8-15.6,1.1-29.9,6.7-40.4c5.6-10.5,13.5-16.3,21.6-17.3l-2.2-19.3
				c-16.3,2.2-29,13.4-36.7,27.7c-7.7,14.4-11.1,32.8-8.9,51.9L414.2,298.7z M454.9,347.3c-8.1,1.1-17.1-2.5-24.9-11.2
				c-7.9-8.7-13.9-21.8-15.8-37.4l-19.5,2.6c2.2,19.1,9.7,36,20.5,48c10.8,11.9,25.6,19.5,41.9,17.3L454.9,347.3z M483.2,289.5
				c1.8,15.6-1.1,29.9-6.7,40.4c-5.6,10.5-13.5,16.3-21.6,17.3l2.2,19.3c16.3-2.2,29-13.4,36.7-27.7c7.7-14.4,11.1-32.8,8.9-51.9
				L483.2,289.5z"/>
			<path style="opacity:0.93;clip-path:url(#SVGID_00000013184089342405533460000010579796598876676530_);fill:#DEEFE1;" d="
				M467.1,589.2c-5,5.8-9.2,10.8-14,14.6l12.4,15c6.8-5.2,12.4-12.1,16.8-17.2L467.1,589.2z M486.2,573.9c-2.5,1.6-6.2,4.2-9.6,6.9
				c-3.3,2.6-7.1,5.8-9.4,8.5l15.2,12.3c1-1.1,3.5-3.4,6.7-5.9c3.1-2.5,6.1-4.6,7.7-5.5L486.2,573.9z M366.3,575.3
				c-1-8.9,0.5-18.2,4.4-27l-18.2-7.7c-5.3,11.7-7.4,24.4-6,36.9L366.3,575.3z M376.3,599.2c-5.5-6.8-9-15-10.1-23.9l-19.7,2.2
				c1.4,12.4,6.3,24.1,14.2,33.7L376.3,599.2z M398,614c-8.7-3-16.2-8.1-21.7-14.9l-15.5,12c7.9,9.7,18.5,16.9,30.7,21L398,614z
				 M426.2,615.9c-9.7,1.8-19.4,1.1-28.1-1.9l-6.6,18.2c12.2,4.1,25.4,5,38.4,2.6L426.2,615.9z M453.1,603.8
				c-7.9,6.2-17.3,10.3-27,12.1l3.6,18.9c13-2.4,25.3-7.9,35.7-16L453.1,603.8z M474.7,595.4l7.6,6.2L474.7,595.4z M459.3,611.3
				l-6.2-7.5L459.3,611.3z M496.7,590.1c4.6-2.8,6-8.8,3.1-13.3c-2.9-4.5-9-5.8-13.7-3L496.7,590.1z"/>
			<path style="opacity:0.93;clip-path:url(#SVGID_00000013184089342405533460000010579796598876676530_);fill:#DEEFE1;" d="
				M541.8,568.4c-4.8-1.1-11.9-2.4-19.2-2.9c-6.9-0.5-15.6-0.4-22.6,2.5l7.7,17.7c2.5-1,7.2-1.5,13.4-1c5.9,0.4,11.9,1.5,16,2.5
				L541.8,568.4z M577.9,554.1c-12.2,9.5-25.5,14.3-38.2,14.1l-0.5,19.2c18.3,0.4,36-6.6,51-18.3L577.9,554.1z M536.2,454.1
				c17.2,5.8,27.2,8.5,35.3,12.1c7.2,3.2,12.3,6.8,18.5,14.2l15.5-12.1c-8-9.7-15.6-15.2-25.7-19.7c-9.3-4.1-21.3-7.5-37.1-12.8
				L536.2,454.1z M590,480.4c17.4,21,13,54.1-12.2,73.7l12.4,15c32.5-25.3,40.4-70.3,15.2-100.7L590,480.4z M539.5,577.8l-2.3,9.4
				l1,0.2l1.1,0L539.5,577.8z"/>
			<path style="opacity:0.93;clip-path:url(#SVGID_00000013184089342405533460000010579796598876676530_);fill:#DEEFE1;" d="
				M469,414.1c2.3,1.6,4.8,3.5,7.5,5.7c2.6,2.1,5.4,4.4,8.1,6.4l11.9-15.5c-2.3-1.7-4.7-3.7-7.5-5.9c-2.7-2.2-5.7-4.5-8.7-6.6
				L469,414.1z M426.1,410.4c14.6-7.3,31.4-4.1,42.9,3.7l11.3-15.9c-16.1-11-40.6-16.2-63.1-5L426.1,410.4z M395.8,468
				c3-16,5.1-27.5,9.3-36.8c3.9-8.6,9.7-15.3,21-20.9l-8.9-17.2c-15.2,7.6-24.3,17.6-30.1,30.2c-5.4,11.9-7.9,26.1-10.7,41.2
				L395.8,468z M474.6,406.1l-5.6,8L474.6,406.1z"/>
			<path style="opacity:0.93;clip-path:url(#SVGID_00000013184089342405533460000010579796598876676530_);fill:#DEEFE1;" d="
				M491.9,571.5c-9.4,4.1-16,9.2-20.4,13.4c-2.2,2.1-3.8,4-4.9,5.4c-0.6,0.7-1,1.3-1.3,1.8c-0.2,0.2-0.3,0.4-0.4,0.6
				c0,0.1-0.1,0.1-0.1,0.2c0,0,0,0.1,0,0.1c0,0,0,0,0,0c0,0,0,0,0,0c0,0,0,0,0,0c0,0,0,0,8.5,4.8c8.5,4.8,8.5,4.8,8.5,4.8
				c0,0,0,0,0,0c0,0,0,0,0,0c0,0,0,0,0,0c0,0,0,0,0,0c0,0,0,0,0,0c0,0,0,0,0.1-0.1c0.1-0.1,0.3-0.4,0.6-0.8c0.6-0.8,1.6-2,3.1-3.4
				c2.9-2.8,7.6-6.4,14.4-9.4L491.9,571.5z M537.9,568.1c0.1,0-0.2,0-3.2-0.8c-2.4-0.6-5.8-1.4-9.9-1.8c-8.5-0.9-19.3,0-32.9,6
				l8,17.4c10.3-4.5,17.5-4.8,22.5-4.3c2.6,0.3,4.8,0.8,7.1,1.3c1.7,0.4,5.1,1.4,8.2,1.4L537.9,568.1z M495.8,580.2l4,8.7
				L495.8,580.2z"/>
			<path style="opacity:0.93;clip-path:url(#SVGID_00000013184089342405533460000010579796598876676530_);fill:#DEEFE1;" d="
				M515,445.2c10.7,5.3,22.9,9.8,32.3,12.8c4.7,1.6,8.8,2.8,11.6,3.6c1.4,0.4,2.6,0.7,3.4,1c0.4,0.1,0.7,0.2,0.9,0.3
				c0.1,0,0.2,0.1,0.3,0.1c0,0,0.1,0,0.1,0c0,0,0,0,0,0c0,0,0,0,0,0c0,0,0,0,0,0c0,0,0,0,2.7-9.4c2.7-9.4,2.7-9.4,2.7-9.4
				c0,0,0,0,0,0c0,0,0,0,0,0c0,0,0,0,0,0c0,0,0,0,0,0c0,0-0.1,0-0.2-0.1c-0.2,0-0.5-0.1-0.8-0.2c-0.7-0.2-1.8-0.5-3.2-0.9
				c-2.7-0.8-6.6-2-11-3.4c-9-3-20.2-7.1-29.7-11.8L515,445.2z M475.3,406.7c-6.4,7.5-6.4,7.5-6.4,7.5c0,0,0,0,0,0c0,0,0,0,0,0
				c0,0,0,0,0,0c0,0,0,0,0.1,0.1c0.1,0,0.1,0.1,0.2,0.2c0.2,0.2,0.5,0.4,0.8,0.7c0.7,0.6,1.8,1.4,3.1,2.5c2.6,2.1,6.4,4.9,10.7,8.1
				c8.7,6.3,20.2,14.1,31.1,19.5l9-17.4c-9.4-4.7-20-11.7-28.3-17.9c-4.1-3-7.7-5.7-10.2-7.7c-1.2-1-2.2-1.8-2.9-2.3
				c-0.3-0.3-0.6-0.5-0.8-0.6c-0.1-0.1-0.1-0.1-0.2-0.2c0,0,0,0,0,0c0,0,0,0,0,0c0,0,0,0,0,0c0,0,0,0,0,0
				C481.6,399.2,481.6,399.2,475.3,406.7z"/>
			<path style="opacity:0.93;clip-path:url(#SVGID_00000013184089342405533460000010579796598876676530_);fill:#DEEFE1;" d="
				M347.5,557.3l7.3-21.5l18.7,6.1l-7.3,21.5L347.5,557.3z M373,543.2c-2.5,4.7-4.1,9.4-5,13c-0.5,1.8-0.8,3.2-1,4.2
				c-0.1,0.5-0.2,0.9-0.2,1.1c0,0.1,0,0.2,0,0.2c0,0,0,0,0,0c0,0,0,0,0,0c0,0,0,0,0,0c0,0,0,0,0,0c0,0,0,0,0,0c0,0,0,0-9.7-1.4
				c-9.8-1.4-9.7-1.4-9.7-1.4c0,0,0,0,0,0c0,0,0,0,0,0c0,0,0,0,0,0c0,0,0,0,0-0.1c0,0,0-0.1,0-0.1c0-0.1,0-0.3,0.1-0.5
				c0.1-0.4,0.2-0.9,0.3-1.6c0.3-1.3,0.7-3.2,1.3-5.4c1.2-4.4,3.3-10.5,6.5-16.7L373,543.2z M385.1,516c-3.4,9.7-8,19.4-12.1,27.2
				l-17.6-8.8c3.9-7.4,8-16.2,11-24.8L385.1,516z M387.7,455.8c9.8,1.1,9.8,1.1,9.8,1.1c0,0,0,0,0,0c0,0,0,0,0,0c0,0,0,0,0,0
				c0,0,0,0,0,0.1c0,0.1,0,0.2,0,0.3c0,0.3-0.1,0.7-0.1,1.2c-0.1,1-0.3,2.5-0.6,4.4c-0.5,3.7-1.3,8.8-2.3,14.7
				c-2,11.6-5.1,26.5-9.3,38.4l-18.6-6.3c3.7-10.3,6.5-23.9,8.5-35.3c1-5.6,1.7-10.5,2.2-14.1c0.2-1.8,0.4-3.2,0.6-4.1
				c0.1-0.5,0.1-0.8,0.1-1.1c0-0.1,0-0.2,0-0.3c0,0,0-0.1,0-0.1c0,0,0,0,0,0c0,0,0,0,0,0c0,0,0,0,0,0
				C377.9,454.8,377.9,454.8,387.7,455.8z M356.9,560.3l9.4,3l-19.1-4.4L356.9,560.3z M375.7,512.8l9.3,3.2L375.7,512.8z"/>
		</g>
	</g>
</g>
</svg>
